<svg width="41" height="41" viewBox="0 0 41 41" fill="none" xmlns="http://www.w3.org/2000/svg">
<path d="M0 20.5L30.75 2.74648L30.75 38.2535L0 20.5Z" fill="#EE3D96"/>
<path d="M14.2357 22.5401C14.5599 22.3264 14.9578 22.1201 15.4147 21.9359C15.5768 21.9874 15.7536 22.0317 15.9304 22.0685C16.0483 22.0906 16.1662 22.1053 16.2841 22.1201C17.2641 23.0854 18.6421 24.0506 20.3515 24.2864C20.6021 24.3233 20.86 24.338 21.1179 24.338C22.6137 24.338 24.1242 23.7411 25.6274 22.5548C24.1611 24.6696 22.4663 25.8338 20.5873 26.0254C18.5536 26.2317 16.6599 25.2517 15.3631 24.3159C14.582 23.7559 14.0073 23.2106 13.7494 22.9454C13.8746 22.8053 14.0441 22.6727 14.2357 22.5401ZM15.7536 22.9896C15.9747 22.9896 16.122 22.8348 16.122 22.6138C16.122 22.4075 15.9599 22.238 15.761 22.238C15.5547 22.2306 15.4147 22.4296 15.4073 22.6211C15.3999 22.8201 15.5694 22.9896 15.7536 22.9896Z" fill="#EE3D96"/>
<path d="M14.2062 18.06C14.7588 17.8611 15.3262 17.7285 15.9083 17.6621C16.1367 17.8537 16.3873 18.0527 16.6746 18.259C15.9451 18.6495 15.2599 19.1064 14.6409 19.6074C14.5378 19.6958 14.5083 19.8432 14.5746 19.9537C14.6114 20.0127 14.9578 20.6095 15.5693 21.3464C15.5104 21.3685 15.4588 21.3906 15.4072 21.4053C14.7736 21.1695 14.2283 20.7937 13.7935 20.3885C13.1672 19.8137 12.7546 19.1874 12.5704 18.8853C13.0714 18.5464 13.6241 18.2664 14.2062 18.06ZM14.5304 18.9516C14.7514 18.9516 14.8988 18.7969 14.8988 18.5758C14.8988 18.3695 14.7367 18.2 14.5378 18.2C14.3314 18.1927 14.1914 18.3916 14.1841 18.5832C14.1767 18.7822 14.3462 18.9516 14.5304 18.9516Z" fill="#EE3D96"/>
<path d="M23.321 15.4295C24.8758 16.1369 25.7084 17.6253 26.0916 18.5464C25.8042 18.3474 25.5094 18.1632 25.2147 18.0085C25.2737 17.8316 25.2958 17.4632 24.9789 17.1979C24.92 17.1464 24.7358 16.9916 22.4368 15.8495C22.2894 15.7758 21.8473 15.5548 21.3241 15.739C20.8599 15.9011 20.462 16.3284 20.1378 17.0137C20.1231 17.0432 20.1157 17.08 20.1157 17.1169C19.6957 17.1758 19.2831 17.2642 18.8778 17.3748C18.7231 17.419 18.5757 17.4632 18.421 17.5148C18.2588 17.5664 18.1041 17.6253 17.9494 17.6842C17.6915 17.7874 17.4336 17.8906 17.1757 18.0158C16.9841 17.8832 16.7999 17.7506 16.6304 17.6179C16.5273 17.5369 16.4315 17.4632 16.343 17.3895C16.2546 17.3158 16.1662 17.2421 16.0851 17.1685C15.702 16.8369 15.422 16.5495 15.2599 16.38C17.3378 14.5895 20.6168 14.2063 23.321 15.4295ZM19.2168 16.0632C19.2168 15.8569 19.0546 15.6874 18.8557 15.6874C18.6494 15.68 18.5094 15.879 18.502 16.0706C18.4946 16.2695 18.6567 16.439 18.8483 16.439C19.062 16.439 19.2168 16.2842 19.2168 16.0632Z" fill="#EE3D96"/>
<path d="M21.501 16.2621C21.7736 16.1663 22.0094 16.2621 22.1862 16.3505C23.8294 17.1684 24.5221 17.5516 24.6178 17.6327C24.6694 17.6769 24.6915 17.7211 24.6915 17.7653C23.3726 17.1684 22.0315 16.9621 20.7273 17.0579C20.9704 16.6158 21.2283 16.3579 21.501 16.2621Z" fill="#FFDA00"/>
<path d="M17.1831 18.6053C17.2715 18.5611 17.3526 18.5169 17.441 18.48C17.5294 18.4358 17.6178 18.399 17.7136 18.3548C18.1336 18.1706 18.5536 18.0232 18.9736 17.9053C19.121 17.8611 19.261 17.8242 19.4084 17.7948C19.5484 17.7579 19.6884 17.7358 19.8358 17.7063C20.0126 17.6769 20.1821 17.6474 20.3589 17.6253C22.4368 17.3748 24.36 17.9127 26.0916 19.2243C26.1653 19.2832 26.239 19.3422 26.32 19.4011C26.3569 19.4306 26.3937 19.46 26.4306 19.4895C26.4748 19.5264 26.519 19.5411 26.5706 19.5485C26.5632 19.5558 26.5632 19.5632 26.5558 19.5706C26.2906 19.9906 26.3274 20.3811 26.379 20.5948C26.4158 20.7495 26.4821 20.8969 26.5706 21.0369C26.5116 21.0443 26.46 21.0664 26.4085 21.1106C26.379 21.1401 26.3569 21.1622 26.3274 21.1916C26.2684 21.2506 26.2095 21.3095 26.1506 21.3611C26.0916 21.4201 26.0253 21.479 25.9663 21.5306C24.1021 23.2327 22.2379 23.9769 20.4252 23.7264C19.1063 23.5496 17.9863 22.8643 17.1094 22.1053C17.021 22.0317 16.9326 21.9506 16.8515 21.8769C16.7631 21.7959 16.6747 21.7148 16.5936 21.6338C16.5641 21.6043 16.5347 21.5748 16.5052 21.5453C16.4389 21.479 16.3799 21.4127 16.3136 21.3464C16.2473 21.2801 16.1884 21.2137 16.1294 21.1401C15.6578 20.6022 15.3336 20.1306 15.1641 19.8727C15.8126 19.379 16.4905 18.9516 17.1831 18.6053ZM20.9116 19.6811C20.9484 19.6885 20.9926 19.6958 21.0295 19.7032C20.9852 19.6885 20.9484 19.6811 20.9116 19.6811ZM20.3294 22.1569C20.7052 22.8569 21.1326 23.0117 21.4347 23.0117C21.5526 23.0117 21.6558 22.9896 21.7221 22.9601C22.1789 22.8053 22.5105 22.2748 22.4368 21.8327C22.4147 21.7001 22.2895 21.6116 22.1495 21.6338C22.0168 21.6559 21.921 21.7811 21.9505 21.9211C21.98 22.1053 21.8105 22.4074 21.56 22.4959C21.1989 22.6211 20.9042 22.1938 20.7642 21.9211C20.6979 21.8032 20.5505 21.7516 20.4326 21.818C20.3147 21.8843 20.2705 22.0317 20.3294 22.1569ZM17.581 20.1822C17.9052 20.1822 18.1336 19.9537 18.1336 19.6222C18.1336 19.3127 17.8905 19.0621 17.5957 19.0548C17.2936 19.0474 17.0726 19.3422 17.0652 19.6295C17.0578 19.9316 17.301 20.1822 17.581 20.1822Z" fill="#FFDA00"/>
<path d="M12.0251 18.9295C11.9735 18.819 12.003 18.6937 12.0988 18.62C12.8062 18.0969 13.6241 17.7064 14.4862 17.4558C14.6188 17.2053 14.7662 16.9695 14.9283 16.7411C14.7957 16.6011 14.722 16.5127 14.7146 16.4979C14.6336 16.3948 14.6409 16.2474 14.7367 16.159C15.6062 15.3558 16.682 14.7958 17.8315 14.4863C18.6125 14.1768 19.4747 14 20.3736 14C23.6305 14 26.3347 16.2474 26.8653 19.1948C27.0716 19.0106 27.3589 18.8264 27.7495 18.6643L28 19.2537C27.241 19.5779 26.88 19.998 26.9905 20.4474C27.0937 20.8674 27.5505 21.1769 27.8674 21.1548L27.9189 21.7885C27.8895 21.7885 27.86 21.7885 27.8305 21.7885C27.4916 21.7885 27.1379 21.6264 26.8579 21.3832C26.8579 21.3906 26.8505 21.4053 26.8505 21.4127C26.2905 24.2569 23.7042 26.4306 20.5652 26.5117C20.3884 26.5264 20.2189 26.5338 20.0347 26.5338C18.5536 26.5338 16.9694 25.9959 15.4073 24.9496C14.0809 24.0654 13.2483 23.1443 13.2188 23.1001C13.1378 23.0117 13.1378 22.879 13.2114 22.7832C13.4178 22.5253 13.7125 22.2822 14.0662 22.0538C13.9704 21.7369 13.8967 21.4127 13.8451 21.0811C12.6809 20.1895 12.062 19.0032 12.0251 18.9295ZM23.321 15.4295C20.6168 14.2063 17.3452 14.5895 15.2525 16.3579C15.4146 16.5274 15.6946 16.8148 16.0778 17.1463C16.1588 17.22 16.2473 17.2937 16.3357 17.3674C16.4241 17.4411 16.5273 17.5221 16.6231 17.5958C16.7925 17.7285 16.9767 17.8611 17.1683 17.9937C17.4188 17.8758 17.6767 17.7653 17.942 17.6621C18.0968 17.6032 18.2589 17.5442 18.4136 17.4927C18.561 17.4411 18.7157 17.3969 18.8704 17.3527C19.2757 17.2421 19.6883 17.1537 20.1083 17.0948C20.1083 17.0579 20.1157 17.0284 20.1305 16.9916C20.4547 16.3063 20.8599 15.879 21.3168 15.7169C21.8399 15.54 22.2821 15.7611 22.4294 15.8274C24.721 16.9695 24.9052 17.1242 24.9716 17.1758C25.2884 17.4411 25.2737 17.8021 25.2073 17.9864C25.5021 18.1411 25.7895 18.3253 26.0842 18.5243C25.701 17.6253 24.8758 16.1369 23.321 15.4295ZM20.7347 17.0432C22.0389 16.9548 23.38 17.1537 24.6989 17.7506C24.6915 17.7137 24.6768 17.6621 24.6252 17.6179C24.5294 17.5369 23.8368 17.1611 22.1936 16.3358C22.0168 16.2474 21.781 16.159 21.5084 16.2474C21.2284 16.3579 20.9705 16.6158 20.7347 17.0432ZM26.401 21.118C26.4452 21.0738 26.5042 21.0516 26.5631 21.0443C26.4747 20.9043 26.4084 20.7569 26.3716 20.6022C26.32 20.3885 26.2831 19.998 26.5484 19.5779C26.5558 19.5706 26.5558 19.5632 26.5631 19.5558C26.5116 19.5485 26.4674 19.5264 26.4231 19.4969C26.3863 19.4674 26.3495 19.4379 26.3126 19.4085C26.2389 19.3495 26.1652 19.2906 26.0842 19.2316C24.3526 17.92 22.4221 17.3821 20.3515 17.6327C20.182 17.6548 20.0052 17.6842 19.8283 17.7137C19.6883 17.7432 19.5483 17.7653 19.401 17.8021C19.2536 17.839 19.1136 17.8758 18.9662 17.9127C18.5462 18.0306 18.1262 18.1853 17.7062 18.3621C17.6178 18.399 17.5294 18.4432 17.4336 18.4874C17.3452 18.5243 17.2641 18.5685 17.1757 18.6127C16.4831 18.959 15.8051 19.3864 15.1641 19.8801C15.3262 20.138 15.6578 20.6169 16.1294 21.1474C16.1883 21.2138 16.2473 21.2801 16.3136 21.3538C16.3725 21.4201 16.4388 21.4864 16.5052 21.5527C16.5346 21.5822 16.5641 21.6116 16.5936 21.6411C16.6746 21.7222 16.7631 21.8032 16.8515 21.8843C16.9325 21.9653 17.021 22.039 17.1094 22.1127C17.9789 22.8643 19.1062 23.5496 20.4252 23.7338C22.2378 23.9843 24.0947 23.2401 25.9663 21.538C26.0252 21.479 26.0916 21.4274 26.1505 21.3685C26.2095 21.3095 26.2684 21.258 26.3274 21.199C26.3495 21.1695 26.3789 21.1401 26.401 21.118ZM13.742 22.938C13.9999 23.1959 14.5672 23.7485 15.3557 24.3085C16.6599 25.2443 18.5536 26.2243 20.5799 26.018C22.4589 25.8264 24.1463 24.6622 25.62 22.5474C24.1168 23.7338 22.6063 24.3306 21.1105 24.3306C20.8526 24.3306 20.602 24.3159 20.3441 24.279C18.6346 24.0433 17.2567 23.078 16.2767 22.1127C16.1588 22.098 16.0409 22.0832 15.923 22.0611C15.7462 22.0317 15.5767 21.9874 15.4073 21.9285C14.9504 22.1201 14.5525 22.319 14.2283 22.5327C14.0441 22.6727 13.8746 22.8053 13.742 22.938ZM15.3999 21.4053C15.4515 21.3832 15.5104 21.3611 15.562 21.3464C14.943 20.6095 14.5967 20.0127 14.5672 19.9537C14.5009 19.8358 14.5304 19.6885 14.6336 19.6074C15.2525 19.1064 15.9378 18.6495 16.6673 18.259C16.3873 18.0527 16.1294 17.8537 15.9009 17.6621C15.3262 17.7358 14.7515 17.8685 14.1988 18.06C13.6167 18.2664 13.0641 18.5464 12.563 18.8927C12.7472 19.1948 13.1599 19.8137 13.7862 20.3958C14.2283 20.7937 14.7662 21.1769 15.3999 21.4053Z" fill="black"/>
<path d="M20.9115 19.6811C20.9484 19.6811 20.9926 19.6885 21.0294 19.7032C20.9852 19.7032 20.9484 19.6958 20.9115 19.6811Z" fill="#FEDA00"/>
<path d="M17.581 20.1822C17.301 20.1822 17.0578 19.9316 17.0652 19.6369C17.0725 19.3422 17.2936 19.0548 17.5957 19.0622C17.8904 19.0695 18.1336 19.32 18.1336 19.6295C18.1336 19.9537 17.9052 20.1822 17.581 20.1822Z" fill="black"/>
<path d="M18.8484 16.439C18.6568 16.439 18.4947 16.2695 18.5021 16.0705C18.5094 15.879 18.6494 15.68 18.8557 15.6874C19.0547 15.6948 19.2168 15.8569 19.2168 16.0632C19.2168 16.2842 19.0621 16.439 18.8484 16.439Z" fill="black"/>
<path d="M14.5377 18.2C14.7367 18.2074 14.8988 18.3695 14.8988 18.5758C14.8988 18.7969 14.7514 18.9516 14.5304 18.9516C14.3388 18.9516 14.1767 18.7822 14.1841 18.5832C14.1914 18.3916 14.3388 18.1927 14.5377 18.2Z" fill="black"/>
<path d="M15.7609 22.238C15.9598 22.2453 16.1219 22.4075 16.1219 22.6138C16.1219 22.8348 15.9746 22.9896 15.7535 22.9896C15.5619 22.9896 15.3998 22.8201 15.4072 22.6211C15.4146 22.4296 15.5619 22.238 15.7609 22.238Z" fill="black"/>
<path d="M21.722 22.9601C21.6557 22.9822 21.5525 23.0117 21.4346 23.0117C21.1325 23.0117 20.7051 22.8569 20.3293 22.1569C20.263 22.039 20.3072 21.8843 20.4325 21.8253C20.5504 21.759 20.7051 21.8032 20.7641 21.9285C20.9041 22.1938 21.1988 22.6211 21.5599 22.5032C21.8104 22.4148 21.9799 22.1201 21.9504 21.9285C21.9283 21.7959 22.0167 21.6632 22.1493 21.6411C22.282 21.619 22.4146 21.7074 22.4367 21.8401C22.5178 22.2822 22.1788 22.8053 21.722 22.9601Z" fill="black"/>
</svg>
