<svg width="41" height="41" viewBox="0 0 41 41" fill="none" xmlns="http://www.w3.org/2000/svg">
<path d="M41 20.5L10.25 38.2535V2.74648L41 20.5Z" fill="#EE3D96"/>
<path d="M26.594 22.5401C26.2697 22.3264 25.8718 22.1201 25.415 21.9359C25.2529 21.9874 25.076 22.0317 24.8992 22.0685C24.7813 22.0906 24.6634 22.1053 24.5455 22.1201C23.5655 23.0854 22.1876 24.0506 20.4781 24.2864C20.2276 24.3233 19.9697 24.338 19.7118 24.338C18.216 24.338 16.7054 23.7411 15.2023 22.5548C16.6686 24.6696 18.3634 25.8338 20.2423 26.0254C22.276 26.2317 24.1697 25.2517 25.4666 24.3159C26.2476 23.7559 26.8224 23.2106 27.0803 22.9454C26.955 22.8053 26.7855 22.6727 26.594 22.5401ZM25.076 22.9896C24.855 22.9896 24.7076 22.8348 24.7076 22.6138C24.7076 22.4075 24.8697 22.238 25.0687 22.238C25.275 22.2306 25.415 22.4296 25.4224 22.6211C25.4297 22.8201 25.2603 22.9896 25.076 22.9896Z" fill="#EE3D96"/>
<path d="M26.6235 18.06C26.0708 17.8611 25.5035 17.7285 24.9214 17.6621C24.6929 17.8537 24.4424 18.0527 24.155 18.259C24.8845 18.6495 25.5698 19.1064 26.1887 19.6074C26.2919 19.6958 26.3214 19.8432 26.255 19.9537C26.2182 20.0127 25.8719 20.6095 25.2603 21.3464C25.3193 21.3685 25.3708 21.3906 25.4224 21.4053C26.0561 21.1695 26.6014 20.7937 27.0361 20.3885C27.6624 19.8137 28.0751 19.1874 28.2593 18.8853C27.7582 18.5464 27.2056 18.2664 26.6235 18.06ZM26.2993 18.9516C26.0782 18.9516 25.9308 18.7969 25.9308 18.5758C25.9308 18.3695 26.0929 18.2 26.2919 18.2C26.4982 18.1927 26.6382 18.3916 26.6456 18.5832C26.6529 18.7822 26.4835 18.9516 26.2993 18.9516Z" fill="#EE3D96"/>
<path d="M17.5086 15.4295C15.9539 16.1369 15.1213 17.6253 14.7381 18.5464C15.0255 18.3474 15.3202 18.1632 15.6149 18.0085C15.556 17.8316 15.5339 17.4632 15.8507 17.1979C15.9097 17.1464 16.0939 16.9916 18.3929 15.8495C18.5402 15.7758 18.9823 15.5548 19.5055 15.739C19.9697 15.9011 20.3676 16.3284 20.6918 17.0137C20.7066 17.0432 20.7139 17.08 20.7139 17.1169C21.1339 17.1758 21.5466 17.2642 21.9518 17.3748C22.1066 17.419 22.254 17.4632 22.4087 17.5148C22.5708 17.5664 22.7255 17.6253 22.8803 17.6842C23.1382 17.7874 23.3961 17.8906 23.654 18.0158C23.8456 17.8832 24.0298 17.7506 24.1992 17.6179C24.3024 17.5369 24.3982 17.4632 24.4866 17.3895C24.575 17.3158 24.6635 17.2421 24.7445 17.1685C25.1277 16.8369 25.4077 16.5495 25.5698 16.38C23.4919 14.5895 20.2129 14.2063 17.5086 15.4295ZM21.6129 16.0632C21.6129 15.8569 21.775 15.6874 21.974 15.6874C22.1803 15.68 22.3203 15.879 22.3276 16.0706C22.335 16.2695 22.1729 16.439 21.9813 16.439C21.7676 16.439 21.6129 16.2842 21.6129 16.0632Z" fill="#EE3D96"/>
<path d="M19.3287 16.2621C19.056 16.1663 18.8203 16.2621 18.6434 16.3505C17.0002 17.1684 16.3076 17.5516 16.2118 17.6327C16.1602 17.6769 16.1381 17.7211 16.1381 17.7653C17.4571 17.1684 18.7981 16.9621 20.1024 17.0579C19.8592 16.6158 19.6013 16.3579 19.3287 16.2621Z" fill="#FFDA00"/>
<path d="M23.6466 18.6053C23.5581 18.5611 23.4771 18.5169 23.3887 18.48C23.3002 18.4358 23.2118 18.399 23.116 18.3548C22.696 18.1706 22.276 18.0232 21.856 17.9053C21.7086 17.8611 21.5686 17.8243 21.4213 17.7948C21.2813 17.7579 21.1413 17.7358 20.9939 17.7064C20.8171 17.6769 20.6476 17.6474 20.4707 17.6253C18.3928 17.3748 16.4696 17.9127 14.738 19.2243C14.6644 19.2832 14.5907 19.3422 14.5096 19.4011C14.4728 19.4306 14.4359 19.4601 14.3991 19.4895C14.3549 19.5264 14.3107 19.5411 14.2591 19.5485C14.2665 19.5558 14.2665 19.5632 14.2738 19.5706C14.5391 19.9906 14.5023 20.3811 14.4507 20.5948C14.4138 20.7495 14.3475 20.8969 14.2591 21.0369C14.318 21.0443 14.3696 21.0664 14.4212 21.1106C14.4507 21.1401 14.4728 21.1622 14.5023 21.1917C14.5612 21.2506 14.6202 21.3095 14.6791 21.3611C14.738 21.4201 14.8044 21.479 14.8633 21.5306C16.7275 23.2327 18.5918 23.9769 20.4044 23.7264C21.7234 23.5496 22.8434 22.8643 23.7202 22.1053C23.8087 22.0317 23.8971 21.9506 23.9781 21.8769C24.0666 21.7959 24.155 21.7148 24.236 21.6338C24.2655 21.6043 24.295 21.5748 24.3245 21.5453C24.3908 21.479 24.4497 21.4127 24.516 21.3464C24.5823 21.2801 24.6413 21.2138 24.7002 21.1401C25.1718 20.6022 25.496 20.1306 25.6655 19.8727C25.0171 19.379 24.3392 18.9516 23.6466 18.6053ZM19.9181 19.6811C19.8813 19.6885 19.837 19.6958 19.8002 19.7032C19.8444 19.6885 19.8813 19.6811 19.9181 19.6811ZM20.5002 22.1569C20.1244 22.8569 19.697 23.0117 19.3949 23.0117C19.277 23.0117 19.1739 22.9896 19.1076 22.9601C18.6507 22.8054 18.3191 22.2748 18.3928 21.8327C18.4149 21.7001 18.5402 21.6117 18.6802 21.6338C18.8128 21.6559 18.9086 21.7811 18.8791 21.9211C18.8497 22.1053 19.0191 22.4075 19.2697 22.4959C19.6307 22.6211 19.9255 22.1938 20.0655 21.9211C20.1318 21.8032 20.2792 21.7517 20.397 21.818C20.5149 21.8843 20.5592 22.0317 20.5002 22.1569ZM23.2487 20.1822C22.9244 20.1822 22.696 19.9537 22.696 19.6222C22.696 19.3127 22.9392 19.0622 23.2339 19.0548C23.536 19.0474 23.7571 19.3422 23.7644 19.6295C23.7718 19.9316 23.5287 20.1822 23.2487 20.1822Z" fill="#FFDA00"/>
<path d="M28.8045 18.9295C28.8561 18.819 28.8266 18.6937 28.7309 18.62C28.0235 18.0969 27.2056 17.7064 26.3435 17.4558C26.2108 17.2053 26.0635 16.9695 25.9014 16.7411C26.034 16.6011 26.1077 16.5127 26.115 16.4979C26.1961 16.3948 26.1887 16.2474 26.0929 16.159C25.2234 15.3558 24.1477 14.7958 22.9982 14.4863C22.2171 14.1768 21.355 14 20.456 14C17.1992 14 14.4949 16.2474 13.9644 19.1948C13.7581 19.0106 13.4707 18.8264 13.0802 18.6643L12.8297 19.2537C13.5886 19.5779 13.9497 19.998 13.8391 20.4474C13.736 20.8674 13.2791 21.1769 12.9623 21.1548L12.9107 21.7885C12.9402 21.7885 12.9697 21.7885 12.9991 21.7885C13.3381 21.7885 13.6918 21.6264 13.9718 21.3832C13.9718 21.3906 13.9791 21.4053 13.9791 21.4127C14.5391 24.2569 17.1255 26.4306 20.2645 26.5117C20.4413 26.5264 20.6108 26.5338 20.795 26.5338C22.2761 26.5338 23.8603 25.9959 25.4224 24.9496C26.7487 24.0654 27.5814 23.1443 27.6108 23.1001C27.6919 23.0117 27.6919 22.879 27.6182 22.7832C27.4119 22.5253 27.1172 22.2822 26.7635 22.0538C26.8593 21.7369 26.9329 21.4127 26.9845 21.0811C28.1487 20.1895 28.7677 19.0032 28.8045 18.9295ZM17.5086 15.4295C20.2129 14.2063 23.4845 14.5895 25.5771 16.3579C25.415 16.5274 25.135 16.8148 24.7519 17.1463C24.6708 17.22 24.5824 17.2937 24.494 17.3674C24.4055 17.4411 24.3024 17.5221 24.2066 17.5958C24.0371 17.7285 23.8529 17.8611 23.6613 17.9937C23.4108 17.8758 23.1529 17.7653 22.8876 17.6621C22.7329 17.6032 22.5708 17.5442 22.4161 17.4927C22.2687 17.4411 22.1139 17.3969 21.9592 17.3527C21.5539 17.2421 21.1413 17.1537 20.7213 17.0948C20.7213 17.0579 20.7139 17.0284 20.6992 16.9916C20.375 16.3063 19.9697 15.879 19.5129 15.7169C18.9897 15.54 18.5476 15.7611 18.4002 15.8274C16.1086 16.9695 15.9244 17.1242 15.8581 17.1758C15.5413 17.4411 15.556 17.8021 15.6223 17.9864C15.3276 18.1411 15.0402 18.3253 14.7455 18.5243C15.1286 17.6253 15.9539 16.1369 17.5086 15.4295ZM20.095 17.0432C18.7908 16.9548 17.4497 17.1537 16.1307 17.7506C16.1381 17.7137 16.1528 17.6621 16.2044 17.6179C16.3002 17.5369 16.9928 17.1611 18.636 16.3358C18.8129 16.2474 19.0487 16.159 19.3213 16.2474C19.6013 16.3579 19.8592 16.6158 20.095 17.0432ZM14.4286 21.118C14.3844 21.0738 14.3255 21.0516 14.2665 21.0443C14.3549 20.9043 14.4212 20.7569 14.4581 20.6022C14.5097 20.3885 14.5465 19.998 14.2812 19.5779C14.2739 19.5706 14.2739 19.5632 14.2665 19.5558C14.3181 19.5485 14.3623 19.5264 14.4065 19.4969C14.4434 19.4674 14.4802 19.4379 14.517 19.4085C14.5907 19.3495 14.6644 19.2906 14.7455 19.2316C16.4771 17.92 18.4076 17.3821 20.4781 17.6327C20.6476 17.6548 20.8245 17.6842 21.0013 17.7137C21.1413 17.7432 21.2813 17.7653 21.4287 17.8021C21.576 17.839 21.716 17.8758 21.8634 17.9127C22.2834 18.0306 22.7034 18.1853 23.1234 18.3621C23.2119 18.399 23.3003 18.4432 23.3961 18.4874C23.4845 18.5243 23.5655 18.5685 23.654 18.6127C24.3466 18.959 25.0245 19.3864 25.6656 19.8801C25.5035 20.138 25.1719 20.6169 24.7003 21.1474C24.6413 21.2138 24.5824 21.2801 24.5161 21.3538C24.4571 21.4201 24.3908 21.4864 24.3245 21.5527C24.295 21.5822 24.2655 21.6117 24.2361 21.6411C24.155 21.7222 24.0666 21.8032 23.9782 21.8843C23.8971 21.9653 23.8087 22.039 23.7203 22.1127C22.8508 22.8643 21.7234 23.5496 20.4045 23.7338C18.5918 23.9843 16.735 23.2401 14.8634 21.538C14.8044 21.479 14.7381 21.4274 14.6791 21.3685C14.6202 21.3095 14.5612 21.258 14.5023 21.199C14.4802 21.1695 14.4507 21.1401 14.4286 21.118ZM27.0877 22.938C26.8298 23.1959 26.2624 23.7485 25.474 24.3085C24.1698 25.2443 22.2761 26.2243 20.2497 26.018C18.3708 25.8264 16.6834 24.6622 15.2097 22.5474C16.7128 23.7338 18.2234 24.3306 19.7192 24.3306C19.9771 24.3306 20.2276 24.3159 20.4855 24.279C22.195 24.0433 23.5729 23.078 24.5529 22.1127C24.6708 22.098 24.7887 22.0832 24.9066 22.0611C25.0834 22.0317 25.2529 21.9874 25.4224 21.9285C25.8792 22.1201 26.2771 22.319 26.6014 22.5327C26.7856 22.6727 26.955 22.8053 27.0877 22.938ZM25.4298 21.4053C25.3782 21.3832 25.3192 21.3611 25.2677 21.3464C25.8866 20.6095 26.2329 20.0127 26.2624 19.9537C26.3287 19.8358 26.2992 19.6885 26.1961 19.6074C25.5771 19.1064 24.8919 18.6495 24.1624 18.259C24.4424 18.0527 24.7003 17.8537 24.9287 17.6621C25.5035 17.7358 26.0782 17.8685 26.6308 18.06C27.2129 18.2664 27.7656 18.5464 28.2666 18.8927C28.0824 19.1948 27.6698 19.8137 27.0435 20.3958C26.6014 20.7937 26.0635 21.1769 25.4298 21.4053Z" fill="black"/>
<path d="M19.9181 19.6811C19.8813 19.6811 19.8371 19.6885 19.8002 19.7032C19.8444 19.7032 19.8813 19.6959 19.9181 19.6811Z" fill="#FEDA00"/>
<path d="M23.2487 20.1822C23.5287 20.1822 23.7718 19.9316 23.7645 19.6369C23.7571 19.3422 23.5361 19.0548 23.2339 19.0622C22.9392 19.0695 22.696 19.32 22.696 19.6295C22.696 19.9537 22.9245 20.1822 23.2487 20.1822Z" fill="black"/>
<path d="M21.9813 16.439C22.1729 16.439 22.335 16.2695 22.3276 16.0705C22.3202 15.879 22.1802 15.68 21.9739 15.6874C21.775 15.6948 21.6129 15.8569 21.6129 16.0632C21.6129 16.2842 21.7676 16.439 21.9813 16.439Z" fill="black"/>
<path d="M26.2919 18.2C26.093 18.2074 25.9308 18.3695 25.9308 18.5758C25.9308 18.7969 26.0782 18.9516 26.2993 18.9516C26.4909 18.9516 26.653 18.7822 26.6456 18.5832C26.6382 18.3916 26.4909 18.1927 26.2919 18.2Z" fill="black"/>
<path d="M25.0688 22.238C24.8698 22.2453 24.7077 22.4075 24.7077 22.6138C24.7077 22.8348 24.8551 22.9896 25.0761 22.9896C25.2677 22.9896 25.4298 22.8201 25.4224 22.6211C25.4151 22.4296 25.2677 22.238 25.0688 22.238Z" fill="black"/>
<path d="M19.1076 22.9601C19.1739 22.9822 19.2771 23.0117 19.395 23.0117C19.6971 23.0117 20.1245 22.8569 20.5003 22.1569C20.5666 22.039 20.5224 21.8843 20.3971 21.8253C20.2792 21.759 20.1245 21.8032 20.0655 21.9285C19.9255 22.1938 19.6308 22.6211 19.2697 22.5032C19.0192 22.4148 18.8497 22.1201 18.8792 21.9285C18.9013 21.7959 18.8129 21.6632 18.6802 21.6411C18.5476 21.619 18.415 21.7074 18.3929 21.8401C18.3118 22.2822 18.6508 22.8053 19.1076 22.9601Z" fill="black"/>
</svg>
