<svg width="11127" height="3836" viewBox="0 0 11127 3836" fill="none" xmlns="http://www.w3.org/2000/svg"  opacity="0.4">
<path fill-rule="evenodd" clip-rule="evenodd" d="M62.6406 827.371C72.1914 827.371 79.9453 835.078 79.9453 844.59C79.9453 854.09 72.1914 861.809 62.6406 861.809C53.0898 861.809 45.3359 854.09 45.3359 844.59C45.3359 835.078 53.0898 827.371 62.6406 827.371Z" fill="white"/>
<path fill-rule="evenodd" clip-rule="evenodd" d="M702.766 890.691C712.316 890.691 720.07 898.41 720.07 907.91C720.07 917.422 712.316 925.129 702.766 925.129C693.215 925.129 685.465 917.422 685.465 907.91C685.465 898.41 693.215 890.691 702.766 890.691Z" fill="white"/>
<path fill-rule="evenodd" clip-rule="evenodd" d="M359.391 1463.08C368.941 1463.08 376.695 1470.8 376.695 1480.3C376.695 1489.81 368.941 1497.52 359.391 1497.52C349.84 1497.52 342.086 1489.81 342.086 1480.3C342.086 1470.8 349.84 1463.08 359.391 1463.08Z" fill="white"/>
<path fill-rule="evenodd" clip-rule="evenodd" d="M1296.71 1510.21C1306.26 1510.21 1314.02 1517.93 1314.02 1527.43C1314.02 1536.93 1306.26 1544.65 1296.71 1544.65C1287.16 1544.65 1279.41 1536.93 1279.41 1527.43C1279.41 1517.93 1287.16 1510.21 1296.71 1510.21Z" fill="white"/>
<path fill-rule="evenodd" clip-rule="evenodd" d="M1632.6 1063.01C1642.15 1063.01 1649.9 1070.73 1649.9 1080.23C1649.9 1089.74 1642.15 1097.45 1632.6 1097.45C1623.04 1097.45 1615.29 1089.74 1615.29 1080.23C1615.29 1070.73 1623.04 1063.01 1632.6 1063.01Z" fill="white"/>
<path fill-rule="evenodd" clip-rule="evenodd" d="M1651.36 1528.76C1660.91 1528.76 1668.66 1536.47 1668.66 1545.98C1668.66 1555.48 1660.91 1563.19 1651.36 1563.19C1641.81 1563.19 1634.05 1555.48 1634.05 1545.98C1634.05 1536.47 1641.81 1528.76 1651.36 1528.76Z" fill="white"/>
<path fill-rule="evenodd" clip-rule="evenodd" d="M697.68 2275.01C707.23 2275.01 714.984 2282.72 714.984 2292.22C714.984 2301.73 707.23 2309.44 697.68 2309.44C688.133 2309.44 680.379 2301.73 680.379 2292.22C680.379 2282.72 688.133 2275.01 697.68 2275.01Z" fill="white"/>
<path fill-rule="evenodd" clip-rule="evenodd" d="M1835.55 1823.73C1845.1 1823.73 1852.86 1831.44 1852.86 1840.95C1852.86 1850.45 1845.1 1858.17 1835.55 1858.17C1826 1858.17 1818.25 1850.45 1818.25 1840.95C1818.25 1831.44 1826 1823.73 1835.55 1823.73Z" fill="white"/>
<path fill-rule="evenodd" clip-rule="evenodd" d="M619.445 3432.25C628.992 3432.25 636.746 3439.97 636.746 3449.47C636.746 3458.98 628.992 3466.69 619.445 3466.69C609.895 3466.69 602.141 3458.98 602.141 3449.47C602.141 3439.97 609.895 3432.25 619.445 3432.25Z" fill="white"/>
<path fill-rule="evenodd" clip-rule="evenodd" d="M1139.24 3279.41C1148.79 3279.41 1156.54 3287.13 1156.54 3296.63C1156.54 3306.13 1148.79 3313.85 1139.24 3313.85C1129.69 3313.85 1121.94 3306.13 1121.94 3296.63C1121.94 3287.13 1129.69 3279.41 1139.24 3279.41Z" fill="white"/>
<path fill-rule="evenodd" clip-rule="evenodd" d="M2085.32 3749.06C2094.87 3749.06 2102.63 3756.78 2102.63 3766.28C2102.63 3775.79 2094.87 3783.5 2085.32 3783.5C2075.77 3783.5 2068.02 3775.79 2068.02 3766.28C2068.02 3756.78 2075.77 3749.06 2085.32 3749.06Z" fill="white"/>
<path fill-rule="evenodd" clip-rule="evenodd" d="M1829.59 2577.51C1839.14 2577.51 1846.89 2585.23 1846.89 2594.73C1846.89 2604.24 1839.14 2611.95 1829.59 2611.95C1820.04 2611.95 1812.29 2604.24 1812.29 2594.73C1812.29 2585.23 1820.04 2577.51 1829.59 2577.51Z" fill="white"/>
<path fill-rule="evenodd" clip-rule="evenodd" d="M2499.61 2689.24C2509.16 2689.24 2516.92 2696.95 2516.92 2706.46C2516.92 2715.96 2509.16 2723.67 2499.61 2723.67C2490.06 2723.67 2482.31 2715.96 2482.31 2706.46C2482.31 2696.95 2490.06 2689.24 2499.61 2689.24Z" fill="white"/>
<path fill-rule="evenodd" clip-rule="evenodd" d="M2777.42 1731.5C2786.97 1731.5 2794.72 1739.22 2794.72 1748.72C2794.72 1758.22 2786.97 1765.94 2777.42 1765.94C2767.86 1765.94 2760.11 1758.22 2760.11 1748.72C2760.11 1739.22 2767.86 1731.5 2777.42 1731.5Z" fill="white"/>
<path fill-rule="evenodd" clip-rule="evenodd" d="M2780.48 1390.02C2790.03 1390.02 2797.79 1397.73 2797.79 1407.24C2797.79 1416.74 2790.03 1424.46 2780.48 1424.46C2770.93 1424.46 2763.18 1416.74 2763.18 1407.24C2763.18 1397.73 2770.93 1390.02 2780.48 1390.02Z" fill="white"/>
<path fill-rule="evenodd" clip-rule="evenodd" d="M3177.7 3222.97C3187.25 3222.97 3195.01 3230.68 3195.01 3240.19C3195.01 3249.69 3187.25 3257.41 3177.7 3257.41C3168.15 3257.41 3160.4 3249.69 3160.4 3240.19C3160.4 3230.68 3168.15 3222.97 3177.7 3222.97Z" fill="white"/>
<path fill-rule="evenodd" clip-rule="evenodd" d="M3259.77 2681.84C3269.32 2681.84 3277.07 2689.56 3277.07 2699.06C3277.07 2708.57 3269.32 2716.28 3259.77 2716.28C3250.22 2716.28 3242.46 2708.57 3242.46 2699.06C3242.46 2689.56 3250.22 2681.84 3259.77 2681.84Z" fill="white"/>
<path fill-rule="evenodd" clip-rule="evenodd" d="M3311.54 2644.94C3321.09 2644.94 3328.84 2652.65 3328.84 2662.15C3328.84 2671.66 3321.09 2679.37 3311.54 2679.37C3301.99 2679.37 3294.24 2671.66 3294.24 2662.15C3294.24 2652.65 3301.99 2644.94 3311.54 2644.94Z" fill="white"/>
<path fill-rule="evenodd" clip-rule="evenodd" d="M3664.33 1759.9C3673.88 1759.9 3681.64 1767.62 3681.64 1777.12C3681.64 1786.63 3673.88 1794.34 3664.33 1794.34C3654.78 1794.34 3647.03 1786.63 3647.03 1777.12C3647.03 1767.62 3654.78 1759.9 3664.33 1759.9Z" fill="white"/>
<path fill-rule="evenodd" clip-rule="evenodd" d="M3859.43 2399.89C3868.99 2399.89 3876.74 2407.6 3876.74 2417.1C3876.74 2426.61 3868.99 2434.32 3859.43 2434.32C3849.88 2434.32 3842.13 2426.61 3842.13 2417.1C3842.13 2407.6 3849.88 2399.89 3859.43 2399.89Z" fill="white"/>
<path fill-rule="evenodd" clip-rule="evenodd" d="M4140.11 3801.35C4149.66 3801.35 4157.41 3809.07 4157.41 3818.57C4157.41 3828.08 4149.66 3835.79 4140.11 3835.79C4130.56 3835.79 4122.8 3828.08 4122.8 3818.57C4122.8 3809.07 4130.56 3801.35 4140.11 3801.35Z" fill="white"/>
<path fill-rule="evenodd" clip-rule="evenodd" d="M4895.36 3366.07C4904.91 3366.07 4912.66 3373.79 4912.66 3383.29C4912.66 3392.79 4904.91 3400.51 4895.36 3400.51C4885.81 3400.51 4878.06 3392.79 4878.06 3383.29C4878.06 3373.79 4885.81 3366.07 4895.36 3366.07Z" fill="white"/>
<path fill-rule="evenodd" clip-rule="evenodd" d="M4307.77 3168.45C4317.32 3168.45 4325.08 3176.17 4325.08 3185.67C4325.08 3195.18 4317.32 3202.89 4307.77 3202.89C4298.22 3202.89 4290.47 3195.18 4290.47 3185.67C4290.47 3176.17 4298.22 3168.45 4307.77 3168.45Z" fill="white"/>
<path fill-rule="evenodd" clip-rule="evenodd" d="M4387.66 1457.24C4397.21 1457.24 4404.96 1464.96 4404.96 1474.46C4404.96 1483.96 4397.21 1491.68 4387.66 1491.68C4378.11 1491.68 4370.36 1483.96 4370.36 1474.46C4370.36 1464.96 4378.11 1457.24 4387.66 1457.24Z" fill="white"/>
<path fill-rule="evenodd" clip-rule="evenodd" d="M4598.12 2374.09C4607.67 2374.09 4615.42 2381.81 4615.42 2391.31C4615.42 2400.81 4607.67 2408.53 4598.12 2408.53C4588.57 2408.53 4580.82 2400.81 4580.82 2391.31C4580.82 2381.81 4588.57 2374.09 4598.12 2374.09Z" fill="white"/>
<path fill-rule="evenodd" clip-rule="evenodd" d="M4644.17 1628.55C4653.72 1628.55 4661.47 1636.27 4661.47 1645.77C4661.47 1655.28 4653.72 1662.99 4644.17 1662.99C4634.62 1662.99 4626.86 1655.28 4626.86 1645.77C4626.86 1636.27 4634.62 1628.55 4644.17 1628.55Z" fill="white"/>
<path fill-rule="evenodd" clip-rule="evenodd" d="M5127.37 2726.93C5136.92 2726.93 5144.68 2734.65 5144.68 2744.15C5144.68 2753.65 5136.92 2761.37 5127.37 2761.37C5117.82 2761.37 5110.07 2753.65 5110.07 2744.15C5110.07 2734.65 5117.82 2726.93 5127.37 2726.93Z" fill="white"/>
<path fill-rule="evenodd" clip-rule="evenodd" d="M5344.6 2181.84C5354.15 2181.84 5361.91 2189.55 5361.91 2199.06C5361.91 2208.56 5354.15 2216.27 5344.6 2216.27C5335.05 2216.27 5327.3 2208.56 5327.3 2199.06C5327.3 2189.55 5335.05 2181.84 5344.6 2181.84Z" fill="white"/>
<path fill-rule="evenodd" clip-rule="evenodd" d="M5375.4 1839.29C5384.95 1839.29 5392.71 1847.01 5392.71 1856.51C5392.71 1866.01 5384.95 1873.73 5375.4 1873.73C5365.85 1873.73 5358.1 1866.01 5358.1 1856.51C5358.1 1847.01 5365.85 1839.29 5375.4 1839.29Z" fill="white"/>
<path fill-rule="evenodd" clip-rule="evenodd" d="M5979.3 2964.63C5988.85 2964.63 5996.6 2972.34 5996.6 2981.85C5996.6 2991.35 5988.85 2999.07 5979.3 2999.07C5969.75 2999.07 5962 2991.35 5962 2981.85C5962 2972.34 5969.75 2964.63 5979.3 2964.63Z" fill="white"/>
<path fill-rule="evenodd" clip-rule="evenodd" d="M6074.74 2734.36C6084.29 2734.36 6092.05 2742.07 6092.05 2751.58C6092.05 2761.08 6084.29 2768.8 6074.74 2768.8C6065.19 2768.8 6057.44 2761.08 6057.44 2751.58C6057.44 2742.07 6065.19 2734.36 6074.74 2734.36Z" fill="white"/>
<path fill-rule="evenodd" clip-rule="evenodd" d="M6715.39 2335.92C6724.94 2335.92 6732.69 2343.64 6732.69 2353.14C6732.69 2362.65 6724.94 2370.36 6715.39 2370.36C6705.84 2370.36 6698.08 2362.65 6698.08 2353.14C6698.08 2343.64 6705.84 2335.92 6715.39 2335.92Z" fill="white"/>
<path fill-rule="evenodd" clip-rule="evenodd" d="M6335 1702.61C6344.55 1702.61 6352.31 1710.32 6352.31 1719.83C6352.31 1729.33 6344.55 1737.05 6335 1737.05C6325.45 1737.05 6317.7 1729.33 6317.7 1719.83C6317.7 1710.32 6325.45 1702.61 6335 1702.61Z" fill="white"/>
<path fill-rule="evenodd" clip-rule="evenodd" d="M6964.98 2078.6C6974.53 2078.6 6982.29 2086.32 6982.29 2095.82C6982.29 2105.32 6974.53 2113.04 6964.98 2113.04C6955.43 2113.04 6947.68 2105.32 6947.68 2095.82C6947.68 2086.32 6955.43 2078.6 6964.98 2078.6Z" fill="white"/>
<path fill-rule="evenodd" clip-rule="evenodd" d="M7340.92 2731.99C7350.47 2731.99 7358.22 2739.7 7358.22 2749.21C7358.22 2758.71 7350.47 2766.43 7340.92 2766.43C7331.37 2766.43 7323.61 2758.71 7323.61 2749.21C7323.61 2739.7 7331.37 2731.99 7340.92 2731.99Z" fill="white"/>
<path fill-rule="evenodd" clip-rule="evenodd" d="M7970.55 3108.7C7980.1 3108.7 7987.85 3116.41 7987.85 3125.92C7987.85 3135.42 7980.1 3143.13 7970.55 3143.13C7961 3143.13 7953.24 3135.42 7953.24 3125.92C7953.24 3116.41 7961 3108.7 7970.55 3108.7Z" fill="white"/>
<path fill-rule="evenodd" clip-rule="evenodd" d="M7590.42 2475.67C7599.97 2475.67 7607.73 2483.38 7607.73 2492.89C7607.73 2502.39 7599.97 2510.11 7590.42 2510.11C7580.87 2510.11 7573.12 2502.39 7573.12 2492.89C7573.12 2483.38 7580.87 2475.67 7590.42 2475.67Z" fill="white"/>
<path fill-rule="evenodd" clip-rule="evenodd" d="M8230.77 2077.22C8240.32 2077.22 8248.07 2084.94 8248.07 2094.44C8248.07 2103.95 8240.32 2111.66 8230.77 2111.66C8221.22 2111.66 8213.46 2103.95 8213.46 2094.44C8213.46 2084.94 8221.22 2077.22 8230.77 2077.22Z" fill="white"/>
<path fill-rule="evenodd" clip-rule="evenodd" d="M8326.42 1846.79C8335.97 1846.79 8343.73 1854.5 8343.73 1864.01C8343.73 1873.51 8335.97 1881.22 8326.42 1881.22C8316.87 1881.22 8309.12 1873.51 8309.12 1864.01C8309.12 1854.5 8316.87 1846.79 8326.42 1846.79Z" fill="white"/>
<path fill-rule="evenodd" clip-rule="evenodd" d="M8930.23 2971.96C8939.78 2971.96 8947.54 2979.68 8947.54 2989.18C8947.54 2998.69 8939.78 3006.4 8930.23 3006.4C8920.68 3006.4 8912.93 2998.69 8912.93 2989.18C8912.93 2979.68 8920.68 2971.96 8930.23 2971.96Z" fill="white"/>
<path fill-rule="evenodd" clip-rule="evenodd" d="M8960.72 2629.47C8970.28 2629.47 8978.03 2637.18 8978.03 2646.69C8978.03 2656.19 8970.28 2663.91 8960.72 2663.91C8951.17 2663.91 8943.42 2656.19 8943.42 2646.69C8943.42 2637.18 8951.17 2629.47 8960.72 2629.47Z" fill="white"/>
<path fill-rule="evenodd" clip-rule="evenodd" d="M9178.34 2084.69C9187.89 2084.69 9195.64 2092.4 9195.64 2101.91C9195.64 2111.41 9187.89 2119.12 9178.34 2119.12C9168.79 2119.12 9161.04 2111.41 9161.04 2101.91C9161.04 2092.4 9168.79 2084.69 9178.34 2084.69Z" fill="white"/>
<path fill-rule="evenodd" clip-rule="evenodd" d="M9410.79 1445.27C9420.34 1445.27 9428.09 1452.99 9428.09 1462.49C9428.09 1472 9420.34 1479.71 9410.79 1479.71C9401.24 1479.71 9393.48 1472 9393.48 1462.49C9393.48 1452.99 9401.24 1445.27 9410.79 1445.27Z" fill="white"/>
<path fill-rule="evenodd" clip-rule="evenodd" d="M9707.76 2437.2C9717.31 2437.2 9725.06 2444.92 9725.06 2454.42C9725.06 2463.92 9717.31 2471.64 9707.76 2471.64C9698.21 2471.64 9690.45 2463.92 9690.45 2454.42C9690.45 2444.92 9698.21 2437.2 9707.76 2437.2Z" fill="white"/>
<path fill-rule="evenodd" clip-rule="evenodd" d="M9661.62 3182.18C9671.17 3182.18 9678.93 3189.9 9678.93 3199.4C9678.93 3208.91 9671.17 3216.62 9661.62 3216.62C9652.07 3216.62 9644.32 3208.91 9644.32 3199.4C9644.32 3189.9 9652.07 3182.18 9661.62 3182.18Z" fill="white"/>
<path fill-rule="evenodd" clip-rule="evenodd" d="M9917.83 3353.52C9927.38 3353.52 9935.13 3361.24 9935.13 3370.74C9935.13 3380.25 9927.38 3387.96 9917.83 3387.96C9908.28 3387.96 9900.52 3380.25 9900.52 3370.74C9900.52 3361.24 9908.28 3353.52 9917.83 3353.52Z" fill="white"/>
<path fill-rule="evenodd" clip-rule="evenodd" d="M10641.5 3050.95C10651 3050.95 10658.8 3058.66 10658.8 3068.17C10658.8 3077.67 10651 3085.38 10641.5 3085.38C10631.9 3085.38 10624.2 3077.67 10624.2 3068.17C10624.2 3058.66 10631.9 3050.95 10641.5 3050.95Z" fill="white"/>
<path fill-rule="evenodd" clip-rule="evenodd" d="M10446 2411.32C10455.5 2411.32 10463.3 2419.03 10463.3 2428.53C10463.3 2438.04 10455.5 2445.75 10446 2445.75C10436.4 2445.75 10428.7 2438.04 10428.7 2428.53C10428.7 2419.03 10436.4 2411.32 10446 2411.32Z" fill="white"/>
<path fill-rule="evenodd" clip-rule="evenodd" d="M9998.05 1643.11C10007.6 1643.11 10015.4 1650.83 10015.4 1660.33C10015.4 1669.84 10007.6 1677.55 9998.05 1677.55C9988.5 1677.55 9980.75 1669.84 9980.75 1660.33C9980.75 1650.83 9988.5 1643.11 9998.05 1643.11Z" fill="white"/>
<path fill-rule="evenodd" clip-rule="evenodd" d="M10166 1010.12C10175.6 1010.12 10183.3 1017.83 10183.3 1027.34C10183.3 1036.84 10175.6 1044.56 10166 1044.56C10156.5 1044.56 10148.7 1036.84 10148.7 1027.34C10148.7 1017.83 10156.5 1010.12 10166 1010.12Z" fill="white"/>
<path fill-rule="evenodd" clip-rule="evenodd" d="M10994.2 2166.54C11003.7 2166.54 11011.5 2174.26 11011.5 2183.76C11011.5 2193.26 11003.7 2200.98 10994.2 2200.98C10984.6 2200.98 10976.9 2193.26 10976.9 2183.76C10976.9 2174.26 10984.6 2166.54 10994.2 2166.54Z" fill="white"/>
<path fill-rule="evenodd" clip-rule="evenodd" d="M11128.1 1588.17C11137.7 1588.17 11145.4 1595.89 11145.4 1605.39C11145.4 1614.89 11137.7 1622.61 11128.1 1622.61C11118.6 1622.61 11110.8 1614.89 11110.8 1605.39C11110.8 1595.89 11118.6 1588.17 11128.1 1588.17Z" fill="white"/>
<path fill-rule="evenodd" clip-rule="evenodd" d="M846.488 0.078125C855.898 0.078125 863.535 7.67969 863.535 17.0391C863.535 26.3984 855.898 34 846.488 34C837.082 34 829.445 26.3984 829.445 17.0391C829.445 7.67969 837.082 0.078125 846.488 0.078125Z" fill="white"/>
<path d="M835.535 17.1016L-16.4531 86.3086" stroke="white" stroke-width="4.0008" stroke-miterlimit="1.677"/>
<path d="M838.172 26.5L65.2617 842.23" stroke="white" stroke-width="4.0008" stroke-miterlimit="1.677"/>
<path d="M-50.4766 964.738L65.2617 842.23" stroke="white" stroke-width="4.0008" stroke-miterlimit="1.677"/>
<path d="M-45.6211 886.078L63.6914 843.891" stroke="white" stroke-width="4.0008" stroke-miterlimit="1.677"/>
<path d="M-45.6211 706.949L63.6914 843.891" stroke="white" stroke-width="4.0008" stroke-miterlimit="1.677"/>
<path d="M844.129 30.3516L702.082 908" stroke="white" stroke-width="4.0008" stroke-miterlimit="1.677"/>
<path d="M846.488 17.0391L1632.6 1080.23" stroke="white" stroke-width="4.0008" stroke-miterlimit="1.677"/>
<path d="M1632.6 1080.23L700.852 907.781" stroke="white" stroke-width="4.0008" stroke-miterlimit="1.677"/>
<path d="M1632.6 1080.23L357.723 1480.29" stroke="white" stroke-width="4.0008" stroke-miterlimit="1.677"/>
<path d="M702.766 903.781L357.723 1480.29" stroke="white" stroke-width="4.0008" stroke-miterlimit="1.677"/>
<path d="M701.137 905.711L1296.71 1527.43" stroke="white" stroke-width="4.0008" stroke-miterlimit="1.677"/>
<path d="M701.137 907.609L1650.8 1544.65" stroke="white" stroke-width="4.0008" stroke-miterlimit="1.677"/>
<path d="M702.766 907.781L-20.4648 1203.38" stroke="white" stroke-width="4.0008" stroke-miterlimit="1.677"/>
<path d="M702.766 907.781L63.0039 843.82" stroke="white" stroke-width="4.0008" stroke-miterlimit="1.677"/>
<path d="M357.723 1480.43L63.0039 843.82" stroke="white" stroke-width="4.0008" stroke-miterlimit="1.677"/>
<path d="M357.723 1480.43L-50.1445 1561.11" stroke="white" stroke-width="4.0008" stroke-miterlimit="1.677"/>
<path d="M357.723 1480.43L-50.1445 1427.75" stroke="white" stroke-width="4.0008" stroke-miterlimit="1.677"/>
<path d="M357.723 1480.43L697.68 2292.22" stroke="white" stroke-width="4.0008" stroke-miterlimit="1.677"/>
<path d="M357.723 1480.43L1296.71 1527.43" stroke="white" stroke-width="4.0008" stroke-miterlimit="1.677"/>
<path d="M697.68 2292.22L1296.71 1527.43" stroke="white" stroke-width="4.0008" stroke-miterlimit="1.677"/>
<path d="M697.68 2292.22L1650.8 1544.65" stroke="white" stroke-width="4.0008" stroke-miterlimit="1.677"/>
<path d="M697.68 2292.22L619.445 3449.47" stroke="white" stroke-width="4.0008" stroke-miterlimit="1.677"/>
<path d="M697.68 2292.22L-45.6211 2581.41" stroke="white" stroke-width="4.0008" stroke-miterlimit="1.677"/>
<path d="M697.68 2292.22L1139.24 3296.63" stroke="white" stroke-width="4.0008" stroke-miterlimit="1.677"/>
<path d="M619.445 3449.47L1139.24 3296.63" stroke="white" stroke-width="4.0008" stroke-miterlimit="1.677"/>
<path d="M619.445 3449.47L-48.7383 2935.14" stroke="white" stroke-width="4.0008" stroke-miterlimit="1.677"/>
<path d="M1825.82 2593.51L1139.24 3296.63" stroke="white" stroke-width="4.0008" stroke-miterlimit="1.677"/>
<path d="M2087.32 3766.79L1139.24 3296.63" stroke="white" stroke-width="4.0008" stroke-miterlimit="1.677"/>
<path d="M2087.32 3766.79L1825.82 2593.51" stroke="white" stroke-width="4.0008" stroke-miterlimit="1.677"/>
<path d="M2087.32 3766.79L3175.14 3241.34" stroke="white" stroke-width="4.0008" stroke-miterlimit="1.677"/>
<path d="M2087.32 3766.79L2500.45 2706.61" stroke="white" stroke-width="4.0008" stroke-miterlimit="1.677"/>
<path d="M2499.51 2706.46L3178.95 3239.14" stroke="white" stroke-width="4.0008" stroke-miterlimit="1.677"/>
<path d="M2499.51 2706.46L3260.6 2699.37" stroke="white" stroke-width="4.0008" stroke-miterlimit="1.677"/>
<path d="M2499.51 2706.46L3311.54 2662.15" stroke="white" stroke-width="4.0008" stroke-miterlimit="1.677"/>
<path d="M2776.74 1750.48L3311.54 2662.15" stroke="white" stroke-width="4.0008" stroke-miterlimit="1.677"/>
<path d="M2776.74 1407.92L3311.54 2662.15" stroke="white" stroke-width="4.0008" stroke-miterlimit="1.677"/>
<path d="M3664.33 1777.12L3311.54 2662.15" stroke="white" stroke-width="4.0008" stroke-miterlimit="1.677"/>
<path d="M3664.33 1777.12L3260.6 2699.37" stroke="white" stroke-width="4.0008" stroke-miterlimit="1.677"/>
<path d="M3664.33 1777.12L3859.43 2417.1" stroke="white" stroke-width="4.0008" stroke-miterlimit="1.677"/>
<path d="M3311.54 2662.15L3859.43 2417.1" stroke="white" stroke-width="4.0008" stroke-miterlimit="1.677"/>
<path d="M4307.77 3185.67L3859.43 2417.1" stroke="white" stroke-width="4.0008" stroke-miterlimit="1.677"/>
<path d="M4307.77 3185.67L3311.54 2662.15" stroke="white" stroke-width="4.0008" stroke-miterlimit="1.677"/>
<path d="M4307.77 3185.67L3175.14 3241.34" stroke="white" stroke-width="4.0008" stroke-miterlimit="1.677"/>
<path d="M4307.77 3185.67L3261.49 2698.52" stroke="white" stroke-width="4.0008" stroke-miterlimit="1.677"/>
<path d="M3176.52 3239.1L3261.49 2698.52" stroke="white" stroke-width="4.0008" stroke-miterlimit="1.677"/>
<path d="M3176.52 3239.1L3312.62 2661.57" stroke="white" stroke-width="4.0008" stroke-miterlimit="1.677"/>
<path d="M3858.51 2414.88L3175.14 3241.34" stroke="white" stroke-width="4.0008" stroke-miterlimit="1.677"/>
<path d="M3858.51 2414.88L4387.66 1474.46" stroke="white" stroke-width="4.0008" stroke-miterlimit="1.677"/>
<path d="M3664.15 1777.17L4387.66 1474.46" stroke="white" stroke-width="4.0008" stroke-miterlimit="1.677"/>
<path d="M3664.15 1777.17L4644.17 1645.77" stroke="white" stroke-width="4.0008" stroke-miterlimit="1.677"/>
<path d="M3664.15 1777.17L4598.12 2391.31" stroke="white" stroke-width="4.0008" stroke-miterlimit="1.677"/>
<path d="M3311.54 2662.15L4598.12 2391.31" stroke="white" stroke-width="4.0008" stroke-miterlimit="1.677"/>
<path d="M4387.66 1474.46L4598.12 2391.31" stroke="white" stroke-width="4.0008" stroke-miterlimit="1.677"/>
<path d="M4646.93 1647.27L4598.12 2391.31" stroke="white" stroke-width="4.0008" stroke-miterlimit="1.677"/>
<path d="M4646.93 1647.27L5128.51 2744.77" stroke="white" stroke-width="4.0008" stroke-miterlimit="1.677"/>
<path d="M4646.93 1647.27L4389.05 1474.22" stroke="white" stroke-width="4.0008" stroke-miterlimit="1.677"/>
<path d="M5375.4 1856.51L4389.05 1474.22" stroke="white" stroke-width="4.0008" stroke-miterlimit="1.677"/>
<path d="M5375.4 1856.51L4646.93 1647.27" stroke="white" stroke-width="4.0008" stroke-miterlimit="1.677"/>
<path d="M5344.6 2199.06L4646.93 1647.27" stroke="white" stroke-width="4.0008" stroke-miterlimit="1.677"/>
<path d="M5344.6 2199.06L5122.72 2742.94" stroke="white" stroke-width="4.0008" stroke-miterlimit="1.677"/>
<path d="M5344.6 2199.06L4599.06 2390.87" stroke="white" stroke-width="4.0008" stroke-miterlimit="1.677"/>
<path d="M5375.4 1856.51L4598.12 2391.31" stroke="white" stroke-width="4.0008" stroke-miterlimit="1.677"/>
<path d="M5375.4 1856.51L5127.37 2744.15" stroke="white" stroke-width="4.0008" stroke-miterlimit="1.677"/>
<path d="M5375.4 1856.51L6337.42 1719.42" stroke="white" stroke-width="4.0008" stroke-miterlimit="1.677"/>
<path d="M5375.4 1856.51L5344.6 2199.06" stroke="white" stroke-width="4.0008" stroke-miterlimit="1.677"/>
<path d="M6336.93 1718.87L5344.6 2199.06" stroke="white" stroke-width="4.0008" stroke-miterlimit="1.677"/>
<path d="M6336.93 1718.87L6074.74 2751.58" stroke="white" stroke-width="4.0008" stroke-miterlimit="1.677"/>
<path d="M6336.93 1718.87L6713.74 2354.16" stroke="white" stroke-width="4.0008" stroke-miterlimit="1.677"/>
<path d="M6067.98 2751.58L6713.74 2354.16" stroke="white" stroke-width="4.0008" stroke-miterlimit="1.677"/>
<path d="M7594.87 2495.07L6713.74 2354.16" stroke="white" stroke-width="4.0008" stroke-miterlimit="1.677"/>
<path d="M7594.87 2495.07L6963.67 2096.35" stroke="white" stroke-width="4.0008" stroke-miterlimit="1.677"/>
<path d="M7340.92 2747.71L6963.67 2096.35" stroke="white" stroke-width="4.0008" stroke-miterlimit="1.677"/>
<path d="M7340.92 2747.71L6074.74 2749.21" stroke="white" stroke-width="4.0008" stroke-miterlimit="1.677"/>
<path d="M7340.92 2747.71L6713.88 2354.24" stroke="white" stroke-width="4.0008" stroke-miterlimit="1.677"/>
<path d="M7340.92 2747.71L7591.16 2494.98" stroke="white" stroke-width="4.0008" stroke-miterlimit="1.677"/>
<path d="M8232.02 2094.51L7591.16 2494.98" stroke="white" stroke-width="4.0008" stroke-miterlimit="1.677"/>
<path d="M8232.02 2094.51L7970.55 3125.92" stroke="white" stroke-width="4.0008" stroke-miterlimit="1.677"/>
<path d="M8232.02 2094.51L8325.49 1863.49" stroke="white" stroke-width="4.0008" stroke-miterlimit="1.677"/>
<path d="M8930.23 2989.18L8325.49 1863.49" stroke="white" stroke-width="4.0008" stroke-miterlimit="1.677"/>
<path d="M8232.02 2094.51L8930.23 2989.18" stroke="white" stroke-width="4.0008" stroke-miterlimit="1.677"/>
<path d="M8232.02 2094.51L8960.72 2646.69" stroke="white" stroke-width="4.0008" stroke-miterlimit="1.677"/>
<path d="M7591.23 2495.9L8960.72 2646.69" stroke="white" stroke-width="4.0008" stroke-miterlimit="1.677"/>
<path d="M8232.02 2094.51L9409.51 1462.26" stroke="white" stroke-width="4.0008" stroke-miterlimit="1.677"/>
<path d="M8232.02 2094.51L9182.33 2101.74" stroke="white" stroke-width="4.0008" stroke-miterlimit="1.677"/>
<path d="M8325.39 1863.58L9182.33 2101.74" stroke="white" stroke-width="4.0008" stroke-miterlimit="1.677"/>
<path d="M10446 2428.53L9182.33 2101.74" stroke="white" stroke-width="4.0008" stroke-miterlimit="1.677"/>
<path d="M9661.62 3199.4L9182.33 2101.74" stroke="white" stroke-width="4.0008" stroke-miterlimit="1.677"/>
<path d="M9706.34 2453.05L9182.33 2101.74" stroke="white" stroke-width="4.0008" stroke-miterlimit="1.677"/>
<path d="M9994.45 1661.95L9182.33 2101.74" stroke="white" stroke-width="4.0008" stroke-miterlimit="1.677"/>
<path d="M9994.45 1661.95L9410.98 1462.34" stroke="white" stroke-width="4.0008" stroke-miterlimit="1.677"/>
<path d="M9707.76 2453.05L9410.98 1462.34" stroke="white" stroke-width="4.0008" stroke-miterlimit="1.677"/>
<path d="M8325.39 1863.58L9410.98 1462.34" stroke="white" stroke-width="4.0008" stroke-miterlimit="1.677"/>
<path d="M10165.3 1027.19L9410.98 1462.34" stroke="white" stroke-width="4.0008" stroke-miterlimit="1.677"/>
<path d="M10165.3 1027.19L11129.1 1607.16" stroke="white" stroke-width="4.0008" stroke-miterlimit="1.677"/>
<path d="M9998.05 1660.33L11129.1 1607.16" stroke="white" stroke-width="4.0008" stroke-miterlimit="1.677"/>
<path d="M10165.3 1027.19L9998.05 1660.33" stroke="white" stroke-width="4.0008" stroke-miterlimit="1.677"/>
<path d="M9707.76 2453.05L9998.05 1660.33" stroke="white" stroke-width="4.0008" stroke-miterlimit="1.677"/>
<path d="M10445.8 2429.73L9998.05 1660.33" stroke="white" stroke-width="4.0008" stroke-miterlimit="1.677"/>
<path d="M10445.8 2429.73L11129.1 1605.39" stroke="white" stroke-width="4.0008" stroke-miterlimit="1.677"/>
<path d="M10445.8 2429.73L11173.9 2877.54" stroke="white" stroke-width="4.0008" stroke-miterlimit="1.677"/>
<path d="M10445.8 2429.73L10642 3067.57" stroke="white" stroke-width="4.0008" stroke-miterlimit="1.677"/>
<path d="M10445.8 2429.73L9917.83 3370.74" stroke="white" stroke-width="4.0008" stroke-miterlimit="1.677"/>
<path d="M10445.8 2429.73L9661.62 3199.4" stroke="white" stroke-width="4.0008" stroke-miterlimit="1.677"/>
<path d="M10445.8 2429.73L9706.34 2453.05" stroke="white" stroke-width="4.0008" stroke-miterlimit="1.677"/>
<path d="M10445.8 2429.73L10994.2 2183.76" stroke="white" stroke-width="4.0008" stroke-miterlimit="1.677"/>
<path d="M11124.8 1604.65L10994.2 2183.76" stroke="white" stroke-width="4.0008" stroke-miterlimit="1.677"/>
<path d="M9706.34 2453.05L10994.2 2183.76" stroke="white" stroke-width="4.0008" stroke-miterlimit="1.677"/>
<path d="M9999.76 1661.04L10994.2 2183.76" stroke="white" stroke-width="4.0008" stroke-miterlimit="1.677"/>
<path d="M9999.76 1661.04L11166.7 2200.84" stroke="white" stroke-width="4.0008" stroke-miterlimit="1.677"/>
<path d="M11156.1 2043.69L10994.2 2183.76" stroke="white" stroke-width="4.0008" stroke-miterlimit="1.677"/>
<path d="M11176.5 2509.87L10994.2 2183.76" stroke="white" stroke-width="4.0008" stroke-miterlimit="1.677"/>
<path d="M10644 3063.82L10994.2 2183.76" stroke="white" stroke-width="4.0008" stroke-miterlimit="1.677"/>
<path d="M10644 3063.82L11196 3089.74" stroke="white" stroke-width="4.0008" stroke-miterlimit="1.677"/>
<path d="M10644 3063.82L11196 3298.82" stroke="white" stroke-width="4.0008" stroke-miterlimit="1.677"/>
<path d="M10644 3063.82L9917.83 3370.74" stroke="white" stroke-width="4.0008" stroke-miterlimit="1.677"/>
<path d="M10644 3063.82L9660.07 3198.87" stroke="white" stroke-width="4.0008" stroke-miterlimit="1.677"/>
<path d="M9706.54 2455.8L9660.07 3198.87" stroke="white" stroke-width="4.0008" stroke-miterlimit="1.677"/>
<path d="M9706.54 2455.8L8930.23 2989.18" stroke="white" stroke-width="4.0008" stroke-miterlimit="1.677"/>
<path d="M9706.54 2455.8L8960.72 2646.69" stroke="white" stroke-width="4.0008" stroke-miterlimit="1.677"/>
<path d="M9706.54 2455.8L9918.98 3367.46" stroke="white" stroke-width="4.0008" stroke-miterlimit="1.677"/>
<path d="M8930.23 2989.18L9918.98 3367.46" stroke="white" stroke-width="4.0008" stroke-miterlimit="1.677"/>
<path d="M8930.23 2989.18L9660.07 3198.87" stroke="white" stroke-width="4.0008" stroke-miterlimit="1.677"/>
<path d="M8962.83 2646.57L9918.98 3367.46" stroke="white" stroke-width="4.0008" stroke-miterlimit="1.677"/>
<path d="M9706.54 2455.8L10643.6 3069.18" stroke="white" stroke-width="4.0008" stroke-miterlimit="1.677"/>
<path d="M8232.02 2094.51H6967.45" stroke="white" stroke-width="4.0008" stroke-miterlimit="1.677"/>
<path d="M8325.39 1863.58L7591.16 2494.98" stroke="white" stroke-width="4.0008" stroke-miterlimit="1.677"/>
<path d="M7970.55 3125.92L7591.16 2494.98" stroke="white" stroke-width="4.0008" stroke-miterlimit="1.677"/>
<path d="M7970.55 3125.92L7340.92 2747.71" stroke="white" stroke-width="4.0008" stroke-miterlimit="1.677"/>
<path d="M6336.93 1718.87L6963.67 2096.35" stroke="white" stroke-width="4.0008" stroke-miterlimit="1.677"/>
<path d="M4895.86 3382.31L6074.74 2751.58" stroke="white" stroke-width="4.0008" stroke-miterlimit="1.677"/>
<path d="M4895.86 3382.31L5979.03 2981.19" stroke="white" stroke-width="4.0008" stroke-miterlimit="1.677"/>
<path d="M5128.8 2743.84L5979.03 2981.19" stroke="white" stroke-width="4.0008" stroke-miterlimit="1.677"/>
<path d="M5128.8 2743.84L6074.74 2751.58" stroke="white" stroke-width="4.0008" stroke-miterlimit="1.677"/>
<path d="M5344.59 2198.24L6074.74 2751.58" stroke="white" stroke-width="4.0008" stroke-miterlimit="1.677"/>
<path d="M5344.59 2198.24L5979.3 2981.85" stroke="white" stroke-width="4.0008" stroke-miterlimit="1.677"/>
<path d="M6713.74 2354.16L5979.3 2981.85" stroke="white" stroke-width="4.0008" stroke-miterlimit="1.677"/>
<path d="M6713.74 2354.16L6963.67 2096.35" stroke="white" stroke-width="4.0008" stroke-miterlimit="1.677"/>
<path d="M6074.74 2747.71L6963.67 2096.35" stroke="white" stroke-width="4.0008" stroke-miterlimit="1.677"/>
<path d="M5375.4 1856.51L5979.3 2981.85" stroke="white" stroke-width="4.0008" stroke-miterlimit="1.677"/>
<path d="M5375.4 1856.51L6074.74 2751.58" stroke="white" stroke-width="4.0008" stroke-miterlimit="1.677"/>
<path d="M4895.36 3383.29L4598.12 2391.31" stroke="white" stroke-width="4.0008" stroke-miterlimit="1.677"/>
<path d="M4307.77 3185.67L4598.12 2391.31" stroke="white" stroke-width="4.0008" stroke-miterlimit="1.677"/>
<path d="M5127.37 2744.15L4598.12 2391.31" stroke="white" stroke-width="4.0008" stroke-miterlimit="1.677"/>
<path d="M5127.37 2744.15L3858.51 2414.88" stroke="white" stroke-width="4.0008" stroke-miterlimit="1.677"/>
<path d="M5127.37 2744.15L4308.14 3186.85" stroke="white" stroke-width="4.0008" stroke-miterlimit="1.677"/>
<path d="M4140.11 3818.57L4308.14 3186.85" stroke="white" stroke-width="4.0008" stroke-miterlimit="1.677"/>
<path d="M4140.11 3818.57L3176.99 3238.53" stroke="white" stroke-width="4.0008" stroke-miterlimit="1.677"/>
<path d="M4140.11 3818.57L4895.36 3383.29" stroke="white" stroke-width="4.0008" stroke-miterlimit="1.677"/>
<path d="M4308.14 3186.85L4895.36 3383.29" stroke="white" stroke-width="4.0008" stroke-miterlimit="1.677"/>
<path d="M5127.37 2744.15L4895.36 3383.29" stroke="white" stroke-width="4.0008" stroke-miterlimit="1.677"/>
<path d="M4598.12 2391.31L3858.51 2414.88" stroke="white" stroke-width="4.0008" stroke-miterlimit="1.677"/>
<path d="M3664.33 1777.12L2776.74 1407.92" stroke="white" stroke-width="4.0008" stroke-miterlimit="1.677"/>
<path d="M3664.33 1777.12L2777.42 1748.72" stroke="white" stroke-width="4.0008" stroke-miterlimit="1.677"/>
<path d="M2777.42 1731.5L2776.74 1407.92" stroke="white" stroke-width="4.0008" stroke-miterlimit="1.677"/>
<path d="M2776.74 1750.48L3311.54 2662.15" stroke="white" stroke-width="4.0008" stroke-miterlimit="1.677"/>
<path d="M2776.74 1750.48L3260.6 2699.37" stroke="white" stroke-width="4.0008" stroke-miterlimit="1.677"/>
<path d="M2776.74 1750.48L3858.51 2414.88" stroke="white" stroke-width="4.0008" stroke-miterlimit="1.677"/>
<path d="M4646.93 1647.27L3858.51 2414.88" stroke="white" stroke-width="4.0008" stroke-miterlimit="1.677"/>
<path d="M1825.82 2593.51L2500.45 2706.61" stroke="white" stroke-width="4.0008" stroke-miterlimit="1.677"/>
<path d="M1835.55 1840.95L2500.45 2706.61" stroke="white" stroke-width="4.0008" stroke-miterlimit="1.677"/>
<path d="M1835.55 1840.95L1830.69 2593.51" stroke="white" stroke-width="4.0008" stroke-miterlimit="1.677"/>
<path d="M2776.74 1750.48L1830.69 2593.51" stroke="white" stroke-width="4.0008" stroke-miterlimit="1.677"/>
<path d="M2776.74 1750.48L1833.12 1840.95" stroke="white" stroke-width="4.0008" stroke-miterlimit="1.677"/>
<path d="M2776.74 1750.48L1653.26 1544.65" stroke="white" stroke-width="4.0008" stroke-miterlimit="1.677"/>
<path d="M2776.74 1750.48L1635.53 1080.1" stroke="white" stroke-width="4.0008" stroke-miterlimit="1.677"/>
<path d="M2776.74 1750.48L2499.51 2706.46" stroke="white" stroke-width="4.0008" stroke-miterlimit="1.677"/>
<path d="M2780.48 1407.24L2499.51 2706.46" stroke="white" stroke-width="4.0008" stroke-miterlimit="1.677"/>
<path d="M2780.48 1407.24L1835.53 1839.51" stroke="white" stroke-width="4.0008" stroke-miterlimit="1.677"/>
<path d="M2780.48 1407.24L1653.87 1544.9" stroke="white" stroke-width="4.0008" stroke-miterlimit="1.677"/>
<path d="M2780.48 1407.24L1631.71 1078.71" stroke="white" stroke-width="4.0008" stroke-miterlimit="1.677"/>
<path d="M697.68 2292.22L1825.82 2593.51" stroke="white" stroke-width="4.0008" stroke-miterlimit="1.677"/>
<path d="M1296.71 1527.43L1825.82 2593.51" stroke="white" stroke-width="4.0008" stroke-miterlimit="1.677"/>
<path d="M1296.71 1527.43L1653.26 1544.65" stroke="white" stroke-width="4.0008" stroke-miterlimit="1.677"/>
<path d="M1296.71 1527.43L1631.35 1082.27" stroke="white" stroke-width="4.0008" stroke-miterlimit="1.677"/>
<path d="M1653.26 1544.65L1631.35 1082.27" stroke="white" stroke-width="4.0008" stroke-miterlimit="1.677"/>
<path d="M1835.55 1840.95L1631.35 1082.27" stroke="white" stroke-width="4.0008" stroke-miterlimit="1.677"/>
<path d="M1296.71 1527.43L1835.55 1841.39" stroke="white" stroke-width="4.0008" stroke-miterlimit="1.677"/>
<path d="M1825.82 2593.51L1653.26 1544.65" stroke="white" stroke-width="4.0008" stroke-miterlimit="1.677"/>
<path d="M697.68 2292.22L1833.97 1841.39" stroke="white" stroke-width="4.0008" stroke-miterlimit="1.677"/>
<path d="M9409.51 1462.26L9182.33 2101.74" stroke="white" stroke-width="4.0008" stroke-miterlimit="1.677"/>
<path d="M8960.72 2646.69L9182.33 2101.74" stroke="white" stroke-width="4.0008" stroke-miterlimit="1.677"/>
<path d="M8960.72 2646.69L8325.39 1863.58" stroke="white" stroke-width="4.0008" stroke-miterlimit="1.677"/>
<path d="M8960.72 2646.69L7970.55 3125.92" stroke="white" stroke-width="4.0008" stroke-miterlimit="1.677"/>
<path d="M8930.23 2989.18L7970.55 3125.92" stroke="white" stroke-width="4.0008" stroke-miterlimit="1.677"/>
<path d="M8930.23 2989.18L9182.33 2101.74" stroke="white" stroke-width="4.0008" stroke-miterlimit="1.677"/>
</svg>
