<?xml version="1.0" encoding="utf-8"?>
<!-- Generator: Adobe Illustrator 23.0.1, SVG Export Plug-In . SVG Version: 6.00 Build 0)  -->
<svg version="1.1" id="Layer_1" xmlns="http://www.w3.org/2000/svg" xmlns:xlink="http://www.w3.org/1999/xlink" x="0px" y="0px"
	 viewBox="0 0 380 380" style="enable-background:new 0 0 380 380;" xml:space="preserve">
<style type="text/css">
	.st0{fill:#EE3D96;}
	.st1{fill:#FFDA00;}
	.st2{fill:#FEDA00;}
</style>
<g>
	<g>
		<path class="st0" d="M268.2,204.1c-4.4-2.9-9.8-5.7-16-8.2c-2.2,0.7-4.6,1.3-7,1.8c-1.6,0.3-3.2,0.5-4.8,0.7
			c-13.3,13.1-32,26.2-55.2,29.4c-3.4,0.5-6.9,0.7-10.4,0.7c-20.3,0-40.8-8.1-61.2-24.2c19.9,28.7,42.9,44.5,68.4,47.1
			c27.6,2.8,53.3-10.5,70.9-23.2c10.6-7.6,18.4-15,21.9-18.6C273.1,207.7,270.8,205.9,268.2,204.1z M247.6,210.2c-3,0-5-2.1-5-5.1
			c0-2.8,2.2-5.1,4.9-5.1c2.8-0.1,4.7,2.6,4.8,5.2C252.4,207.9,250.1,210.2,247.6,210.2z"/>
		<path class="st0" d="M268.6,143.3c-7.5-2.7-15.2-4.5-23.1-5.4c-3.1,2.6-6.5,5.3-10.4,8.1c9.9,5.3,19.2,11.5,27.6,18.3
			c1.4,1.2,1.8,3.2,0.9,4.7c-0.5,0.8-5.2,8.9-13.5,18.9c0.8,0.3,1.5,0.6,2.2,0.8c8.6-3.2,16-8.3,21.9-13.8
			c8.5-7.8,14.1-16.3,16.6-20.4C284,149.9,276.5,146.1,268.6,143.3z M264.2,155.4c-3,0-5-2.1-5-5.1c0-2.8,2.2-5.1,4.9-5.1
			c2.8-0.1,4.7,2.6,4.8,5.2C269,153.1,266.7,155.4,264.2,155.4z"/>
		<path class="st0" d="M144.9,107.6c-21.1,9.6-32.4,29.8-37.6,42.3c3.9-2.7,7.9-5.2,11.9-7.3c-0.8-2.4-1.1-7.4,3.2-11
			c0.8-0.7,3.3-2.8,34.5-18.3c2-1,8-4,15.1-1.5c6.3,2.2,11.7,8,16.1,17.3c0.2,0.4,0.3,0.9,0.3,1.4c5.7,0.8,11.3,2,16.8,3.5
			c2.1,0.6,4.1,1.2,6.2,1.9c2.2,0.7,4.3,1.5,6.4,2.3c3.5,1.4,7,2.8,10.5,4.5c2.6-1.8,5.1-3.6,7.4-5.4c1.4-1.1,2.7-2.1,3.9-3.1
			s2.4-2,3.5-3c5.2-4.5,9-8.4,11.2-10.7C226.1,96.2,181.6,91,144.9,107.6z M200.6,116.2c0-2.8,2.2-5.1,4.9-5.1
			c2.8-0.1,4.7,2.6,4.8,5.2c0.1,2.7-2.1,5-4.7,5C202.7,121.3,200.6,119.2,200.6,116.2z"/>
		<path class="st1" d="M169.6,118.9c-3.7-1.3-6.9,0-9.3,1.2c-22.3,11.1-31.7,16.3-33,17.4c-0.7,0.6-1,1.2-1,1.8
			c17.9-8.1,36.1-10.9,53.8-9.6C176.8,123.7,173.3,120.2,169.6,118.9z"/>
		<path class="st1" d="M228.2,150.7c-1.2-0.6-2.3-1.2-3.5-1.7c-1.2-0.6-2.4-1.1-3.7-1.7c-5.7-2.5-11.4-4.5-17.1-6.1
			c-2-0.6-3.9-1.1-5.9-1.5c-1.9-0.5-3.8-0.8-5.8-1.2c-2.4-0.4-4.7-0.8-7.1-1.1c-28.2-3.4-54.3,3.9-77.8,21.7c-1,0.8-2,1.6-3.1,2.4
			c-0.5,0.4-1,0.8-1.5,1.2c-0.6,0.5-1.2,0.7-1.9,0.8c0.1,0.1,0.1,0.2,0.2,0.3c3.6,5.7,3.1,11,2.4,13.9c-0.5,2.1-1.4,4.1-2.6,6
			c0.8,0.1,1.5,0.4,2.2,1c0.4,0.4,0.7,0.7,1.1,1.1c0.8,0.8,1.6,1.6,2.4,2.3c0.8,0.8,1.7,1.6,2.5,2.3c25.3,23.1,50.6,33.2,75.2,29.8
			c17.9-2.4,33.1-11.7,45-22c1.2-1,2.4-2.1,3.5-3.1c1.2-1.1,2.4-2.2,3.5-3.3c0.4-0.4,0.8-0.8,1.2-1.2c0.9-0.9,1.7-1.8,2.6-2.7
			c0.9-0.9,1.7-1.8,2.5-2.8c6.4-7.3,10.8-13.7,13.1-17.2C246.8,161.2,237.6,155.4,228.2,150.7z M177.6,165.3L177.6,165.3
			c-0.5,0.1-1.1,0.2-1.6,0.3C176.6,165.4,177.1,165.3,177.6,165.3z M185.5,198.9c-5.1,9.5-10.9,11.6-15,11.6c-1.6,0-3-0.3-3.9-0.7
			c-6.2-2.1-10.7-9.3-9.7-15.3c0.3-1.8,2-3,3.9-2.7c1.8,0.3,3.1,2,2.7,3.9c-0.4,2.5,1.9,6.6,5.3,7.8c4.9,1.7,8.9-4.1,10.8-7.8
			c0.9-1.6,2.9-2.3,4.5-1.4C185.7,195.2,186.3,197.2,185.5,198.9z M222.8,172.1c-4.4,0-7.5-3.1-7.5-7.6c0-4.2,3.3-7.6,7.3-7.7
			c4.1-0.1,7.1,3.9,7.2,7.8C229.9,168.7,226.6,172.1,222.8,172.1z"/>
		<g>
			<path d="M298.2,155.1c0.7-1.5,0.3-3.2-1-4.2c-9.6-7.1-20.7-12.4-32.4-15.8c-1.8-3.4-3.8-6.6-6-9.7c1.8-1.9,2.8-3.1,2.9-3.3
				c1.1-1.4,1-3.4-0.3-4.6c-11.8-10.9-26.4-18.5-42-22.7c-10.6-4.2-22.3-6.6-34.5-6.6c-44.2,0-80.9,30.5-88.1,70.5
				c-2.8-2.5-6.7-5-12-7.2l-3.4,8c10.3,4.4,15.2,10.1,13.7,16.2c-1.4,5.7-7.6,9.9-11.9,9.6l-0.7,8.6c0.4,0,0.8,0,1.2,0
				c4.6,0,9.4-2.2,13.2-5.5c0,0.1,0.1,0.3,0.1,0.4c7.6,38.6,42.7,68.1,85.3,69.2c2.4,0.2,4.7,0.3,7.2,0.3c20.1,0,41.6-7.3,62.8-21.5
				c18-12,29.3-24.5,29.7-25.1c1.1-1.2,1.1-3,0.1-4.3c-2.8-3.5-6.8-6.8-11.6-9.9c1.3-4.3,2.3-8.7,3-13.2
				C289.3,172.2,297.7,156.1,298.2,155.1z M144.9,107.6C181.6,91,226,96.2,254.4,120.2c-2.2,2.3-6,6.2-11.2,10.7c-1.1,1-2.3,2-3.5,3
				s-2.6,2.1-3.9,3.1c-2.3,1.8-4.8,3.6-7.4,5.4c-3.4-1.6-6.9-3.1-10.5-4.5c-2.1-0.8-4.3-1.6-6.4-2.3c-2-0.7-4.1-1.3-6.2-1.9
				c-5.5-1.5-11.1-2.7-16.8-3.5c0-0.5-0.1-0.9-0.3-1.4c-4.4-9.3-9.9-15.1-16.1-17.3c-7.1-2.4-13.1,0.6-15.1,1.5
				c-31.1,15.5-33.6,17.6-34.5,18.3c-4.3,3.6-4.1,8.5-3.2,11c-4,2.1-7.9,4.6-11.9,7.3C112.6,137.4,123.8,117.2,144.9,107.6z
				 M180,129.5c-17.7-1.2-35.9,1.5-53.8,9.6c0.1-0.5,0.3-1.2,1-1.8c1.3-1.1,10.7-6.2,33-17.4c2.4-1.2,5.6-2.4,9.3-1.2
				C173.3,120.2,176.8,123.7,180,129.5z M103.1,184.8c-0.6-0.6-1.4-0.9-2.2-1c1.2-1.9,2.1-3.9,2.6-6c0.7-2.9,1.2-8.2-2.4-13.9
				c-0.1-0.1-0.1-0.2-0.2-0.3c0.7-0.1,1.3-0.4,1.9-0.8c0.5-0.4,1-0.8,1.5-1.2c1-0.8,2-1.6,3.1-2.4c23.5-17.8,49.7-25.1,77.8-21.7
				c2.3,0.3,4.7,0.7,7.1,1.1c1.9,0.4,3.8,0.7,5.8,1.2s3.9,1,5.9,1.5c5.7,1.6,11.4,3.7,17.1,6.1c1.2,0.5,2.4,1.1,3.7,1.7
				c1.2,0.5,2.3,1.1,3.5,1.7c9.4,4.7,18.6,10.5,27.3,17.2c-2.2,3.5-6.7,10-13.1,17.2c-0.8,0.9-1.6,1.8-2.5,2.8
				c-0.8,0.9-1.7,1.8-2.6,2.7c-0.4,0.4-0.8,0.8-1.2,1.2c-1.1,1.1-2.3,2.2-3.5,3.3c-1.1,1.1-2.3,2.1-3.5,3.1
				c-11.8,10.2-27.1,19.5-45,22c-24.6,3.4-49.8-6.7-75.2-29.8c-0.8-0.8-1.7-1.5-2.5-2.3s-1.6-1.5-2.4-2.3
				C103.8,185.5,103.4,185.1,103.1,184.8z M274.9,209.5c-3.5,3.5-11.2,11-21.9,18.6c-17.7,12.7-43.4,26-70.9,23.2
				c-25.5-2.6-48.4-18.4-68.4-47.1c20.4,16.1,40.9,24.2,61.2,24.2c3.5,0,6.9-0.2,10.4-0.7c23.2-3.2,41.9-16.3,55.2-29.4
				c1.6-0.2,3.2-0.4,4.8-0.7c2.4-0.4,4.7-1,7-1.8c6.2,2.6,11.6,5.3,16,8.2C270.8,205.9,273.1,207.7,274.9,209.5z M252.4,188.7
				c-0.7-0.3-1.5-0.6-2.2-0.8c8.4-10,13.1-18.1,13.5-18.9c0.9-1.6,0.5-3.6-0.9-4.7c-8.4-6.8-17.7-13-27.6-18.3
				c3.8-2.8,7.3-5.5,10.4-8.1c7.8,1,15.6,2.8,23.1,5.4c7.9,2.8,15.4,6.6,22.2,11.3c-2.5,4.1-8.1,12.5-16.6,20.4
				C268.3,180.4,261,185.6,252.4,188.7z"/>
			<path class="st2" d="M177.6,165.3c-0.5,0-1.1,0.1-1.6,0.3C176.6,165.6,177.1,165.5,177.6,165.3L177.6,165.3z"/>
			<path d="M222.8,172.1c3.8,0,7.1-3.4,7-7.4s-3.1-7.9-7.2-7.8c-4,0.1-7.3,3.5-7.3,7.7C215.3,169,218.4,172.1,222.8,172.1z"/>
			<path d="M205.6,121.3c2.6,0,4.8-2.3,4.7-5c-0.1-2.6-2-5.3-4.8-5.2c-2.7,0.1-4.9,2.3-4.9,5.1C200.6,119.2,202.7,121.3,205.6,121.3
				z"/>
			<path d="M264.1,145.2c-2.7,0.1-4.9,2.3-4.9,5.1c0,3,2,5.1,5,5.1c2.6,0,4.8-2.3,4.7-5C268.8,147.8,266.8,145.1,264.1,145.2z"/>
			<path d="M247.5,200c-2.7,0.1-4.9,2.3-4.9,5.1c0,3,2,5.1,5,5.1c2.6,0,4.8-2.3,4.7-5C252.2,202.6,250.2,200,247.5,200z"/>
			<path d="M166.6,209.8c0.9,0.3,2.3,0.7,3.9,0.7c4.1,0,9.9-2.1,15-11.6c0.9-1.6,0.3-3.7-1.4-4.5c-1.6-0.9-3.7-0.3-4.5,1.4
				c-1.9,3.6-5.9,9.4-10.8,7.8c-3.4-1.2-5.7-5.2-5.3-7.8c0.3-1.8-0.9-3.6-2.7-3.9c-1.8-0.3-3.6,0.9-3.9,2.7
				C155.8,200.6,160.4,207.7,166.6,209.8z"/>
		</g>
	</g>
</g>
</svg>
