<svg viewBox="0 0 218 171" fill="none" xmlns="http://www.w3.org/2000/svg" id="el_TaoN6ji-2"><style>@-webkit-keyframes kf_el_QxncjTcrG4_an_mpPUOhuN5{6%{-webkit-transform: translate(165.8516387939453px, 118.0999984741211px) scale(1, 1) translate(-165.8516387939453px, -118.0999984741211px);transform: translate(165.8516387939453px, 118.0999984741211px) scale(1, 1) translate(-165.8516387939453px, -118.0999984741211px);}7.33%{-webkit-transform: translate(165.8516387939453px, 118.0999984741211px) scale(1, 0.05) translate(-165.8516387939453px, -118.0999984741211px);transform: translate(165.8516387939453px, 118.0999984741211px) scale(1, 0.05) translate(-165.8516387939453px, -118.0999984741211px);}8.67%{-webkit-transform: translate(165.8516387939453px, 118.0999984741211px) scale(1, 1) translate(-165.8516387939453px, -118.0999984741211px);transform: translate(165.8516387939453px, 118.0999984741211px) scale(1, 1) translate(-165.8516387939453px, -118.0999984741211px);}0%{-webkit-transform: translate(165.8516387939453px, 118.0999984741211px) scale(1, 1) translate(-165.8516387939453px, -118.0999984741211px);transform: translate(165.8516387939453px, 118.0999984741211px) scale(1, 1) translate(-165.8516387939453px, -118.0999984741211px);}100%{-webkit-transform: translate(165.8516387939453px, 118.0999984741211px) scale(1, 1) translate(-165.8516387939453px, -118.0999984741211px);transform: translate(165.8516387939453px, 118.0999984741211px) scale(1, 1) translate(-165.8516387939453px, -118.0999984741211px);}}@keyframes kf_el_QxncjTcrG4_an_mpPUOhuN5{6%{-webkit-transform: translate(165.8516387939453px, 118.0999984741211px) scale(1, 1) translate(-165.8516387939453px, -118.0999984741211px);transform: translate(165.8516387939453px, 118.0999984741211px) scale(1, 1) translate(-165.8516387939453px, -118.0999984741211px);}7.33%{-webkit-transform: translate(165.8516387939453px, 118.0999984741211px) scale(1, 0.05) translate(-165.8516387939453px, -118.0999984741211px);transform: translate(165.8516387939453px, 118.0999984741211px) scale(1, 0.05) translate(-165.8516387939453px, -118.0999984741211px);}8.67%{-webkit-transform: translate(165.8516387939453px, 118.0999984741211px) scale(1, 1) translate(-165.8516387939453px, -118.0999984741211px);transform: translate(165.8516387939453px, 118.0999984741211px) scale(1, 1) translate(-165.8516387939453px, -118.0999984741211px);}0%{-webkit-transform: translate(165.8516387939453px, 118.0999984741211px) scale(1, 1) translate(-165.8516387939453px, -118.0999984741211px);transform: translate(165.8516387939453px, 118.0999984741211px) scale(1, 1) translate(-165.8516387939453px, -118.0999984741211px);}100%{-webkit-transform: translate(165.8516387939453px, 118.0999984741211px) scale(1, 1) translate(-165.8516387939453px, -118.0999984741211px);transform: translate(165.8516387939453px, 118.0999984741211px) scale(1, 1) translate(-165.8516387939453px, -118.0999984741211px);}}@-webkit-keyframes kf_el_8FWwsy31p0J_an_O8HsLjAYl{65.67%{-webkit-transform: translate(149.00005340576172px, 85.00001907348633px) scale(1, 1) translate(-149.00005340576172px, -85.00001907348633px);transform: translate(149.00005340576172px, 85.00001907348633px) scale(1, 1) translate(-149.00005340576172px, -85.00001907348633px);}67.33%{-webkit-transform: translate(149.00005340576172px, 85.00001907348633px) scale(1, 0.05) translate(-149.00005340576172px, -85.00001907348633px);transform: translate(149.00005340576172px, 85.00001907348633px) scale(1, 0.05) translate(-149.00005340576172px, -85.00001907348633px);}69%{-webkit-transform: translate(149.00005340576172px, 85.00001907348633px) scale(1, 1) translate(-149.00005340576172px, -85.00001907348633px);transform: translate(149.00005340576172px, 85.00001907348633px) scale(1, 1) translate(-149.00005340576172px, -85.00001907348633px);}0%{-webkit-transform: translate(149.00005340576172px, 85.00001907348633px) scale(1, 1) translate(-149.00005340576172px, -85.00001907348633px);transform: translate(149.00005340576172px, 85.00001907348633px) scale(1, 1) translate(-149.00005340576172px, -85.00001907348633px);}100%{-webkit-transform: translate(149.00005340576172px, 85.00001907348633px) scale(1, 1) translate(-149.00005340576172px, -85.00001907348633px);transform: translate(149.00005340576172px, 85.00001907348633px) scale(1, 1) translate(-149.00005340576172px, -85.00001907348633px);}}@keyframes kf_el_8FWwsy31p0J_an_O8HsLjAYl{65.67%{-webkit-transform: translate(149.00005340576172px, 85.00001907348633px) scale(1, 1) translate(-149.00005340576172px, -85.00001907348633px);transform: translate(149.00005340576172px, 85.00001907348633px) scale(1, 1) translate(-149.00005340576172px, -85.00001907348633px);}67.33%{-webkit-transform: translate(149.00005340576172px, 85.00001907348633px) scale(1, 0.05) translate(-149.00005340576172px, -85.00001907348633px);transform: translate(149.00005340576172px, 85.00001907348633px) scale(1, 0.05) translate(-149.00005340576172px, -85.00001907348633px);}69%{-webkit-transform: translate(149.00005340576172px, 85.00001907348633px) scale(1, 1) translate(-149.00005340576172px, -85.00001907348633px);transform: translate(149.00005340576172px, 85.00001907348633px) scale(1, 1) translate(-149.00005340576172px, -85.00001907348633px);}0%{-webkit-transform: translate(149.00005340576172px, 85.00001907348633px) scale(1, 1) translate(-149.00005340576172px, -85.00001907348633px);transform: translate(149.00005340576172px, 85.00001907348633px) scale(1, 1) translate(-149.00005340576172px, -85.00001907348633px);}100%{-webkit-transform: translate(149.00005340576172px, 85.00001907348633px) scale(1, 1) translate(-149.00005340576172px, -85.00001907348633px);transform: translate(149.00005340576172px, 85.00001907348633px) scale(1, 1) translate(-149.00005340576172px, -85.00001907348633px);}}@-webkit-keyframes kf_el_ElfUEgk0fc8_an_byMQip-2V{85.33%{-webkit-transform: translate(124.85163879394531px, 28.101353645324707px) scale(1, 1) translate(-124.85163879394531px, -28.101353645324707px);transform: translate(124.85163879394531px, 28.101353645324707px) scale(1, 1) translate(-124.85163879394531px, -28.101353645324707px);}86.67%{-webkit-transform: translate(124.85163879394531px, 28.101353645324707px) scale(1, 0.05) translate(-124.85163879394531px, -28.101353645324707px);transform: translate(124.85163879394531px, 28.101353645324707px) scale(1, 0.05) translate(-124.85163879394531px, -28.101353645324707px);}88%{-webkit-transform: translate(124.85163879394531px, 28.101353645324707px) scale(1, 1) translate(-124.85163879394531px, -28.101353645324707px);transform: translate(124.85163879394531px, 28.101353645324707px) scale(1, 1) translate(-124.85163879394531px, -28.101353645324707px);}0%{-webkit-transform: translate(124.85163879394531px, 28.101353645324707px) scale(1, 1) translate(-124.85163879394531px, -28.101353645324707px);transform: translate(124.85163879394531px, 28.101353645324707px) scale(1, 1) translate(-124.85163879394531px, -28.101353645324707px);}100%{-webkit-transform: translate(124.85163879394531px, 28.101353645324707px) scale(1, 1) translate(-124.85163879394531px, -28.101353645324707px);transform: translate(124.85163879394531px, 28.101353645324707px) scale(1, 1) translate(-124.85163879394531px, -28.101353645324707px);}}@keyframes kf_el_ElfUEgk0fc8_an_byMQip-2V{85.33%{-webkit-transform: translate(124.85163879394531px, 28.101353645324707px) scale(1, 1) translate(-124.85163879394531px, -28.101353645324707px);transform: translate(124.85163879394531px, 28.101353645324707px) scale(1, 1) translate(-124.85163879394531px, -28.101353645324707px);}86.67%{-webkit-transform: translate(124.85163879394531px, 28.101353645324707px) scale(1, 0.05) translate(-124.85163879394531px, -28.101353645324707px);transform: translate(124.85163879394531px, 28.101353645324707px) scale(1, 0.05) translate(-124.85163879394531px, -28.101353645324707px);}88%{-webkit-transform: translate(124.85163879394531px, 28.101353645324707px) scale(1, 1) translate(-124.85163879394531px, -28.101353645324707px);transform: translate(124.85163879394531px, 28.101353645324707px) scale(1, 1) translate(-124.85163879394531px, -28.101353645324707px);}0%{-webkit-transform: translate(124.85163879394531px, 28.101353645324707px) scale(1, 1) translate(-124.85163879394531px, -28.101353645324707px);transform: translate(124.85163879394531px, 28.101353645324707px) scale(1, 1) translate(-124.85163879394531px, -28.101353645324707px);}100%{-webkit-transform: translate(124.85163879394531px, 28.101353645324707px) scale(1, 1) translate(-124.85163879394531px, -28.101353645324707px);transform: translate(124.85163879394531px, 28.101353645324707px) scale(1, 1) translate(-124.85163879394531px, -28.101353645324707px);}}@-webkit-keyframes kf_el_NfO0iA_Pg8_an_1ekR2vs3L{33%{-webkit-transform: translate(188.8516387939453px, 68.10134696960449px) scale(1, 1) translate(-188.8516387939453px, -68.10134696960449px);transform: translate(188.8516387939453px, 68.10134696960449px) scale(1, 1) translate(-188.8516387939453px, -68.10134696960449px);}34.67%{-webkit-transform: translate(188.8516387939453px, 68.10134696960449px) scale(1, 0.05) translate(-188.8516387939453px, -68.10134696960449px);transform: translate(188.8516387939453px, 68.10134696960449px) scale(1, 0.05) translate(-188.8516387939453px, -68.10134696960449px);}36.33%{-webkit-transform: translate(188.8516387939453px, 68.10134696960449px) scale(1, 1) translate(-188.8516387939453px, -68.10134696960449px);transform: translate(188.8516387939453px, 68.10134696960449px) scale(1, 1) translate(-188.8516387939453px, -68.10134696960449px);}0%{-webkit-transform: translate(188.8516387939453px, 68.10134696960449px) scale(1, 1) translate(-188.8516387939453px, -68.10134696960449px);transform: translate(188.8516387939453px, 68.10134696960449px) scale(1, 1) translate(-188.8516387939453px, -68.10134696960449px);}100%{-webkit-transform: translate(188.8516387939453px, 68.10134696960449px) scale(1, 1) translate(-188.8516387939453px, -68.10134696960449px);transform: translate(188.8516387939453px, 68.10134696960449px) scale(1, 1) translate(-188.8516387939453px, -68.10134696960449px);}}@keyframes kf_el_NfO0iA_Pg8_an_1ekR2vs3L{33%{-webkit-transform: translate(188.8516387939453px, 68.10134696960449px) scale(1, 1) translate(-188.8516387939453px, -68.10134696960449px);transform: translate(188.8516387939453px, 68.10134696960449px) scale(1, 1) translate(-188.8516387939453px, -68.10134696960449px);}34.67%{-webkit-transform: translate(188.8516387939453px, 68.10134696960449px) scale(1, 0.05) translate(-188.8516387939453px, -68.10134696960449px);transform: translate(188.8516387939453px, 68.10134696960449px) scale(1, 0.05) translate(-188.8516387939453px, -68.10134696960449px);}36.33%{-webkit-transform: translate(188.8516387939453px, 68.10134696960449px) scale(1, 1) translate(-188.8516387939453px, -68.10134696960449px);transform: translate(188.8516387939453px, 68.10134696960449px) scale(1, 1) translate(-188.8516387939453px, -68.10134696960449px);}0%{-webkit-transform: translate(188.8516387939453px, 68.10134696960449px) scale(1, 1) translate(-188.8516387939453px, -68.10134696960449px);transform: translate(188.8516387939453px, 68.10134696960449px) scale(1, 1) translate(-188.8516387939453px, -68.10134696960449px);}100%{-webkit-transform: translate(188.8516387939453px, 68.10134696960449px) scale(1, 1) translate(-188.8516387939453px, -68.10134696960449px);transform: translate(188.8516387939453px, 68.10134696960449px) scale(1, 1) translate(-188.8516387939453px, -68.10134696960449px);}}#el_TaoN6ji-2 *{-webkit-animation-duration: 10s;animation-duration: 10s;-webkit-animation-iteration-count: infinite;animation-iteration-count: infinite;-webkit-animation-timing-function: cubic-bezier(0, 0, 1, 1);animation-timing-function: cubic-bezier(0, 0, 1, 1);}#el_luU0ZpkLz3{fill: #FFDA00;}#el_cxAoR_5sMQ{fill: #FEDA00;}#el_Pjtib8QTJF{fill: #FEDA00;}#el_iD_DQrFAXD{fill: #FEDA00;}#el_8zc5zeBRES{fill: #EE3D96;}#el_x4TCsc2u91{fill: #EE3D96;}#el_5uEN8cwjps{fill: #EE3D96;}#el_7vngrLeL9B{fill: #FFDA00;}#el_gS6IsOHMPU{fill: #FEDA00;}#el_jtTR2Eo_Dp{fill: #EE3D96;}#el_EzEaYe5zsM{fill: #EE3D96;}#el_NfO0iA_Pg8{fill: black;}#el_Sk_yu69iQe{fill: #EE3D96;}#el_QxncjTcrG4{fill: black;}#el_lTIJwsVHD0{-webkit-transform: translate(0px, 0px) rotate(93.5251deg);transform: translate(0px, 0px) rotate(93.5251deg);-webkit-transform-origin: 172.386% 96.4212%;transform-origin: 172.386% 96.4212%;fill: #EE3D96;stroke: #EE3D96;}#el_MBrrup8y8_f{fill: #EE3D96;}#el_ElfUEgk0fc8{fill: black;}#el_K6FDUIcZ-Wx{-webkit-transform: translate(0px, 0px) rotate(94.3303deg);transform: translate(0px, 0px) rotate(94.3303deg);-webkit-transform-origin: 193.165% 49.9032%;transform-origin: 193.165% 49.9032%;fill: #EE3D96;stroke: #EE3D96;}#el_8FWwsy31p0J{stroke: #010101;stroke-width: 6;}#el_a0WDop_pTr1{fill: #FEDA00;}#el_k7h8HJHEKTs{-webkit-transform: translate(0px, 0px) rotate(92.1361deg);transform: translate(0px, 0px) rotate(92.1361deg);-webkit-transform-origin: 130.038% 7.96557%;transform-origin: 130.038% 7.96557%;fill: #EE3D96;stroke: #EE3D96;}#el_NMCzhjgD_B3{fill: black;}#el_tqy84Ip0eSh{fill: #FEDA00;}#el_eBiVTwToAuh{fill: black;}#el_SGv7IYTCaui{stroke: black;}#el_NfO0iA_Pg8_an_1ekR2vs3L{-webkit-animation-fill-mode: backwards;animation-fill-mode: backwards;-webkit-transform: translate(188.8516387939453px, 68.10134696960449px) scale(1, 1) translate(-188.8516387939453px, -68.10134696960449px);transform: translate(188.8516387939453px, 68.10134696960449px) scale(1, 1) translate(-188.8516387939453px, -68.10134696960449px);-webkit-animation-name: kf_el_NfO0iA_Pg8_an_1ekR2vs3L;animation-name: kf_el_NfO0iA_Pg8_an_1ekR2vs3L;-webkit-animation-timing-function: cubic-bezier(0, 0, 0.58, 1);animation-timing-function: cubic-bezier(0, 0, 0.58, 1);}#el_ElfUEgk0fc8_an_byMQip-2V{-webkit-animation-fill-mode: backwards;animation-fill-mode: backwards;-webkit-transform: translate(124.85163879394531px, 28.101353645324707px) scale(1, 1) translate(-124.85163879394531px, -28.101353645324707px);transform: translate(124.85163879394531px, 28.101353645324707px) scale(1, 1) translate(-124.85163879394531px, -28.101353645324707px);-webkit-animation-name: kf_el_ElfUEgk0fc8_an_byMQip-2V;animation-name: kf_el_ElfUEgk0fc8_an_byMQip-2V;-webkit-animation-timing-function: cubic-bezier(0, 0, 0.58, 1);animation-timing-function: cubic-bezier(0, 0, 0.58, 1);}#el_8FWwsy31p0J_an_O8HsLjAYl{-webkit-animation-fill-mode: backwards;animation-fill-mode: backwards;-webkit-transform: translate(149.00005340576172px, 85.00001907348633px) scale(1, 1) translate(-149.00005340576172px, -85.00001907348633px);transform: translate(149.00005340576172px, 85.00001907348633px) scale(1, 1) translate(-149.00005340576172px, -85.00001907348633px);-webkit-animation-name: kf_el_8FWwsy31p0J_an_O8HsLjAYl;animation-name: kf_el_8FWwsy31p0J_an_O8HsLjAYl;-webkit-animation-timing-function: cubic-bezier(0, 0, 0.58, 1);animation-timing-function: cubic-bezier(0, 0, 0.58, 1);}#el_QxncjTcrG4_an_mpPUOhuN5{-webkit-animation-fill-mode: backwards;animation-fill-mode: backwards;-webkit-transform: translate(165.8516387939453px, 118.0999984741211px) scale(1, 1) translate(-165.8516387939453px, -118.0999984741211px);transform: translate(165.8516387939453px, 118.0999984741211px) scale(1, 1) translate(-165.8516387939453px, -118.0999984741211px);-webkit-animation-name: kf_el_QxncjTcrG4_an_mpPUOhuN5;animation-name: kf_el_QxncjTcrG4_an_mpPUOhuN5;-webkit-animation-timing-function: cubic-bezier(0, 0, 1, 1);animation-timing-function: cubic-bezier(0, 0, 1, 1);}</style>
<path d="M147 61.9111C145.8 61.3111 144.7 60.7111 143.5 60.2111C142.3 59.6111 141.1 59.1111 139.8 58.5111C134.1 56.0111 128.4 54.0111 122.7 52.4111C120.7 51.8111 118.8 51.3111 116.8 50.9111C114.9 50.4111 113 50.1111 111 49.7111C108.6 49.3111 106.3 48.9111 103.9 48.6111C75.7 45.2111 49.6 52.5111 26.1 70.3111C25.1 71.1111 24.1 71.9111 23 72.7111C22.5 73.1111 22 73.5111 21.5 73.9111C20.9 74.4111 20.3 74.6111 19.6 74.7111C19.7 74.8111 19.7 74.9111 19.8 75.0111C23.4 80.7111 22.9 86.0111 22.2 88.9111C21.7 91.0111 20.8 93.0111 19.6 94.9111C20.4 95.0111 21.1 95.3111 21.8 95.9111C22.2 96.3111 22.5 96.6111 22.9 97.0111C23.7 97.8111 24.5 98.6111 25.3 99.3111C26.1 100.111 27 100.911 27.8 101.611C53.1 124.711 78.4 134.811 103 131.411C120.9 129.011 136.1 119.711 148 109.411C149.2 108.411 150.4 107.311 151.5 106.311C152.7 105.211 153.9 104.111 155 103.011C155.4 102.611 155.8 102.211 156.2 101.811C157.1 100.911 157.9 100.011 158.8 99.1111C159.7 98.2111 160.5 97.3111 161.3 96.3111C167.7 89.0111 172.1 82.6111 174.4 79.1111C165.6 72.4111 156.4 66.6111 147 61.9111ZM96.4 76.5111C95.9 76.6111 95.3 76.7111 94.8 76.8111C95.4 76.6111 95.9 76.5111 96.4 76.5111ZM104.3 110.111C99.2 119.611 93.4 121.711 89.3 121.711C87.7 121.711 86.3 121.411 85.4 121.011C79.2 118.911 74.7 111.711 75.7 105.711C76 103.911 77.7 102.711 79.6 103.011C81.4 103.311 82.7 105.011 82.3 106.911C81.9 109.411 84.2 113.511 87.6 114.711C92.5 116.411 96.5 110.611 98.4 106.911C99.3 105.311 101.3 104.611 102.9 105.511C104.5 106.411 105.1 108.411 104.3 110.111ZM141.6 83.3111C137.2 83.3111 134.1 80.2111 134.1 75.7111C134.1 71.5111 137.4 68.1111 141.4 68.0111C145.5 67.9111 148.5 71.9111 148.6 75.8111C148.7 79.9111 145.4 83.3111 141.6 83.3111Z" id="el_luU0ZpkLz3"/>
<rect x="122.6" y="67.8" width="28" height="27" id="el_cxAoR_5sMQ"/>
<rect x="68.6" y="94.8" width="28" height="27" id="el_Pjtib8QTJF"/>
<rect x="82.6" y="94.8" width="28" height="27" id="el_iD_DQrFAXD"/>
<path d="M186.8 115.9C182.4 113 177 110.2 170.8 107.7C168.6 108.4 166.2 109 163.8 109.5C162.2 109.8 160.6 110 159 110.2C145.7 123.3 127 136.4 103.8 139.6C100.4 140.1 96.9 140.3 93.4 140.3C73.1 140.3 52.6 132.2 32.2 116.1C52.1 144.8 75.1 160.6 100.6 163.2C128.2 166 153.9 152.7 171.5 140C182.1 132.4 189.9 125 193.4 121.4C191.7 119.5 189.4 117.7 186.8 115.9ZM166.2 122C163.2 122 161.2 119.9 161.2 116.9C161.2 114.1 163.4 111.8 166.1 111.8C168.9 111.7 170.8 114.4 170.9 117C171 119.7 168.7 122 166.2 122Z" id="el_8zc5zeBRES"/>
<path d="M187.2 55.1C179.7 52.4 172 50.6 164.1 49.7C161 52.3 157.6 55 153.7 57.8C163.6 63.1 172.9 69.3 181.3 76.1C182.7 77.3 183.1 79.3 182.2 80.8C181.7 81.6 177 89.7 168.7 99.7C169.5 100 170.2 100.3 170.9 100.5C179.5 97.3 186.9 92.2 192.8 86.7C201.3 78.9 206.9 70.4 209.4 66.3C202.6 61.7 195.1 57.9 187.2 55.1ZM182.8 67.2C179.8 67.2 177.8 65.1 177.8 62.1C177.8 59.3 180 57 182.7 57C185.5 56.9 187.4 59.6 187.5 62.2C187.6 64.9 185.3 67.2 182.8 67.2Z" id="el_x4TCsc2u91"/>
<path d="M63.5 19.4C42.4 29 31.1 49.2 25.9 61.7C29.8 59 33.8 56.5 37.8 54.4C37 52 36.7 47 41 43.4C41.8 42.7 44.3 40.6 75.5 25.1C77.5 24.1 83.5 21.1 90.6 23.6C96.9 25.8 102.3 31.6 106.7 40.9C106.9 41.3 107 41.8 107 42.3C112.7 43.1 118.3 44.3 123.8 45.8C125.9 46.4 127.9 47 130 47.7C132.2 48.4 134.3 49.2 136.4 50C139.9 51.4 143.4 52.8 146.9 54.5C149.5 52.7 152 50.9 154.3 49.1C155.7 48 157 47 158.2 46C159.4 45 160.6 44 161.7 43C166.9 38.5 170.7 34.6 172.9 32.3C144.7 8.00002 100.2 2.80002 63.5 19.4ZM119.2 28C119.2 25.2 121.4 22.9 124.1 22.9C126.9 22.8 128.8 25.5 128.9 28.1C129 30.8 126.8 33.1 124.2 33.1C121.3 33.1 119.2 31 119.2 28Z" id="el_5uEN8cwjps"/>
<path d="M88.2 30.7C84.5 29.4 81.3 30.7 78.9 31.9C56.6 43 47.2 48.2 45.9 49.3C45.2 49.9 44.9 50.5 44.9 51.1C62.8 43 81 40.2 98.7 41.5C95.4 35.5 91.9 32 88.2 30.7Z" id="el_7vngrLeL9B"/>
<path d="M150.501 57.5021C156.023 57.5021 160.5 61.9788 160.5 67.501V67.501C160.5 73.0233 156.023 77.5 150.501 77.5L150.288 77.5C144.766 77.5 140.289 73.0233 140.289 67.5011V67.5011C140.289 61.9788 144.766 57.5021 150.288 57.5021L150.501 57.5021Z" id="el_gS6IsOHMPU"/>
<ellipse cx="181.5" cy="62" rx="6.5" ry="8" id="el_jtTR2Eo_Dp"/>
<path d="M187.784 63.0029C185.087 63.1644 182.937 65.414 183.001 68.2133C183.07 71.2125 185.117 73.2664 188.116 73.198C190.716 73.1387 192.863 70.7891 192.701 68.0921C192.542 65.4951 190.481 62.8414 187.784 63.0029Z" id="el_EzEaYe5zsM"/>
<g id="el_NfO0iA_Pg8_an_1ekR2vs3L" data-animator-group="true" data-animator-type="2"><path d="M188.9 63.0027C186.2 63.1027 184 65.3027 184 68.1027C184 71.1027 186 73.2027 189 73.2027C191.6 73.2027 193.8 70.9027 193.7 68.2027C193.6 65.6027 191.6 62.9027 188.9 63.0027Z" id="el_NfO0iA_Pg8"/></g>
<path d="M166.1 111.8C163.4 111.9 161.2 114.1 161.2 116.9C161.2 119.9 163.2 122 166.2 122C168.8 122 171 119.7 170.9 117C170.8 114.4 168.8 111.8 166.1 111.8Z" id="el_Sk_yu69iQe"/>
<g id="el_QxncjTcrG4_an_mpPUOhuN5" data-animator-group="true" data-animator-type="2"><path d="M165.9 113C163.2 113.1 161 115.3 161 118.1C161 121.1 163 123.2 166 123.2C168.6 123.2 170.8 120.9 170.7 118.2C170.6 115.6 168.6 113 165.9 113Z" id="el_QxncjTcrG4"/></g>
<rect x="172.386" y="96.4212" width="14.9599" height="12" rx="6" id="el_lTIJwsVHD0"/>
<path d="M124.183 35C127.399 35 130.12 31.844 129.996 28.1391C129.872 24.5714 127.523 20.8665 124.06 21.0037C120.721 21.1409 118 24.1597 118 28.0018C118 32.1184 120.597 35 124.183 35Z" id="el_MBrrup8y8_f"/>
<g id="el_ElfUEgk0fc8_an_byMQip-2V" data-animator-group="true" data-animator-type="2"><path d="M125 33.2027C127.6 33.2027 129.8 30.9027 129.7 28.2027C129.6 25.6027 127.7 22.9027 124.9 23.0027C122.2 23.1027 120 25.3027 120 28.1027C120 31.1027 122.1 33.2027 125 33.2027Z" id="el_ElfUEgk0fc8"/></g>
<rect x="193.165" y="49.9032" width="12.2711" height="10" rx="5" id="el_K6FDUIcZ-Wx"/>
<g id="el_8FWwsy31p0J_an_O8HsLjAYl" data-animator-group="true" data-animator-type="2"><path d="M148.897 82C147.325 82 145.96 83.3419 146.001 84.9207C146.042 86.4994 147.283 88.0387 148.98 87.9993C150.635 87.9598 152 86.6178 152 84.9602C152 83.2235 150.717 82 148.897 82Z" id="el_8FWwsy31p0J"/></g>
<rect x="139" y="61" width="20" height="18" rx="9" id="el_a0WDop_pTr1"/>
<rect x="130.038" y="7.96557" width="14.1723" height="12" rx="6" id="el_k7h8HJHEKTs"/>
<path d="M216.8 66.9C217.5 65.4 217.1 63.7 215.8 62.7C206.2 55.6 195.1 50.3 183.4 46.9C181.6 43.5 179.6 40.3 177.4 37.2C179.2 35.3 180.2 34.1 180.3 33.9C181.4 32.5 181.3 30.5 180 29.3C168.2 18.4 153.6 10.8 138 6.60001C127.4 2.40001 115.7 0 103.5 0C59.3 0 22.6 30.5 15.4 70.5C12.6 68 8.7 65.5 3.4 63.3L0 71.3C10.3 75.7 15.2 81.4 13.7 87.5C12.3 93.2 6.1 97.4 1.8 97.1L1.1 105.7C1.5 105.7 1.9 105.7 2.3 105.7C6.9 105.7 11.7 103.5 15.5 100.2C15.5 100.3 15.6 100.5 15.6 100.6C23.2 139.2 58.3 168.7 100.9 169.8C103.3 170 105.6 170.1 108.1 170.1C128.2 170.1 149.7 162.8 170.9 148.6C188.9 136.6 200.2 124.1 200.6 123.5C201.7 122.3 201.7 120.5 200.7 119.2C197.9 115.7 193.9 112.4 189.1 109.3C190.4 105 191.4 100.6 192.1 96.1C207.9 84 216.3 67.9 216.8 66.9ZM63.5 19.4C100.2 2.8 144.6 8 173 32C170.8 34.3 167 38.2 161.8 42.7C160.7 43.7 159.5 44.7 158.3 45.7C157.1 46.7 155.7 47.8 154.4 48.8C152.1 50.6 149.6 52.4 147 54.2C143.6 52.6 140.1 51.1 136.5 49.7C134.4 48.9 132.2 48.1 130.1 47.4C128.1 46.7 126 46.1 123.9 45.5C118.4 44 112.8 42.8 107.1 42C107.1 41.5 107 41.1 106.8 40.6C102.4 31.3 96.9 25.5 90.7 23.3C83.6 20.9 77.6 23.9 75.6 24.8C44.5 40.3 42 42.4 41.1 43.1C36.8 46.7 37 51.6 37.9 54.1C33.9 56.2 30 58.7 26 61.4C31.2 49.2 42.4 29 63.5 19.4ZM98.6 41.3C80.9 40.1 62.7 42.8 44.8 50.9C44.9 50.4 45.1 49.7 45.8 49.1C47.1 48 56.5 42.9 78.8 31.7C81.2 30.5 84.4 29.3 88.1 30.5C91.9 32 95.4 35.5 98.6 41.3ZM21.7 96.6C21.1 96 20.3 95.7 19.5 95.6C20.7 93.7 21.6 91.7 22.1 89.6C22.8 86.7 23.3 81.4 19.7 75.7C19.6 75.6 19.6 75.5 19.5 75.4C20.2 75.3 20.8 75 21.4 74.6C21.9 74.2 22.4 73.8 22.9 73.4C23.9 72.6 24.9 71.8 26 71C49.5 53.2 75.7 45.9 103.8 49.3C106.1 49.6 108.5 50 110.9 50.4C112.8 50.8 114.7 51.1 116.7 51.6C118.7 52.1 120.6 52.6 122.6 53.1C128.3 54.7 134 56.8 139.7 59.2C140.9 59.7 142.1 60.3 143.4 60.9C144.6 61.4 145.7 62 146.9 62.6C156.3 67.3 165.5 73.1 174.2 79.8C172 83.3 167.5 89.8 161.1 97C160.3 97.9 159.5 98.8 158.6 99.8C157.8 100.7 156.9 101.6 156 102.5C155.6 102.9 155.2 103.3 154.8 103.7C153.7 104.8 152.5 105.9 151.3 107C150.2 108.1 149 109.1 147.8 110.1C136 120.3 120.7 129.6 102.8 132.1C78.2 135.5 53 125.4 27.6 102.3C26.8 101.5 25.9 100.8 25.1 100C24.3 99.2 23.5 98.5 22.7 97.7C22.4 97.3 22 96.9 21.7 96.6ZM193.5 121.3C190 124.8 182.3 132.3 171.6 139.9C153.9 152.6 128.2 165.9 100.7 163.1C75.2 160.5 52.3 144.7 32.3 116C52.7 132.1 73.2 140.2 93.5 140.2C97 140.2 100.4 140 103.9 139.5C127.1 136.3 145.8 123.2 159.1 110.1C160.7 109.9 162.3 109.7 163.9 109.4C166.3 109 168.6 108.4 170.9 107.6C177.1 110.2 182.5 112.9 186.9 115.8C189.4 117.7 191.7 119.5 193.5 121.3ZM171 100.5C170.3 100.2 169.5 99.9 168.8 99.7C177.2 89.7 181.9 81.6 182.3 80.8C183.2 79.2 182.8 77.2 181.4 76.1C173 69.3 163.7 63.1 153.8 57.8C157.6 55 161.1 52.3 164.2 49.7C172 50.7 179.8 52.5 187.3 55.1C195.2 57.9 202.7 61.7 209.5 66.4C207 70.5 201.4 78.9 192.9 86.8C186.9 92.2 179.6 97.4 171 100.5Z" id="el_NMCzhjgD_B3"/>
<path d="M96.2 77.1C95.7 77.1 95.1 77.2 94.6 77.4C95.2 77.4 95.7 77.3 96.2 77.1Z" id="el_tqy84Ip0eSh"/>
<g filter="url(#filter0_d)" id="el_uStJlC4-sFE">
<path d="M85.2 121.6C86.1 121.9 87.5 122.3 89.1 122.3C93.2 122.3 99 120.2 104.1 110.7C105 109.1 104.4 107 102.7 106.2C101.1 105.3 99 105.9 98.2 107.6C96.3 111.2 92.3 117 87.4 115.4C84 114.2 81.7 110.2 82.1 107.6C82.4 105.8 81.2 104 79.4 103.7C77.6 103.4 75.8 104.6 75.5 106.4C74.4 112.4 79 119.5 85.2 121.6Z" id="el_eBiVTwToAuh"/>
<path d="M103.664 110.455L103.664 110.455L103.659 110.463C98.6301 119.832 92.9834 121.8 89.1 121.8C87.5799 121.8 86.2399 121.42 85.3591 121.126C82.3821 120.117 79.7686 117.899 78.0334 115.193C76.2967 112.484 75.4699 109.337 75.9918 106.49L75.9919 106.49L75.9932 106.482C76.2447 104.973 77.7712 103.935 79.3178 104.193C80.8268 104.445 81.8646 105.971 81.6068 107.518L81.6068 107.518L81.6058 107.524C81.381 108.985 81.9149 110.759 82.9047 112.296C83.9004 113.842 85.4067 115.227 87.2336 115.872L87.2336 115.872L87.2448 115.875C89.9435 116.756 92.353 115.574 94.2633 113.818C96.1749 112.062 97.6816 109.653 98.6422 107.833L98.6476 107.823L98.6524 107.813C99.3225 106.389 101.095 105.871 102.455 106.636L102.471 106.645L102.487 106.652C103.911 107.323 104.429 109.095 103.664 110.455Z" id="el_SGv7IYTCaui"/>
</g>
<defs>
<filter id="filter0_d" x="71.3369" y="103.654" width="37.1796" height="26.6459" filterUnits="userSpaceOnUse" color-interpolation-filters="sRGB">
<feFlood flood-opacity="0" result="BackgroundImageFix"/>
<feColorMatrix in="SourceAlpha" type="matrix" values="0 0 0 0 0 0 0 0 0 0 0 0 0 0 0 0 0 0 127 0"/>
<feOffset dy="4"/>
<feGaussianBlur stdDeviation="2"/>
<feColorMatrix type="matrix" values="0 0 0 0 0 0 0 0 0 0 0 0 0 0 0 0 0 0 0.25 0"/>
<feBlend mode="normal" in2="BackgroundImageFix" result="effect1_dropShadow"/>
<feBlend mode="normal" in="SourceGraphic" in2="effect1_dropShadow" result="shape"/>
</filter>
</defs>
</svg>