<?xml version="1.0" encoding="utf-8"?>
<!-- Generator: Adobe Illustrator 23.0.1, SVG Export Plug-In . SVG Version: 6.00 Build 0)  -->
<svg version="1.1" id="Layer_1" xmlns="http://www.w3.org/2000/svg" xmlns:xlink="http://www.w3.org/1999/xlink" x="0px" y="0px"
	 viewBox="0 0 820 380" style="enable-background:new 0 0 820 380;" xml:space="preserve">
<style type="text/css">
	.st0{fill:#EE3D96;}
	.st1{fill:#FFDA00;}
	.st2{fill:#FEDA00;}
</style>
<g>
	<g>
		<path class="st0" d="M393.7,195.8c-2.8-1.8-6.2-3.6-10.1-5.2c-1.4,0.4-2.9,0.8-4.4,1.1c-1,0.2-2,0.3-3,0.4
			c-8.5,8.3-20.3,16.7-35,18.7c-2.2,0.3-4.4,0.4-6.6,0.4c-12.9,0-25.9-5.2-38.8-15.3c12.6,18.2,27.2,28.3,43.4,29.9
			c17.5,1.8,33.8-6.7,45-14.7c6.7-4.8,11.7-9.5,13.9-11.8C396.8,198,395.4,196.9,393.7,195.8z M380.6,199.6c-1.9,0-3.2-1.3-3.2-3.2
			c0-1.8,1.4-3.2,3.1-3.3c1.8,0,3,1.6,3,3.3C383.7,198.2,382.3,199.6,380.6,199.6z"/>
		<path class="st0" d="M394,157.2c-4.7-1.7-9.7-2.8-14.6-3.4c-1.9,1.6-4.1,3.4-6.6,5.1c6.3,3.3,12.2,7.3,17.5,11.6
			c0.9,0.7,1.1,2,0.6,3c-0.3,0.5-3.3,5.7-8.6,12c0.5,0.2,1,0.4,1.4,0.5c5.5-2,10.1-5.3,13.9-8.8c5.4-5,9-10.3,10.5-12.9
			C403.8,161.3,399,158.9,394,157.2z M391.2,164.8c-1.9,0-3.2-1.3-3.2-3.2c0-1.8,1.4-3.2,3.1-3.3c1.8,0,3,1.6,3,3.3
			C394.2,163.4,392.8,164.8,391.2,164.8z"/>
		<path class="st0" d="M315.5,134.5c-13.4,6.1-20.5,18.9-23.8,26.8c2.5-1.7,5-3.3,7.5-4.6c-0.5-1.5-0.7-4.7,2-7
			c0.5-0.4,2.1-1.8,21.9-11.6c1.3-0.6,5.1-2.5,9.6-1c4,1.4,7.4,5.1,10.2,11c0.1,0.3,0.2,0.6,0.2,0.9c3.6,0.5,7.2,1.3,10.6,2.2
			c1.3,0.4,2.6,0.8,3.9,1.2c1.4,0.5,2.7,0.9,4.1,1.5c2.3,0.9,4.5,1.8,6.6,2.8c1.7-1.2,3.2-2.3,4.7-3.4c0.9-0.7,1.7-1.3,2.5-2
			s1.5-1.3,2.2-1.9c3.3-2.9,5.7-5.3,7.1-6.8C367,127.3,338.8,123.9,315.5,134.5z M350.8,140c0-1.8,1.4-3.2,3.1-3.3
			c1.8,0,3,1.6,3,3.3s-1.4,3.1-3,3.1C352.1,143.2,350.8,141.9,350.8,140z"/>
		<path class="st1" d="M331.2,141.7c-2.3-0.8-4.4,0-5.9,0.7c-14.2,7.1-20.1,10.3-21,11c-0.5,0.4-0.6,0.8-0.6,1.1
			c11.3-5.2,22.9-6.9,34.1-6.1C335.7,144.7,333.5,142.5,331.2,141.7z"/>
		<path class="st1" d="M368.3,161.9c-0.7-0.4-1.5-0.7-2.2-1.1c-0.8-0.4-1.6-0.7-2.3-1.1c-3.6-1.6-7.2-2.9-10.8-3.9
			c-1.2-0.4-2.5-0.7-3.7-1s-2.4-0.5-3.7-0.8c-1.5-0.3-3-0.5-4.5-0.7c-17.9-2.2-34.5,2.5-49.4,13.8c-0.7,0.5-1.3,1-1.9,1.5
			c-0.3,0.3-0.6,0.5-1,0.8s-0.8,0.5-1.2,0.5c0,0.1,0.1,0.1,0.1,0.2c2.3,3.6,2,7,1.5,8.8c-0.3,1.3-0.9,2.6-1.7,3.8
			c0.5,0.1,1,0.3,1.4,0.7c0.2,0.2,0.5,0.4,0.7,0.7c0.5,0.5,1,1,1.5,1.5s1.1,1,1.6,1.5c16.1,14.7,32.1,21.1,47.7,18.9
			c11.4-1.6,21-7.4,28.5-13.9c0.8-0.7,1.5-1.3,2.2-2c0.8-0.7,1.5-1.4,2.2-2.1c0.3-0.3,0.5-0.5,0.8-0.8c0.6-0.6,1.1-1.1,1.6-1.7
			c0.5-0.6,1.1-1.2,1.6-1.7c4-4.6,6.9-8.7,8.3-10.9C380.2,168.5,374.3,164.9,368.3,161.9z M336.3,171.1L336.3,171.1
			c-0.3,0.1-0.7,0.1-1,0.2C335.6,171.2,335.9,171.1,336.3,171.1z M341.2,192.4c-3.2,6-6.9,7.4-9.5,7.4c-1,0-1.9-0.2-2.5-0.4
			c-3.9-1.3-6.8-5.9-6.2-9.7c0.2-1.2,1.3-1.9,2.5-1.7s1.9,1.3,1.7,2.5c-0.3,1.6,1.2,4.2,3.3,4.9c3.1,1.1,5.6-2.6,6.9-4.9
			c0.6-1,1.8-1.4,2.9-0.9S341.8,191.4,341.2,192.4z M364.9,175.4c-2.8,0-4.7-2-4.7-4.8c0-2.7,2.1-4.8,4.6-4.9c2.6-0.1,4.5,2.5,4.6,5
			C369.4,173.3,367.3,175.4,364.9,175.4z"/>
		<g>
			<path d="M412.8,164.7c0.5-0.9,0.2-2.1-0.6-2.7c-6.1-4.5-13.1-7.9-20.6-10c-1.1-2.1-2.4-4.2-3.8-6.2c1.1-1.2,1.8-2,1.9-2.1
				c0.7-0.9,0.6-2.2-0.2-2.9c-7.5-6.9-16.8-11.8-26.7-14.4c-6.7-2.7-14.1-4.2-21.9-4.2c-28,0-51.3,19.3-55.9,44.7
				c-1.8-1.6-4.3-3.2-7.6-4.6l-2.1,5.1c6.5,2.8,9.6,6.4,8.7,10.3c-0.9,3.6-4.8,6.3-7.5,6.1l-0.4,5.5c0.2,0,0.5,0,0.7,0
				c2.9,0,6-1.4,8.3-3.5c0,0.1,0,0.2,0.1,0.3c4.8,24.5,27.1,43.2,54.1,43.9c1.5,0.1,3,0.2,4.5,0.2c12.7,0,26.4-4.7,39.8-13.6
				c11.4-7.6,18.6-15.6,18.9-15.9c0.7-0.8,0.7-1.9,0.1-2.7c-1.8-2.2-4.3-4.3-7.3-6.3c0.9-2.7,1.5-5.5,1.9-8.4
				C407.1,175.5,412.5,165.3,412.8,164.7z M315.5,134.5c23.3-10.6,51.5-7.2,69.5,8c-1.4,1.5-3.8,3.9-7.1,6.8
				c-0.7,0.6-1.5,1.3-2.2,1.9c-0.8,0.7-1.6,1.3-2.5,2c-1.5,1.1-3,2.3-4.7,3.4c-2.2-1-4.4-2-6.6-2.8c-1.3-0.5-2.7-1-4.1-1.5
				c-1.3-0.4-2.6-0.8-3.9-1.2c-3.5-1-7-1.7-10.6-2.2c0-0.3-0.1-0.6-0.2-0.9c-2.8-5.9-6.3-9.6-10.2-11c-4.5-1.6-8.3,0.4-9.6,1
				c-19.8,9.9-21.3,11.2-21.9,11.6c-2.7,2.3-2.6,5.4-2,7c-2.5,1.4-5,2.9-7.5,4.6C295,153.4,302.1,140.6,315.5,134.5z M337.7,148.4
				c-11.2-0.8-22.8,1-34.1,6.1c0-0.3,0.2-0.7,0.6-1.1c0.8-0.7,6.8-4,21-11c1.5-0.8,3.6-1.5,5.9-0.7
				C333.5,142.5,335.7,144.7,337.7,148.4z M288.9,183.5c-0.4-0.4-0.9-0.6-1.4-0.7c0.8-1.2,1.3-2.5,1.7-3.8c0.4-1.8,0.8-5.2-1.5-8.8
				c0-0.1-0.1-0.1-0.1-0.2c0.4-0.1,0.8-0.2,1.2-0.5c0.3-0.3,0.6-0.5,1-0.8c0.6-0.5,1.3-1,1.9-1.5c14.9-11.3,31.5-15.9,49.4-13.8
				c1.5,0.2,3,0.4,4.5,0.7c1.2,0.2,2.4,0.5,3.7,0.8c1.2,0.3,2.5,0.6,3.7,1c3.6,1,7.2,2.3,10.8,3.9c0.8,0.3,1.6,0.7,2.3,1.1
				c0.7,0.3,1.5,0.7,2.2,1.1c6,3,11.8,6.6,17.3,10.9c-1.4,2.2-4.2,6.3-8.3,10.9c-0.5,0.6-1,1.2-1.6,1.7c-0.5,0.6-1.1,1.1-1.6,1.7
				c-0.3,0.3-0.5,0.5-0.8,0.8c-0.7,0.7-1.4,1.4-2.2,2.1c-0.7,0.7-1.4,1.3-2.2,2c-7.5,6.5-17.2,12.4-28.5,13.9
				c-15.6,2.1-31.6-4.2-47.7-18.9c-0.5-0.5-1.1-1-1.6-1.5s-1-1-1.5-1.5C289.4,183.9,289.2,183.7,288.9,183.5z M398,199.2
				c-2.2,2.2-7.1,7-13.9,11.8c-11.2,8-27.5,16.5-45,14.7c-16.2-1.6-30.7-11.7-43.4-29.9c12.9,10.2,25.9,15.3,38.8,15.3
				c2.2,0,4.4-0.1,6.6-0.4c14.7-2,26.6-10.4,35-18.7c1-0.1,2-0.2,3-0.4c1.5-0.3,3-0.7,4.4-1.1c3.9,1.6,7.4,3.4,10.1,5.2
				C395.4,196.9,396.8,198,398,199.2z M383.7,186c-0.5-0.2-0.9-0.4-1.4-0.5c5.3-6.3,8.3-11.5,8.6-12c0.6-1,0.3-2.3-0.6-3
				c-5.3-4.3-11.2-8.2-17.5-11.6c2.4-1.8,4.6-3.5,6.6-5.1c5,0.6,9.9,1.8,14.6,3.4c5,1.8,9.8,4.2,14.1,7.1
				c-1.6,2.6-5.1,7.9-10.5,12.9C393.8,180.7,389.2,184,383.7,186z"/>
			<path class="st2" d="M336.3,171.1c-0.3,0-0.7,0.1-1,0.2C335.6,171.3,335.9,171.2,336.3,171.1L336.3,171.1z"/>
			<path d="M364.9,175.4c2.4,0,4.5-2.2,4.5-4.7c-0.1-2.5-1.9-5-4.6-5c-2.6,0.1-4.7,2.2-4.6,4.9C360.2,173.5,362.1,175.4,364.9,175.4
				z"/>
			<path d="M354,143.2c1.6,0,3-1.5,3-3.1c0-1.7-1.3-3.4-3-3.3c-1.7,0-3.1,1.5-3.1,3.3C350.8,141.9,352.1,143.2,354,143.2z"/>
			<path d="M391.1,158.4c-1.7,0-3.1,1.5-3.1,3.3c0,1.9,1.3,3.2,3.2,3.2c1.6,0,3-1.5,3-3.1C394.1,160,392.9,158.3,391.1,158.4z"/>
			<path d="M380.6,193.2c-1.7,0-3.1,1.5-3.1,3.3c0,1.9,1.3,3.2,3.2,3.2c1.6,0,3-1.5,3-3.1C383.6,194.8,382.3,193.1,380.6,193.2z"/>
			<path d="M329.3,199.4c0.6,0.2,1.5,0.4,2.5,0.4c2.6,0,6.3-1.3,9.5-7.4c0.6-1,0.2-2.3-0.9-2.9c-1-0.6-2.3-0.2-2.9,0.9
				c-1.2,2.3-3.7,6-6.9,4.9c-2.1-0.7-3.6-3.3-3.3-4.9c0.2-1.2-0.6-2.3-1.7-2.5c-1.2-0.2-2.3,0.6-2.5,1.7
				C322.4,193.5,325.3,198,329.3,199.4z"/>
		</g>
	</g>
	<path d="M266.3,187.2c-1.1,1.7-3.2,4.4-7.4,7.5l0,0l0,0c-6.2,5.3-14.2,7.4-22,7.4c-3.9,0-7.4-0.6-10.7-1.9l41.2-41.2
		c-9.1-13-20.4-18.9-36.2-18.9c-21.6,0-39.5,18.7-39.5,40.1c0,1.3,0.1,2.5,0.2,3.7c-0.2,6.2-3.7,11.7-8.7,14.7
		c-2.5,2.1-5.3,2.4-8.4,2.4c-4.3,0-8.2-2.7-8.2-7.4v-25.1c0-15.4-11.3-28.4-27.4-28.4c-7.6,0-15.4,2.9-20.2,9.3v-7.6H95.5V220H119
		v-46.1c1.6-8,6.2-14.4,14-14.4c6.8,0,10.1,5.4,10.1,11.5v25.7c0,12.8,8.8,25.1,22.6,25.1c0.4,0,0.8,0,1.2,0c0.2,0,0.3,0.1,0.5,0.1
		h14.2c1.1,0,2.1-0.1,3.2-0.3c8.1-1.8,12.3-8.2,16.3-14.5c8.4,8.5,22.4,14.8,35.9,14.8c6.3,0,14-1.2,20.1-3.7
		c0.5-0.1,1.2-0.4,1.9-0.8c6.3-3.5,11.5-8.9,13.5-11.1C269.4,200.2,267.4,193.9,266.3,187.2z M212.3,180.3
		c0-10.7,6.2-20.4,17.7-20.4c2.7,0,7,0.6,9.1,2.7L214,188.7C213,186.2,212.3,183.3,212.3,180.3z"/>
	<path d="M716.6,200.9c-4.5,0-8.2-2.7-8.2-7.4v-51.9h-23.5v9.1c-6.2-7.4-14.6-10.7-24.3-10.7c-23,0-37.9,18.7-37.9,40.7
		c0,1,0,2.1,0.1,3.1h-0.1c-0.5,2.9-1.7,5.8-3.6,8.6c-2.1,2.9-4.7,5.2-7.4,6.6v0.1c-2.4,1.1-5,2-7.7,2c-6,0-10.1-4.5-14.4-9.5
		c-4.5-5.4-9.5-10.9-17.5-12.1c18.3-3.1,26.1-20.8,26.1-37.9h-23.3c0,15-7.6,27.8-23.3,28.6H550v-54.8h-23.5v67
		c-1.6,8-7.4,13.9-15.4,16.8c-2.8,1-5.9,1.6-7.6,1.6c-4.3,0-8.2-2.7-8.2-7.4v-25v-0.1c0-15.4-11.3-28.4-27.4-28.4
		c-6.1,0-12.3,1.8-16.9,5.8c-1.4,0.8-3.2-0.1-3.2-1.8v-2.3h-23.5v2.3v73.9v2.1h1.6c0.2,0.1,0.4,0.1,0.6,0.1h19.1
		c0.2,0,0.4,0,0.6-0.1h1.6v-45.8c0-0.2,0-0.3,0-0.5c1.7-7.9,6.2-14.2,13.9-14.2c6.8,0,10.1,5.4,10.1,11.5v25.6v0.1
		c0,0.1,0,0.3,0,0.4c0,0.5,0,1.1,0.1,1.6c0,0.4,0.1,0.8,0.1,1.3c0,0.2,0.1,0.5,0.1,0.7c0.1,0.5,0.2,1,0.3,1.5c0,0.1,0,0.2,0.1,0.3
		c2,9.1,8.4,17,17.8,18.8c0.4,0.1,0.8,0.1,1.2,0.2c0.2,0,0.4,0.1,0.7,0.1c0.8,0.1,1.6,0.1,2.4,0.1h1.6H510c1.7,0,3.3-0.2,4.9-0.7
		c5.3-1.6,8.8-5.2,11.7-9.4v8.1h23.5v-30.2h2.1c11.3,1,17.3,8.8,23,16.9c4.2,5.8,8.4,11.5,14.8,14c2,0.8,4.3,1.3,6.9,1.3h13.6
		c1.1,0,2.1-0.1,3.2-0.3c8.3-1.8,14.3-6.8,18.2-13.3c6.6,8.3,16.5,13.6,28.8,13.6c11.1,0,20.6-4.5,26.5-14c3.7,8.8,11.7,14,20.2,14
		c6.2,0,13-1.4,17.9-5.1v-18.9C722.8,199.7,719.7,200.9,716.6,200.9z M684.9,188.8c-2.9,7.8-10.5,13.4-18.7,13.4
		c-11.5,0-20.2-10.1-20.2-21.4c0-11.3,8.6-21.4,20.2-21.4c8.4,0,15.8,5.6,18.7,13.4V188.8z"/>
</g>
</svg>
