<svg width="46" height="36" viewBox="0 0 46 36" fill="none" xmlns="http://www.w3.org/2000/svg">
<g opacity="0.38">
<path d="M39.4376 23.9159C38.5297 23.3175 37.4154 22.7397 36.136 22.2238C35.682 22.3682 35.1868 22.4921 34.6916 22.5952C34.3614 22.6571 34.0312 22.6984 33.7011 22.7397C30.9566 25.4428 27.0979 28.146 22.3106 28.8063C21.609 28.9095 20.8868 28.9508 20.1646 28.9508C15.9757 28.9508 11.7455 27.2794 7.53601 23.9571C11.6424 29.8794 16.3884 33.1397 21.6503 33.6762C27.3455 34.254 32.6487 31.5095 36.2805 28.8889C38.4678 27.3206 40.0773 25.7936 40.7995 25.0508C40.4487 24.6587 39.9741 24.2873 39.4376 23.9159ZM35.1868 25.1746C34.5678 25.1746 34.1551 24.7413 34.1551 24.1222C34.1551 23.5444 34.609 23.0698 35.1662 23.0698C35.7439 23.0492 36.136 23.6063 36.1566 24.1428C36.1773 24.7 35.7027 25.1746 35.1868 25.1746Z" fill="#EE3D96"/>
<path d="M39.5201 11.3698C37.9725 10.8127 36.3836 10.4413 34.7535 10.2556C34.1138 10.7921 33.4122 11.3492 32.6074 11.927C34.6503 13.0206 36.5693 14.3 38.3027 15.7032C38.5916 15.9508 38.6741 16.3635 38.4884 16.673C38.3852 16.8381 37.4154 18.5095 35.7027 20.573C35.8678 20.6349 36.0122 20.6968 36.1566 20.7381C37.9312 20.0778 39.4582 19.0254 40.6757 17.8905C42.4297 16.2809 43.5852 14.527 44.1011 13.681C42.6979 12.7317 41.1503 11.9476 39.5201 11.3698ZM38.6122 13.8667C37.9932 13.8667 37.5805 13.4333 37.5805 12.8143C37.5805 12.2365 38.0344 11.7619 38.5916 11.7619C39.1693 11.7413 39.5614 12.2984 39.582 12.8349C39.6027 13.3921 39.1281 13.8667 38.6122 13.8667Z" fill="#EE3D96"/>
<path d="M13.9947 4.00318C9.64077 5.98413 7.30903 10.1524 6.23601 12.7317C7.04078 12.1746 7.86617 11.6587 8.69157 11.2254C8.52649 10.7302 8.46458 9.69841 9.35189 8.95556C9.51696 8.81111 10.0328 8.37778 16.4709 5.17937C16.8836 4.97302 18.1217 4.35397 19.5868 4.86984C20.8868 5.32381 22.0011 6.52064 22.909 8.43968C22.9503 8.52222 22.9709 8.6254 22.9709 8.72857C24.1471 8.89365 25.3027 9.14127 26.4376 9.45079C26.8709 9.5746 27.2836 9.69841 27.717 9.84286C28.1709 9.9873 28.6043 10.1524 29.0376 10.3175C29.7598 10.6063 30.482 10.8952 31.2043 11.246C31.7408 10.8746 32.2566 10.5032 32.7312 10.1317C33.0201 9.90476 33.2884 9.69841 33.536 9.49206C33.7836 9.28571 34.0312 9.07936 34.2582 8.87301C35.3312 7.94444 36.1154 7.13968 36.5693 6.66508C30.7503 1.6508 21.5678 0.577779 13.9947 4.00318ZM25.4884 5.77778C25.4884 5.2 25.9424 4.7254 26.4995 4.7254C27.0773 4.70476 27.4693 5.26191 27.49 5.79841C27.5106 6.35556 27.0566 6.83016 26.5201 6.83016C25.9217 6.83016 25.4884 6.39683 25.4884 5.77778Z" fill="#EE3D96"/>
<path d="M19.0916 6.33492C18.3281 6.06667 17.6678 6.33492 17.1725 6.58254C12.5709 8.87302 10.6313 9.94603 10.363 10.173C10.2186 10.2968 10.1567 10.4206 10.1567 10.5444C13.8503 8.87302 17.6059 8.29524 21.2582 8.56349C20.5773 7.3254 19.8551 6.60318 19.0916 6.33492Z" fill="#FFDA00"/>
<path d="M31.1836 12.8968C30.936 12.773 30.709 12.6492 30.4614 12.546C30.2138 12.4222 29.9662 12.3191 29.6979 12.1952C28.5217 11.6794 27.3455 11.2667 26.1693 10.9365C25.7566 10.8127 25.3646 10.7095 24.9519 10.627C24.5598 10.5238 24.1678 10.4619 23.7551 10.3794C23.2598 10.2968 22.7852 10.2143 22.29 10.1524C16.4709 9.4508 11.0852 10.9571 6.23601 14.6302C6.02967 14.7952 5.82331 14.9603 5.59633 15.1254C5.49316 15.2079 5.38998 15.2905 5.28681 15.373C5.163 15.4762 5.03919 15.5175 4.89474 15.5381C4.91538 15.5587 4.91538 15.5794 4.93601 15.6C5.67887 16.7762 5.5757 17.8698 5.43125 18.4683C5.32808 18.9016 5.14236 19.3143 4.89474 19.7063C5.05982 19.727 5.20427 19.7889 5.34871 19.9127C5.43125 19.9952 5.49316 20.0571 5.5757 20.1397C5.74078 20.3048 5.90586 20.4698 6.07093 20.6143C6.23601 20.7794 6.42173 20.9444 6.58681 21.0889C11.8074 25.8556 17.0281 27.9397 22.1043 27.2381C25.7979 26.7429 28.9344 24.8238 31.39 22.6984C31.6376 22.4921 31.8852 22.2651 32.1122 22.0587C32.3598 21.8317 32.6074 21.6048 32.8344 21.3778C32.917 21.2952 32.9995 21.2127 33.082 21.1302C33.2678 20.9444 33.4328 20.7587 33.6185 20.573C33.8043 20.3873 33.9693 20.2016 34.1344 19.9952C35.4551 18.4889 36.363 17.1683 36.8376 16.446C35.0217 15.0635 33.1233 13.8667 31.1836 12.8968ZM20.7424 15.9095C20.6392 15.9302 20.5154 15.9508 20.4122 15.9714C20.536 15.9302 20.6392 15.9095 20.7424 15.9095ZM22.3725 22.8429C21.3201 24.8032 20.1233 25.2365 19.2773 25.2365C18.9471 25.2365 18.6582 25.1746 18.4725 25.0921C17.1932 24.6587 16.2646 23.173 16.4709 21.9349C16.5328 21.5635 16.8836 21.3159 17.2757 21.3778C17.6471 21.4397 17.9154 21.7905 17.8328 22.1825C17.7503 22.6984 18.2249 23.5444 18.9265 23.7921C19.9376 24.1429 20.763 22.946 21.1551 22.1825C21.3408 21.8524 21.7535 21.7079 22.0836 21.8937C22.4138 22.0794 22.5376 22.4921 22.3725 22.8429ZM30.0693 17.3127C29.1614 17.3127 28.5217 16.673 28.5217 15.7444C28.5217 14.8778 29.2027 14.1762 30.0281 14.1556C30.8741 14.1349 31.4932 14.9603 31.5138 15.7651C31.5344 16.6111 30.8535 17.3127 30.0693 17.3127Z" fill="#FFDA00"/>
<path d="M45.6281 13.8048C45.7725 13.4952 45.69 13.1444 45.4217 12.9381C43.4408 11.473 41.1503 10.3794 38.736 9.67778C38.3646 8.97619 37.9519 8.31587 37.4979 7.67619C37.8693 7.28413 38.0757 7.03651 38.0963 6.99524C38.3233 6.70635 38.3027 6.29365 38.0344 6.04603C35.5995 3.79683 32.5868 2.22857 29.3678 1.36191C27.1805 0.495239 24.7662 0 22.2487 0C13.1281 0 5.55506 6.29365 4.06935 14.5476C3.49157 14.0317 2.68681 13.5159 1.59316 13.0619L0.891571 14.7127C3.01697 15.6206 4.02808 16.7968 3.71855 18.0556C3.42967 19.2317 2.1503 20.0984 1.263 20.0365L1.11855 21.8111C1.20109 21.8111 1.28363 21.8111 1.36617 21.8111C2.31538 21.8111 3.30586 21.3571 4.08998 20.6762C4.08998 20.6968 4.11062 20.7381 4.11062 20.7587C5.67887 28.7238 12.9217 34.8111 21.7122 35.0381C22.2074 35.0794 22.682 35.1 23.1979 35.1C27.3455 35.1 31.782 33.5936 36.1566 30.6635C39.8709 28.1873 42.2027 25.6079 42.2852 25.4841C42.5122 25.2365 42.5122 24.8651 42.3059 24.5968C41.7281 23.8746 40.9027 23.1936 39.9122 22.554C40.1805 21.6667 40.3868 20.7587 40.5312 19.8302C43.7916 17.3333 45.5249 14.0111 45.6281 13.8048ZM13.9947 4.00317C21.5678 0.577778 30.7297 1.65079 36.59 6.60317C36.136 7.07778 35.3519 7.88254 34.2789 8.81111C34.0519 9.01746 33.8043 9.22381 33.5566 9.43016C33.309 9.63651 33.0201 9.86349 32.7519 10.0698C32.2773 10.4413 31.7614 10.8127 31.2249 11.1841C30.5233 10.854 29.8011 10.5444 29.0582 10.2556C28.6249 10.0905 28.1709 9.9254 27.7376 9.78095C27.3249 9.63651 26.8916 9.5127 26.4582 9.38889C25.3233 9.07936 24.1678 8.83174 22.9916 8.66667C22.9916 8.56349 22.9709 8.48095 22.9297 8.37778C22.0217 6.45873 20.8868 5.2619 19.6074 4.80794C18.1424 4.3127 16.9043 4.93175 16.4916 5.11746C10.0741 8.31587 9.55824 8.74921 9.37252 8.89365C8.48522 9.63651 8.52649 10.6476 8.7122 11.1635C7.88681 11.5968 7.08205 12.1127 6.25665 12.6698C7.32966 10.1524 9.64077 5.98413 13.9947 4.00317ZM21.2376 8.52222C17.5852 8.2746 13.8297 8.83175 10.136 10.5032C10.1566 10.4 10.1979 10.2556 10.3424 10.1317C10.6106 9.90476 12.5503 8.85238 17.1519 6.54127C17.6471 6.29365 18.3074 6.04603 19.0709 6.29365C19.8551 6.60317 20.5773 7.3254 21.2376 8.52222ZM5.36935 19.9333C5.24554 19.8095 5.08046 19.7476 4.91538 19.727C5.163 19.3349 5.34871 18.9222 5.45189 18.4889C5.59633 17.8905 5.69951 16.7968 4.95665 15.6206C4.93601 15.6 4.93601 15.5794 4.91538 15.5587C5.05982 15.5381 5.18363 15.4762 5.30744 15.3936C5.41062 15.3111 5.51379 15.2286 5.61697 15.146C5.82332 14.981 6.02966 14.8159 6.25665 14.6508C11.1059 10.9778 16.5122 9.47143 22.3106 10.173C22.7852 10.2349 23.2805 10.3175 23.7757 10.4C24.1678 10.4825 24.5598 10.5444 24.9725 10.6476C25.3852 10.7508 25.7773 10.854 26.19 10.9571C27.3662 11.2873 28.5424 11.7206 29.7186 12.2159C29.9662 12.319 30.2138 12.4429 30.482 12.5667C30.7297 12.6698 30.9566 12.7936 31.2043 12.9175C33.1439 13.8873 35.0424 15.0841 36.8376 16.4667C36.3836 17.1889 35.4551 18.5302 34.1344 20.0159C33.9693 20.2016 33.8043 20.3873 33.6185 20.5936C33.4535 20.7794 33.2678 20.9651 33.082 21.1508C32.9995 21.2333 32.917 21.3159 32.8344 21.3984C32.6074 21.6254 32.3598 21.8524 32.1122 22.0794C31.8852 22.3063 31.6376 22.5127 31.39 22.719C28.9551 24.8238 25.7979 26.7429 22.1043 27.2587C17.0281 27.9603 11.8281 25.8762 6.58681 21.1095C6.42173 20.9444 6.23601 20.8 6.07093 20.6349C5.90586 20.4698 5.74078 20.3254 5.5757 20.1603C5.51379 20.0778 5.43125 19.9952 5.36935 19.9333ZM40.8201 25.0302C40.0979 25.7524 38.509 27.3 36.3011 28.8682C32.6487 31.4889 27.3455 34.2333 21.6709 33.6555C16.409 33.119 11.6836 29.8587 7.55665 23.9365C11.7662 27.2587 15.9963 28.9302 20.1852 28.9302C20.9074 28.9302 21.609 28.8889 22.3312 28.7857C27.1185 28.1254 30.9773 25.4222 33.7217 22.719C34.0519 22.6778 34.382 22.6365 34.7122 22.5746C35.2074 22.4921 35.682 22.3682 36.1566 22.2032C37.436 22.7397 38.5503 23.2968 39.4582 23.8952C39.9741 24.2873 40.4487 24.6587 40.8201 25.0302ZM36.1773 20.7381C36.0328 20.6762 35.8678 20.6143 35.7233 20.573C37.4566 18.5095 38.4265 16.8381 38.509 16.673C38.6947 16.3429 38.6122 15.9302 38.3233 15.7032C36.59 14.3 34.6709 13.0206 32.6281 11.927C33.4122 11.3492 34.1344 10.7921 34.7741 10.2556C36.3836 10.4619 37.9932 10.8333 39.5408 11.3698C41.1709 11.9476 42.7185 12.7317 44.1217 13.7016C43.6058 14.5476 42.4503 16.281 40.6963 17.9111C39.4582 19.0254 37.9519 20.0984 36.1773 20.7381Z" fill="black"/>
<path d="M20.7424 15.9095C20.6392 15.9095 20.5154 15.9302 20.4122 15.9714C20.536 15.9714 20.6392 15.9508 20.7424 15.9095Z" fill="#FEDA00"/>
<path d="M30.0693 17.3127C30.8535 17.3127 31.5344 16.6111 31.5138 15.7857C31.4932 14.9603 30.8741 14.1556 30.0281 14.1762C29.2027 14.1968 28.5217 14.8984 28.5217 15.7651C28.5217 16.673 29.1614 17.3127 30.0693 17.3127Z" fill="black"/>
<path d="M26.5201 6.83016C27.0566 6.83016 27.5106 6.35555 27.49 5.79841C27.4693 5.2619 27.0773 4.70476 26.4995 4.72539C25.9424 4.74603 25.4884 5.2 25.4884 5.77777C25.4884 6.39682 25.9217 6.83016 26.5201 6.83016Z" fill="black"/>
<path d="M38.5916 11.7619C38.0344 11.7825 37.5805 12.2365 37.5805 12.8143C37.5805 13.4333 37.9932 13.8667 38.6122 13.8667C39.1487 13.8667 39.6027 13.3921 39.582 12.8349C39.5614 12.2984 39.1487 11.7413 38.5916 11.7619Z" fill="black"/>
<path d="M35.1662 23.0698C34.609 23.0905 34.1551 23.5444 34.1551 24.1222C34.1551 24.7413 34.5678 25.1746 35.1868 25.1746C35.7233 25.1746 36.1773 24.7 36.1566 24.1429C36.136 23.6063 35.7233 23.0698 35.1662 23.0698Z" fill="black"/>
<path d="M18.4725 25.0921C18.6582 25.154 18.9471 25.2365 19.2773 25.2365C20.1233 25.2365 21.3201 24.8032 22.3725 22.8428C22.5582 22.5127 22.4344 22.0794 22.0836 21.9143C21.7535 21.7286 21.3201 21.8524 21.1551 22.2032C20.763 22.946 19.9376 24.1429 18.9265 23.8127C18.2249 23.5651 17.7503 22.7397 17.8328 22.2032C17.8947 21.8317 17.6471 21.4603 17.2757 21.3984C16.9043 21.3365 16.5328 21.5841 16.4709 21.9555C16.2439 23.1936 17.1932 24.6587 18.4725 25.0921Z" fill="black"/>
</g>
</svg>
