<svg width="399" height="329" viewBox="0 0 399 329" fill="none" xmlns="http://www.w3.org/2000/svg">
<path d="M36.6984 266.704L35.0317 268.37C33.7215 269.681 33 271.423 33 273.275C33 275.128 33.7215 276.87 35.0317 278.18L71.8511 315H95.0317C98.8567 315 101.969 311.888 101.969 308.063V306.027L76.0391 306.044L36.6984 266.704Z" fill="#F2F2FC"/>
<path d="M58.9866 288.992L52.4147 295.564L71.8511 315H95.0317C98.8566 315 101.969 311.888 101.969 308.063V306.027L76.039 306.044L58.9866 288.992Z" fill="#DCDCFF"/>
<path d="M97.9571 295.75C95.3703 292.941 91.8498 291.221 88.0499 290.908L84.1589 290.576L82.3724 286.58C81.431 284.475 81.1547 282.163 81.5732 279.895C81.9917 277.627 83.075 275.566 84.7059 273.935L90.9831 267.658L80.0137 256.689L72.4041 264.298C72.1177 264.584 71.7371 264.742 71.3321 264.742C70.9271 264.742 70.5464 264.584 70.2601 264.298L62.0525 256.09V294.916L75.2022 308.066L101.968 308.047V306.027C101.969 302.209 100.544 298.559 97.9571 295.75V295.75Z" fill="#FF6C6C"/>
<path d="M88.05 290.908L84.159 290.576L82.3725 286.58C81.4311 284.475 81.1547 282.163 81.5732 279.895C81.9917 277.627 83.075 275.566 84.7059 273.935L90.9831 267.658L85.6519 262.327L62.0527 285.926V294.916L75.2024 308.066L101.969 308.047V306.027C101.969 302.209 100.544 298.559 97.9572 295.75C95.3703 292.941 91.8498 291.221 88.05 290.908V290.908Z" fill="#EE3D96"/>
<path d="M73.8907 280.515H81.4782C81.5047 280.308 81.535 280.101 81.5731 279.895C81.7967 278.683 82.2117 277.532 82.7968 276.472H73.8907V280.515Z" fill="#FF3943"/>
<path d="M75.7645 289.086H83.4927L82.3723 286.58C82.1481 286.079 81.9627 285.565 81.8144 285.044H75.7643V289.086H75.7645Z" fill="#FF3943"/>
<path d="M35.2692 268.133L54.7475 287.611V248.655L35.2692 268.133Z" fill="#E31414"/>
<path d="M63.6145 257.652C63.3282 257.366 63.1705 256.985 63.1705 256.58C63.1705 256.175 63.3282 255.795 63.6122 255.511L63.6347 255.488C65.8017 253.321 65.8017 249.795 63.6346 247.628C62.5848 246.578 61.1891 246 59.7044 246C58.2198 246 56.8241 246.578 55.7743 247.628L50.7054 252.697V283.569L66.0949 298.958V260.133L63.6145 257.652Z" fill="#FEDA00"/>
<path d="M66.0949 281.884L57.5576 290.421L66.0949 298.958V281.884Z" fill="#E31414"/>
<path d="M73.8908 280.515H81.4782C81.5048 280.308 81.5351 280.101 81.5732 279.895C81.7967 278.683 82.2117 277.532 82.7969 276.472H73.8908V280.515Z" fill="#E31414"/>
<path d="M75.7645 289.086H83.4927L82.3723 286.58C82.1481 286.079 81.9627 285.565 81.8144 285.044H75.7643V289.086H75.7645Z" fill="#E31414"/>
<path d="M154 169.911C152.8 169.311 151.7 168.711 150.5 168.211C149.3 167.611 148.1 167.111 146.8 166.511C141.1 164.011 135.4 162.011 129.7 160.411C127.7 159.811 125.8 159.311 123.8 158.911C121.9 158.411 120 158.111 118 157.711C115.6 157.311 113.3 156.911 110.9 156.611C82.7 153.211 56.6 160.511 33.1 178.311C32.1 179.111 31.1 179.911 30 180.711C29.5 181.111 29 181.511 28.5 181.911C27.9 182.411 27.3 182.611 26.6 182.711C26.7 182.811 26.7 182.911 26.8 183.011C30.4 188.711 29.9 194.011 29.2 196.911C28.7 199.011 27.8 201.011 26.6 202.911C27.4 203.011 28.1 203.311 28.8 203.911C29.2 204.311 29.5 204.611 29.9 205.011C30.7 205.811 31.5 206.611 32.3 207.311C33.1 208.111 34 208.911 34.8 209.611C60.1 232.711 85.4 242.811 110 239.411C127.9 237.011 143.1 227.711 155 217.411C156.2 216.411 157.4 215.311 158.5 214.311C159.7 213.211 160.9 212.111 162 211.011C162.4 210.611 162.8 210.211 163.2 209.811C164.1 208.911 164.9 208.011 165.8 207.111C166.7 206.211 167.5 205.311 168.3 204.311C174.7 197.011 179.1 190.611 181.4 187.111C172.6 180.411 163.4 174.611 154 169.911ZM103.4 184.511C102.9 184.611 102.3 184.711 101.8 184.811C102.4 184.611 102.9 184.511 103.4 184.511ZM111.3 218.111C106.2 227.611 100.4 229.711 96.3 229.711C94.7 229.711 93.3 229.411 92.4 229.011C86.2 226.911 81.7 219.711 82.7 213.711C83 211.911 84.7 210.711 86.6 211.011C88.4 211.311 89.7 213.011 89.3 214.911C88.9 217.411 91.2 221.511 94.6 222.711C99.5 224.411 103.5 218.611 105.4 214.911C106.3 213.311 108.3 212.611 109.9 213.511C111.5 214.411 112.1 216.411 111.3 218.111ZM148.6 191.311C144.2 191.311 141.1 188.211 141.1 183.711C141.1 179.511 144.4 176.111 148.4 176.011C152.5 175.911 155.5 179.911 155.6 183.811C155.7 187.911 152.4 191.311 148.6 191.311Z" fill="#FFDA00"/>
<rect x="129.6" y="175.8" width="28" height="27" fill="#FEDA00"/>
<rect x="75.6" y="202.8" width="28" height="27" fill="#FEDA00"/>
<rect x="89.6" y="202.8" width="28" height="27" fill="#FEDA00"/>
<path d="M193.8 223.9C189.4 221 184 218.2 177.8 215.7C175.6 216.4 173.2 217 170.8 217.5C169.2 217.8 167.6 218 166 218.2C152.7 231.3 134 244.4 110.8 247.6C107.4 248.1 103.9 248.3 100.4 248.3C80.1 248.3 59.6 240.2 39.2 224.1C59.1 252.8 82.1 268.6 107.6 271.2C135.2 274 160.9 260.7 178.5 248C189.1 240.4 196.9 233 200.4 229.4C198.7 227.5 196.4 225.7 193.8 223.9ZM173.2 230C170.2 230 168.2 227.9 168.2 224.9C168.2 222.1 170.4 219.8 173.1 219.8C175.9 219.7 177.8 222.4 177.9 225C178 227.7 175.7 230 173.2 230Z" fill="#EE3D96"/>
<path d="M194.2 163.1C186.7 160.4 179 158.6 171.1 157.7C168 160.3 164.6 163 160.7 165.8C170.6 171.1 179.9 177.3 188.3 184.1C189.7 185.3 190.1 187.3 189.2 188.8C188.7 189.6 184 197.7 175.7 207.7C176.5 208 177.2 208.3 177.9 208.5C186.5 205.3 193.9 200.2 199.8 194.7C208.3 186.9 213.9 178.4 216.4 174.3C209.6 169.7 202.1 165.9 194.2 163.1ZM189.8 175.2C186.8 175.2 184.8 173.1 184.8 170.1C184.8 167.3 187 165 189.7 165C192.5 164.9 194.4 167.6 194.5 170.2C194.6 172.9 192.3 175.2 189.8 175.2Z" fill="#EE3D96"/>
<path d="M70.5 127.4C49.4 137 38.1 157.2 32.9 169.7C36.8 167 40.8 164.5 44.8 162.4C44 160 43.7 155 48 151.4C48.8 150.7 51.3 148.6 82.5 133.1C84.5 132.1 90.5 129.1 97.6 131.6C103.9 133.8 109.3 139.6 113.7 148.9C113.9 149.3 114 149.8 114 150.3C119.7 151.1 125.3 152.3 130.8 153.8C132.9 154.4 134.9 155 137 155.7C139.2 156.4 141.3 157.2 143.4 158C146.9 159.4 150.4 160.8 153.9 162.5C156.5 160.7 159 158.9 161.3 157.1C162.7 156 164 155 165.2 154C166.4 153 167.6 152 168.7 151C173.9 146.5 177.7 142.6 179.9 140.3C151.7 116 107.2 110.8 70.5 127.4ZM126.2 136C126.2 133.2 128.4 130.9 131.1 130.9C133.9 130.8 135.8 133.5 135.9 136.1C136 138.8 133.8 141.1 131.2 141.1C128.3 141.1 126.2 139 126.2 136Z" fill="#EE3D96"/>
<path d="M95.2 138.7C91.5 137.4 88.3 138.7 85.9 139.9C63.6 151 54.2 156.2 52.9 157.3C52.2 157.9 51.9 158.5 51.9 159.1C69.8 151 88 148.2 105.7 149.5C102.4 143.5 98.9 140 95.2 138.7Z" fill="#FFDA00"/>
<path d="M157.501 165.502C163.023 165.502 167.5 169.979 167.5 175.501C167.5 181.023 163.023 185.5 157.501 185.5L157.288 185.5C151.766 185.5 147.289 181.023 147.289 175.501C147.289 169.979 151.766 165.502 157.288 165.502L157.501 165.502Z" fill="#FEDA00"/>
<ellipse cx="188.5" cy="170" rx="6.5" ry="8" fill="#EE3D96"/>
<path d="M194.9 171.003C192.2 171.103 190 173.303 190 176.103C190 179.103 192 181.203 195 181.203C197.6 181.203 199.8 178.903 199.7 176.203C199.6 173.603 197.6 170.903 194.9 171.003Z" fill="black"/>
<path d="M173.1 219.8C170.4 219.9 168.2 222.1 168.2 224.9C168.2 227.9 170.2 230 173.2 230C175.8 230 178 227.7 177.9 225C177.8 222.4 175.8 219.8 173.1 219.8Z" fill="black"/>
<rect x="179.916" y="203.953" width="15.9599" height="13" rx="6.5" transform="rotate(93.5251 179.916 203.953)" fill="#EE3D96"/>
<path d="M131.2 141.1C133.8 141.1 136 138.8 135.9 136.1C135.8 133.5 133.9 130.8 131.1 130.9C128.4 131 126.2 133.2 126.2 136C126.2 139 128.3 141.1 131.2 141.1Z" fill="black"/>
<rect x="200.702" y="157.442" width="13.2711" height="11" rx="5.5" transform="rotate(94.3303 200.702 157.442)" fill="#EE3D96"/>
<path d="M155.897 190C154.325 190 152.96 191.342 153.001 192.921C153.042 194.499 154.283 196.039 155.98 195.999C157.635 195.96 159 194.618 159 192.96C159 191.224 157.717 190 155.897 190Z" stroke="#010101" stroke-width="6"/>
<rect x="146" y="169" width="20" height="18" rx="9" fill="#FEDA00"/>
<rect x="137.557" y="114.485" width="15.1723" height="13" rx="6.5" transform="rotate(92.1361 137.557 114.485)" fill="#EE3D96"/>
<path d="M223.8 174.9C224.5 173.4 224.1 171.7 222.8 170.7C213.2 163.6 202.1 158.3 190.4 154.9C188.6 151.5 186.6 148.3 184.4 145.2C186.2 143.3 187.2 142.1 187.3 141.9C188.4 140.5 188.3 138.5 187 137.3C175.2 126.4 160.6 118.8 145 114.6C134.4 110.4 122.7 108 110.5 108C66.3 108 29.6 138.5 22.4 178.5C19.6 176 15.7 173.5 10.4 171.3L7 179.3C17.3 183.7 22.2 189.4 20.7 195.5C19.3 201.2 13.1 205.4 8.8 205.1L8.1 213.7C8.5 213.7 8.9 213.7 9.3 213.7C13.9 213.7 18.7 211.5 22.5 208.2C22.5 208.3 22.6 208.5 22.6 208.6C30.2 247.2 65.3 276.7 107.9 277.8C110.3 278 112.6 278.1 115.1 278.1C135.2 278.1 156.7 270.8 177.9 256.6C195.9 244.6 207.2 232.1 207.6 231.5C208.7 230.3 208.7 228.5 207.7 227.2C204.9 223.7 200.9 220.4 196.1 217.3C197.4 213 198.4 208.6 199.1 204.1C214.9 192 223.3 175.9 223.8 174.9ZM70.5 127.4C107.2 110.8 151.6 116 180 140C177.8 142.3 174 146.2 168.8 150.7C167.7 151.7 166.5 152.7 165.3 153.7C164.1 154.7 162.7 155.8 161.4 156.8C159.1 158.6 156.6 160.4 154 162.2C150.6 160.6 147.1 159.1 143.5 157.7C141.4 156.9 139.2 156.1 137.1 155.4C135.1 154.7 133 154.1 130.9 153.5C125.4 152 119.8 150.8 114.1 150C114.1 149.5 114 149.1 113.8 148.6C109.4 139.3 103.9 133.5 97.7 131.3C90.6 128.9 84.6 131.9 82.6 132.8C51.5 148.3 49 150.4 48.1 151.1C43.8 154.7 44 159.6 44.9 162.1C40.9 164.2 37 166.7 33 169.4C38.2 157.2 49.4 137 70.5 127.4ZM105.6 149.3C87.9 148.1 69.7 150.8 51.8 158.9C51.9 158.4 52.1 157.7 52.8 157.1C54.1 156 63.5 150.9 85.8 139.7C88.2 138.5 91.4 137.3 95.1 138.5C98.9 140 102.4 143.5 105.6 149.3ZM28.7 204.6C28.1 204 27.3 203.7 26.5 203.6C27.7 201.7 28.6 199.7 29.1 197.6C29.8 194.7 30.3 189.4 26.7 183.7C26.6 183.6 26.6 183.5 26.5 183.4C27.2 183.3 27.8 183 28.4 182.6C28.9 182.2 29.4 181.8 29.9 181.4C30.9 180.6 31.9 179.8 33 179C56.5 161.2 82.7 153.9 110.8 157.3C113.1 157.6 115.5 158 117.9 158.4C119.8 158.8 121.7 159.1 123.7 159.6C125.7 160.1 127.6 160.6 129.6 161.1C135.3 162.7 141 164.8 146.7 167.2C147.9 167.7 149.1 168.3 150.4 168.9C151.6 169.4 152.7 170 153.9 170.6C163.3 175.3 172.5 181.1 181.2 187.8C179 191.3 174.5 197.8 168.1 205C167.3 205.9 166.5 206.8 165.6 207.8C164.8 208.7 163.9 209.6 163 210.5C162.6 210.9 162.2 211.3 161.8 211.7C160.7 212.8 159.5 213.9 158.3 215C157.2 216.1 156 217.1 154.8 218.1C143 228.3 127.7 237.6 109.8 240.1C85.2 243.5 60 233.4 34.6 210.3C33.8 209.5 32.9 208.8 32.1 208C31.3 207.2 30.5 206.5 29.7 205.7C29.4 205.3 29 204.9 28.7 204.6ZM200.5 229.3C197 232.8 189.3 240.3 178.6 247.9C160.9 260.6 135.2 273.9 107.7 271.1C82.2 268.5 59.3 252.7 39.3 224C59.7 240.1 80.2 248.2 100.5 248.2C104 248.2 107.4 248 110.9 247.5C134.1 244.3 152.8 231.2 166.1 218.1C167.7 217.9 169.3 217.7 170.9 217.4C173.3 217 175.6 216.4 177.9 215.6C184.1 218.2 189.5 220.9 193.9 223.8C196.4 225.7 198.7 227.5 200.5 229.3ZM178 208.5C177.3 208.2 176.5 207.9 175.8 207.7C184.2 197.7 188.9 189.6 189.3 188.8C190.2 187.2 189.8 185.2 188.4 184.1C180 177.3 170.7 171.1 160.8 165.8C164.6 163 168.1 160.3 171.2 157.7C179 158.7 186.8 160.5 194.3 163.1C202.2 165.9 209.7 169.7 216.5 174.4C214 178.5 208.4 186.9 199.9 194.8C193.9 200.2 186.6 205.4 178 208.5Z" fill="black"/>
<path d="M103.2 185.1C102.7 185.1 102.1 185.2 101.6 185.4C102.2 185.4 102.7 185.3 103.2 185.1Z" fill="#FEDA00"/>
<g filter="url(#filter0_d)">
<path d="M92.2 229.6C93.1 229.9 94.5 230.3 96.1 230.3C100.2 230.3 106 228.2 111.1 218.7C112 217.1 111.4 215 109.7 214.2C108.1 213.3 106 213.9 105.2 215.6C103.3 219.2 99.3 225 94.4 223.4C91 222.2 88.7 218.2 89.1 215.6C89.4 213.8 88.2 212 86.4 211.7C84.6 211.4 82.8 212.6 82.5 214.4C81.4 220.4 86 227.5 92.2 229.6Z" fill="black"/>
<path d="M110.664 218.455L110.664 218.455L110.659 218.463C105.63 227.832 99.9834 229.8 96.1 229.8C94.5799 229.8 93.2399 229.42 92.3591 229.126C89.3821 228.117 86.7686 225.899 85.0334 223.193C83.2967 220.484 82.4699 217.337 82.9918 214.49L82.9919 214.49L82.9932 214.482C83.2447 212.973 84.7712 211.935 86.3178 212.193C87.8268 212.445 88.8646 213.971 88.6068 215.518L88.6068 215.518L88.6058 215.524C88.381 216.985 88.9149 218.759 89.9047 220.296C90.9004 221.842 92.4067 223.227 94.2336 223.872L94.2336 223.872L94.2448 223.875C96.9435 224.756 99.353 223.574 101.263 221.818C103.175 220.062 104.682 217.653 105.642 215.833L105.648 215.823L105.652 215.813C106.323 214.389 108.095 213.871 109.455 214.636L109.471 214.645L109.487 214.652C110.911 215.323 111.429 217.095 110.664 218.455Z" stroke="black"/>
</g>
<g clip-path="url(#clip0)">
<path d="M126.382 96.0569C126.382 96.0569 113.818 78.2613 90.4808 77.6962C90.4808 77.6962 78.1562 69.2572 56.0634 85.7372C56.0634 85.7372 50.588 93.4303 50.4131 96.6474C50.4131 96.6474 40.2563 102.624 45.0368 115.163C45.0368 115.163 44.121 119.191 47.7627 126.91L52.5523 144.526L63.049 147.705L62.3419 144.473C62.3419 144.473 65.6517 129.722 64.7119 125.88C64.7119 125.88 66.2111 123.382 67.7853 127.511L68.0929 134.748L125.825 107.459L126.382 96.0569Z" fill="#E31414"/>
<path d="M55.9977 112.552C54.7964 104.162 54.4701 95.6471 55.069 87.1771C53.9342 88.8906 52.0893 91.822 51.1031 94.1954C52.1996 100.44 53.8489 106.581 55.9977 112.552Z" fill="#B90909"/>
<path d="M72.0658 87.0442C71.3732 87.2657 70.8898 87.7658 70.5433 88.4017C71.0378 87.9399 71.5611 87.4885 72.0658 87.0442Z" fill="#B90909"/>
<path d="M64.7253 125.85C64.8885 125.617 66.2777 123.64 67.7583 127.468C68.1661 126.053 68.3871 124.539 68.7495 123.117C69.7485 119.12 72.0541 115.573 74.3054 112.107C78.6133 105.484 83.0726 98.7175 89.3597 93.9258C85.8021 95.0728 82.883 97.6154 80.1186 100.117C74.646 105.063 69.1216 110.469 66.9452 117.5C65.5786 113.859 66.2638 109.813 66.9712 105.991C67.8963 100.973 68.8203 95.9521 69.7454 90.9339C69.901 90.0764 70.1282 89.1276 70.5464 88.4005C68.1918 90.4974 66.0198 92.7942 64.7317 95.6411C63.0207 99.4262 63.0861 103.73 63.2815 107.881C63.5645 113.871 64.0478 119.885 64.7253 125.85Z" fill="#B90909"/>
<path d="M144.559 112.607C143.648 110.218 144.715 112.951 144.355 111.943C145.466 114.595 139.769 99.8192 136.887 99.1295C134.625 98.1082 131.227 93.6915 130.646 96.1022C129.172 95.5962 128.916 97.2691 127.66 95.864C126.906 95.7754 125.863 94.4735 125.957 96.247C125.31 96.0751 125.315 97.716 124.388 97.5655C124.061 98.9885 122.824 98.6655 121.804 100.13C122.213 101.204 120.8 99.0327 120.464 100.47C120.066 101.75 118.733 101.364 117.438 101.13C115.965 100.429 114.655 100.215 114.213 101.576C113.863 102.557 113.054 103.079 111.671 102.364C110.362 101.834 109.428 102.556 108.84 103.937C108.382 105.665 107.525 106.109 106.538 105.481C106.25 106.691 105.359 105.572 105.589 106.176C105.606 106.22 105.693 107.194 104.885 106.413C104.345 106.338 103.991 107.325 103 107.082C102.648 108.511 101.214 107.532 100.279 108.123C98.8706 107.482 97.4513 107.072 97.0613 109.474C95.5954 109.053 94.5277 109.78 93.694 111.073C92.3949 111.146 91.3589 111.854 90.5163 112.863C89.3543 113.026 89.0234 115.164 87.8747 114.775C86.6721 114.254 85.6355 113.787 86.11 116.753C85.8927 116.183 86.1404 117.643 85.4257 117.22C85.0583 117.708 84.1365 117.374 83.5924 118.497C82.7189 118.756 81.8907 119.589 80.9399 120.399C79.3946 119.64 78.9484 122.052 77.8036 122.744C76.8136 123.842 76.1242 125.84 74.5124 125.344C72.8054 124.607 72.2723 126.875 71.3973 128.014C71.0892 130.64 69.3808 129.351 68.7895 130.573C68.04 131.38 67.1375 131.377 67.0221 132.833C67.0327 132.861 67.1445 134.652 67.0873 134.763C67.0207 135.072 67.5622 137.023 67.3399 136.951C67.3588 139.076 70.14 147.581 72.5465 150.431C72.543 150.422 72.4631 149.803 73.1458 150.756C73.4978 150.842 73.6829 150.062 74.8005 151.3C75.6654 151.875 76.2043 151.148 77.2855 151.406C78.6951 152.526 79.4628 151.506 80.3768 150.423C81.2885 149.334 82.4094 148.328 83.8505 147.697C83.2919 146.232 83.7648 147.212 84.0715 147.513C84.5316 148.218 84.2098 146.62 84.7259 146.987C84.3409 144.991 85.5391 146.915 85.7953 146.154C86.0806 145.46 86.8351 145.782 87.27 145.052C88.4771 146.348 88.3483 143.935 89.1313 143.718C89.4667 142.327 89.9576 141.14 91.3672 142.185C92.3079 142 92.5311 139.747 93.9615 140.493C94.5782 139.105 96.4087 140.724 96.9019 138.677C98.1852 138.702 98.8374 136.913 100.171 136.774C101.209 135.846 102.744 136.087 103.759 134.821C105.101 134.415 106.548 134.151 107.646 132.853C108.974 132.158 110.039 130.645 111.822 130.909C113.059 129.742 114.732 129.608 116.269 129.026C117.599 127.898 119.302 127.646 120.976 127.235C123.499 125.468 126.151 125.063 128.379 124.459C130.618 123.882 132.296 122.746 133.871 122.123C135.309 121.139 136.57 120.474 137.739 120.216C139.346 121.111 139.516 118.886 140.266 118.713C140.901 118.237 140.985 116.839 141.736 117.589C142.126 117.394 141.973 116.164 142.434 116.815C142.538 116.528 142.781 116.878 142.644 116.37C142.936 116.986 143.274 117.865 142.65 116.226C143.391 118.171 143.365 116.464 143.622 115.249C144.306 115.137 145.415 115.885 144.559 112.607Z" fill="#DAE5EF"/>
<path d="M46.7828 149.94C45.6981 155.303 50.2661 161.115 55.6288 162.199C60.9916 163.284 66.2174 159.812 67.302 154.449C68.3867 149.087 64.915 143.861 59.5522 142.776C54.1925 141.69 47.8663 144.574 46.7828 149.94Z" fill="#DAE5EF"/>
<path d="M50.964 159.884C52.3244 161.032 53.9429 161.835 55.6365 162.182C60.9933 163.298 66.2278 159.812 67.3004 154.436C68.3848 149.091 64.93 143.845 59.5541 142.772C59.29 142.731 59.0569 142.678 58.8047 142.667C61.3662 144.919 62.6815 148.463 61.9522 152.04C60.9327 157.183 56.0624 160.601 50.964 159.884Z" fill="#CBD6E0"/>
<path d="M58.4523 143.018C58.3679 142.909 58.3381 142.774 58.3323 142.638C58.3502 142.639 58.3661 142.643 58.3839 142.643L58.4523 143.018Z" fill="#CBD6E0"/>
</g>
<g clip-path="url(#clip1)">
<path d="M114.395 139.136C114.395 139.136 97.6928 123.355 73.4434 127.636C73.4434 127.636 58.9393 121.48 39.5305 143.128C39.5305 143.128 35.4728 152.225 35.9628 155.588C35.9628 155.588 26.7062 163.886 34.2642 175.855C34.2642 175.855 34.1572 180.212 39.5325 187.434L48.1587 204.651L59.6758 205.75L58.2706 202.555C58.2706 202.555 58.6172 186.612 56.8442 182.835C56.8442 182.835 57.8735 179.939 60.3624 183.88L62.1897 191.3L116.198 151.043L114.395 139.136Z" fill="#E31414"/>
<path d="M45.0541 170.87C42.0623 162.444 39.9494 153.708 38.8026 144.824C37.9863 146.833 36.6899 150.249 36.1651 152.909C38.6011 159.138 41.5869 165.143 45.0541 170.87Z" fill="#B90909"/>
<path d="M56.3505 141.143C55.6806 141.516 55.2849 142.134 55.0592 142.864C55.4743 142.283 55.9213 141.707 56.3505 141.143Z" fill="#B90909"/>
<path d="M56.8518 182.801C56.9722 182.526 57.9963 180.192 60.3255 183.842C60.4522 182.293 60.3651 180.682 60.4432 179.135C60.6429 174.795 62.2874 170.646 63.8926 166.593C66.9661 158.845 70.1663 150.918 75.6684 144.653C72.2288 146.58 69.7405 149.818 67.4035 152.981C62.7758 159.237 58.1905 165.979 57.4062 173.703C55.2339 170.224 55.0986 165.896 55.0333 161.798C54.9436 156.416 54.8519 151.031 54.7622 145.649C54.7442 144.73 54.7814 143.701 55.0622 142.862C53.0646 145.521 51.2976 148.349 50.5593 151.562C49.5793 155.833 50.5443 160.269 51.6118 164.521C53.1537 170.656 54.9075 176.774 56.8518 182.801Z" fill="#B90909"/>
<path d="M136.643 152.459C135.203 150.18 136.876 152.783 136.294 151.815C137.995 154.327 129.023 140.235 125.9 140.123C123.347 139.539 118.913 135.68 118.814 138.294C117.185 138.078 117.269 139.861 115.677 138.67C114.879 138.736 113.529 137.607 113.996 139.421C113.291 139.379 113.638 141.074 112.649 141.112C112.608 142.652 111.261 142.576 110.511 144.302C111.159 145.328 109.244 143.377 109.197 144.933C109.052 146.34 107.594 146.219 106.205 146.248C104.535 145.83 103.137 145.881 102.963 147.381C102.806 148.469 102.078 149.176 100.499 148.726C99.0354 148.451 98.2194 149.392 97.8997 150.942C97.786 152.825 96.9931 153.463 95.8408 153.02C95.7957 154.33 94.641 153.36 95.0051 153.936C95.0312 153.978 95.325 154.967 94.326 154.328C93.7527 154.363 93.5917 155.457 92.5168 155.412C92.4502 156.964 90.7633 156.251 89.9196 157.056C88.3299 156.687 86.7769 156.559 86.8744 159.124C85.2709 158.995 84.3183 159.969 83.7259 161.48C82.3978 161.827 81.474 162.774 80.8132 163.994C79.6456 164.404 79.7491 166.684 78.4803 166.521C77.1282 166.234 75.9589 165.967 77.068 168.935C76.7244 168.391 77.285 169.849 76.4578 169.56C76.1795 170.141 75.1568 169.989 74.8283 171.263C73.9789 171.713 73.2965 172.748 72.482 173.783C70.7258 173.32 70.7674 175.908 69.728 176.862C68.9331 178.204 68.6368 180.413 66.8667 180.236C64.948 179.831 64.8696 182.287 64.2024 183.648C64.4313 186.427 62.3958 185.45 62.0393 186.837C61.4327 187.828 60.4987 188.013 60.6829 189.543C60.6997 189.569 61.1889 191.398 61.1528 191.525C61.1484 191.858 62.1151 193.762 61.8703 193.735C62.3331 195.928 66.9824 204.143 70.0652 206.589C70.0596 206.58 69.848 205.956 70.7527 206.8C71.1345 206.815 71.1633 205.97 72.5771 207.017C73.5913 207.431 73.9969 206.567 75.1689 206.608C76.8599 207.472 77.441 206.257 78.1604 204.947C78.8761 203.631 79.8254 202.357 81.184 201.404C80.3009 200.005 80.9942 200.92 81.3742 201.168C81.9969 201.8 81.3309 200.215 81.9412 200.487C81.1269 198.504 82.7671 200.243 82.8733 199.403C83.0235 198.625 83.871 198.801 84.1684 197.956C85.687 199.044 85.0506 196.576 85.815 196.188C85.8718 194.68 86.1318 193.35 87.8072 194.136C88.7414 193.749 88.5025 191.373 90.1372 191.846C90.4854 190.282 92.7159 191.574 92.799 189.355C94.1313 189.113 94.4327 187.128 95.783 186.705C96.6621 185.53 98.3005 185.459 99.0853 183.938C100.389 183.239 101.83 182.664 102.694 181.092C103.923 180.097 104.709 178.31 106.607 178.212C107.643 176.747 109.345 176.26 110.814 175.337C111.954 173.893 113.662 173.278 115.307 172.504C117.547 170.15 120.205 169.179 122.383 168.089C124.578 167.026 126.076 165.501 127.576 164.529C128.857 163.211 130.023 162.26 131.177 161.75C133.026 162.34 132.738 160.004 133.478 159.669C134.035 159.044 133.83 157.581 134.763 158.2C135.126 157.917 134.711 156.677 135.324 157.254C135.37 156.935 135.695 157.247 135.448 156.75C135.878 157.326 136.411 158.164 135.423 156.6C136.596 158.457 136.213 156.697 136.225 155.387C136.909 155.128 138.211 155.671 136.643 152.459Z" fill="#DAE5EF"/>
<path d="M43.3215 211.453C43.3182 217.224 49.2536 222.282 55.0252 222.285C60.7968 222.288 65.4766 217.609 65.48 211.837C65.4833 206.066 60.8037 201.386 55.0321 201.382C49.2634 201.377 43.323 205.678 43.3215 211.453Z" fill="#DAE5EF"/>
<path d="M49.7188 220.864C51.3652 221.768 53.206 222.26 55.0299 222.266C60.8016 222.303 65.4876 217.607 65.4757 211.824C65.4825 206.071 60.8161 201.366 55.0334 201.378C54.7517 201.391 54.4996 201.384 54.2366 201.426C57.355 203.221 59.4539 206.61 59.4458 210.462C59.4639 215.992 55.1405 220.542 49.7188 220.864Z" fill="#CBD6E0"/>
<path d="M53.9452 201.862C53.835 201.766 53.7762 201.634 53.7418 201.494C53.7603 201.491 53.7778 201.492 53.7963 201.489L53.9452 201.862Z" fill="#CBD6E0"/>
</g>
<path d="M105.307 296.99L105.635 299.263C105.892 301.049 106.83 302.628 108.276 303.709C109.721 304.79 111.501 305.243 113.287 304.986L163.486 297.745L177.009 279.663C179.241 276.68 178.629 272.437 175.645 270.206L174.057 269.018L158.944 289.254L105.307 296.99Z" fill="#F2F2FC"/>
<path d="M135.695 292.607L136.987 301.567L163.486 297.745L177.009 279.663C179.241 276.68 178.629 272.437 175.645 270.206L174.057 269.018L158.944 289.254L135.695 292.607Z" fill="#DCDCFF"/>
<path d="M163.7 266.151C160 266.531 156.605 268.274 154.144 271.055L151.615 273.896L147.456 272.959C145.264 272.465 143.3 271.332 141.775 269.682C140.25 268.033 139.274 265.985 138.954 263.762L137.719 255.203L131 267.736L127.5 268.5L122 269.5L111.819 271.022L142.104 293.672L160.032 291.086L175.632 270.196L174.057 269.018C171.078 266.79 167.4 265.772 163.7 266.151Z" fill="#FF6C6C"/>
<path d="M154.144 271.055L151.615 273.896L147.456 272.959C145.265 272.465 143.3 271.332 141.775 269.682C140.25 268.033 139.275 265.986 138.954 263.762L137.719 255.204L130.451 256.252L135.092 288.427L142.104 293.672L160.033 291.086L175.632 270.196L174.057 269.018C171.078 266.79 167.4 265.772 163.7 266.152C160 266.531 156.605 268.274 154.144 271.055V271.055Z" fill="#EE3D96"/>
<path d="M137.777 276.036L142.203 270.118C142.057 269.977 141.914 269.832 141.775 269.682C140.96 268.801 140.304 267.806 139.819 266.731L134.624 273.678L137.777 276.036Z" fill="#FF3943"/>
<path d="M145.555 279.575L150.064 273.547L147.456 272.959C146.934 272.841 146.425 272.686 145.932 272.498L142.402 277.217L145.555 279.575L145.555 279.575Z" fill="#FF3943"/>
<path d="M105.588 298.939L132.144 295.108L101.758 272.382L105.588 298.939Z" fill="#E31414"/>
<path d="M113.948 270.715C113.558 270.771 113.169 270.672 112.853 270.436C112.538 270.2 112.333 269.855 112.277 269.467L112.272 269.437C111.846 266.482 109.096 264.425 106.141 264.851C104.71 265.058 103.445 265.809 102.578 266.967C101.712 268.125 101.349 269.551 101.556 270.983L102.552 277.893L126.633 295.903L147.615 292.877L117.33 270.227L113.948 270.715Z" fill="#FEDA00"/>
<path d="M134.297 282.916L135.976 294.556L147.615 292.877L134.297 282.916Z" fill="#E31414"/>
<path d="M137.777 276.036L142.203 270.118C142.057 269.977 141.914 269.832 141.775 269.682C140.96 268.801 140.304 267.806 139.819 266.731L134.624 273.678L137.777 276.036Z" fill="#E31414"/>
<path d="M145.555 279.575L150.064 273.547L147.456 272.959C146.934 272.841 146.425 272.686 145.932 272.498L142.402 277.217L145.555 279.575L145.555 279.575Z" fill="#E31414"/>
<g clip-path="url(#clip2)">
<path d="M215.178 43.5309C214.537 25.2746 229.283 10.1866 247.549 10.4096L362.277 11.8103C371.076 11.9177 378.338 18.7216 379.018 27.4946L382.818 76.4951L382.818 112.928C382.818 128.392 370.282 140.928 354.818 140.928L309.265 140.928L245.232 142.161C230.49 142.445 218.246 130.85 217.729 116.114L215.178 43.5309Z" fill="white"/>
<path d="M251.011 138.28L311.325 135.043L286.023 147.989L246.01 169.466L251.011 138.28Z" fill="white"/>
<path d="M357.457 9.41479H240.478C226.641 9.43113 215.427 21.673 215.412 36.7786V115.829C215.427 130.935 226.641 143.177 240.478 143.193H248.221L243.319 169.948C243.109 171.099 243.523 172.278 244.383 172.98C245.242 173.682 246.396 173.782 247.346 173.235L299.656 143.193H357.457C371.295 143.177 382.509 130.935 382.524 115.829V36.7786C382.509 21.673 371.295 9.43113 357.457 9.41479ZM379.031 115.829C379.031 129.34 368.22 139.885 357.457 139.899H298.699L273.982 153.977L248.221 168.641L252.488 143.193C252.488 143.193 250.94 139.019 248.806 139.019H246.04H239.861C229.098 139.005 218.247 128.46 219.71 115.829V36.7786C218.294 24.0499 229.382 12.2463 240.478 12.9049H357.457C368.22 12.9183 379.019 25.0296 379.031 36.7786V115.829Z" fill="black"/>
<path d="M357.457 9.41479H240.478C226.641 9.43113 215.427 21.673 215.412 36.7786V115.829C215.427 130.935 226.641 143.177 240.478 143.193H248.221L243.319 169.948C243.109 171.099 243.523 172.278 244.383 172.98C245.242 173.682 246.396 173.782 247.346 173.235L299.656 143.193H357.457C371.295 143.177 382.509 130.935 382.524 115.829V36.7786C382.509 21.673 371.295 9.43113 357.457 9.41479ZM379.031 115.829C379.031 129.34 368.22 139.885 357.457 139.899H298.699L273.982 153.977L248.221 168.641L252.488 143.193C252.488 143.193 250.94 139.019 248.806 139.019H246.04H239.861C229.098 139.005 218.247 128.46 219.71 115.829V36.7786C218.294 24.0499 229.382 12.2463 240.478 12.9049H357.457C368.22 12.9183 379.019 25.0296 379.031 36.7786V115.829Z" stroke="black"/>
<path d="M236.562 57.6592V42.7295H241.443C243.063 42.7295 244.28 43.0645 245.094 43.7344C245.914 44.4043 246.324 45.3955 246.324 46.708C246.324 47.4053 246.126 48.0239 245.729 48.564C245.333 49.0972 244.793 49.5107 244.109 49.8047C244.916 50.0303 245.552 50.4609 246.017 51.0967C246.488 51.7256 246.724 52.4775 246.724 53.3525C246.724 54.6924 246.29 55.7451 245.422 56.5107C244.554 57.2764 243.327 57.6592 241.741 57.6592H236.562ZM238.531 50.6763V56.0493H241.782C242.698 56.0493 243.419 55.8135 243.945 55.3418C244.479 54.8633 244.745 54.207 244.745 53.373C244.745 51.5752 243.768 50.6763 241.812 50.6763H238.531ZM238.531 49.0972H241.505C242.366 49.0972 243.053 48.8818 243.566 48.4512C244.085 48.0205 244.345 47.436 244.345 46.6978C244.345 45.8774 244.106 45.2827 243.627 44.9136C243.149 44.5376 242.421 44.3496 241.443 44.3496H238.531V49.0972ZM256.199 56.562C255.46 57.4302 254.377 57.8643 252.948 57.8643C251.766 57.8643 250.863 57.5225 250.241 56.8389C249.626 56.1484 249.315 55.1299 249.308 53.7832V46.5645H251.205V53.7319C251.205 55.4136 251.889 56.2544 253.256 56.2544C254.705 56.2544 255.669 55.7144 256.147 54.6343V46.5645H258.044V57.6592H256.24L256.199 56.562ZM260.475 52.0195C260.475 50.3174 260.878 48.9502 261.685 47.918C262.491 46.8789 263.547 46.3594 264.853 46.3594C266.152 46.3594 267.181 46.8037 267.939 47.6924V41.9092H269.836V57.6592H268.093L268.001 56.4697C267.242 57.3994 266.186 57.8643 264.833 57.8643C263.547 57.8643 262.498 57.3379 261.685 56.2852C260.878 55.2324 260.475 53.8584 260.475 52.1631V52.0195ZM262.372 52.2349C262.372 53.4927 262.631 54.4771 263.151 55.188C263.67 55.8989 264.388 56.2544 265.304 56.2544C266.507 56.2544 267.386 55.7144 267.939 54.6343V49.5381C267.372 48.4922 266.5 47.9692 265.325 47.9692C264.395 47.9692 263.67 48.3281 263.151 49.0459C262.631 49.7637 262.372 50.8267 262.372 52.2349ZM277.394 57.8643C275.89 57.8643 274.666 57.3721 273.723 56.3877C272.779 55.3965 272.308 54.0737 272.308 52.4194V52.0708C272.308 50.9702 272.516 49.9893 272.933 49.1279C273.357 48.2598 273.945 47.583 274.697 47.0977C275.456 46.6055 276.276 46.3594 277.158 46.3594C278.6 46.3594 279.721 46.8345 280.521 47.7847C281.321 48.7349 281.721 50.0952 281.721 51.8657V52.6553H274.205C274.232 53.749 274.55 54.6343 275.158 55.311C275.773 55.981 276.553 56.3159 277.496 56.3159C278.166 56.3159 278.733 56.1792 279.198 55.9058C279.663 55.6323 280.07 55.27 280.418 54.8188L281.577 55.7212C280.647 57.1499 279.253 57.8643 277.394 57.8643ZM277.158 47.918C276.392 47.918 275.75 48.1982 275.23 48.7588C274.71 49.3125 274.389 50.0918 274.266 51.0967H279.824V50.9531C279.769 49.9893 279.509 49.2441 279.044 48.7178C278.58 48.1846 277.951 47.918 277.158 47.918ZM285.709 46.5645L285.761 47.7949C286.574 46.8379 287.671 46.3594 289.052 46.3594C290.604 46.3594 291.66 46.9541 292.221 48.1436C292.59 47.6104 293.068 47.1797 293.656 46.8516C294.251 46.5234 294.952 46.3594 295.758 46.3594C298.192 46.3594 299.429 47.6479 299.47 50.2251V57.6592H297.573V50.3379C297.573 49.5449 297.392 48.9536 297.03 48.564C296.667 48.1675 296.059 47.9692 295.205 47.9692C294.5 47.9692 293.916 48.1812 293.451 48.605C292.986 49.022 292.716 49.5859 292.641 50.2969V57.6592H290.734V50.3892C290.734 48.7759 289.944 47.9692 288.365 47.9692C287.121 47.9692 286.27 48.499 285.812 49.5586V57.6592H283.915V46.5645H285.709ZM306.945 57.8643C305.441 57.8643 304.218 57.3721 303.274 56.3877C302.331 55.3965 301.859 54.0737 301.859 52.4194V52.0708C301.859 50.9702 302.068 49.9893 302.485 49.1279C302.909 48.2598 303.497 47.583 304.249 47.0977C305.007 46.6055 305.828 46.3594 306.709 46.3594C308.152 46.3594 309.273 46.8345 310.073 47.7847C310.873 48.7349 311.272 50.0952 311.272 51.8657V52.6553H303.756C303.784 53.749 304.102 54.6343 304.71 55.311C305.325 55.981 306.104 56.3159 307.048 56.3159C307.718 56.3159 308.285 56.1792 308.75 55.9058C309.215 55.6323 309.622 55.27 309.97 54.8188L311.129 55.7212C310.199 57.1499 308.805 57.8643 306.945 57.8643ZM306.709 47.918C305.944 47.918 305.301 48.1982 304.782 48.7588C304.262 49.3125 303.941 50.0918 303.818 51.0967H309.375V50.9531C309.321 49.9893 309.061 49.2441 308.596 48.7178C308.131 48.1846 307.502 47.918 306.709 47.918ZM325.146 54.7163C325.146 54.2036 324.951 53.8071 324.562 53.5269C324.179 53.2397 323.505 52.9937 322.542 52.7886C321.584 52.5835 320.822 52.3374 320.255 52.0503C319.694 51.7632 319.277 51.4214 319.004 51.0249C318.737 50.6284 318.604 50.1567 318.604 49.6099C318.604 48.7007 318.987 47.9316 319.752 47.3027C320.525 46.6738 321.509 46.3594 322.706 46.3594C323.963 46.3594 324.982 46.6841 325.761 47.3335C326.547 47.9829 326.94 48.8135 326.94 49.8252H325.033C325.033 49.3057 324.811 48.8579 324.367 48.4819C323.929 48.106 323.375 47.918 322.706 47.918C322.015 47.918 321.475 48.0684 321.085 48.3691C320.696 48.6699 320.501 49.063 320.501 49.5483C320.501 50.0063 320.682 50.3516 321.044 50.584C321.407 50.8164 322.06 51.0386 323.003 51.2505C323.953 51.4624 324.722 51.7153 325.31 52.0093C325.898 52.3032 326.332 52.6587 326.612 53.0757C326.899 53.4858 327.043 53.9883 327.043 54.583C327.043 55.5742 326.646 56.3706 325.854 56.9722C325.061 57.5669 324.032 57.8643 322.767 57.8643C321.878 57.8643 321.092 57.707 320.409 57.3926C319.725 57.0781 319.188 56.6406 318.799 56.0801C318.416 55.5127 318.225 54.9009 318.225 54.2446H320.122C320.156 54.8804 320.409 55.3862 320.88 55.7622C321.359 56.1313 321.988 56.3159 322.767 56.3159C323.485 56.3159 324.059 56.1724 324.49 55.8853C324.927 55.5913 325.146 55.2017 325.146 54.7163ZM336.364 57.6592C336.254 57.4404 336.166 57.0508 336.097 56.4902C335.215 57.4062 334.163 57.8643 332.939 57.8643C331.845 57.8643 330.946 57.5566 330.242 56.9414C329.545 56.3193 329.196 55.5332 329.196 54.583C329.196 53.4277 329.634 52.5322 330.509 51.8965C331.391 51.2539 332.628 50.9326 334.221 50.9326H336.066V50.061C336.066 49.3979 335.868 48.8716 335.472 48.4819C335.075 48.0854 334.491 47.8872 333.718 47.8872C333.042 47.8872 332.474 48.0581 332.016 48.3999C331.558 48.7417 331.329 49.1553 331.329 49.6406H329.422C329.422 49.0869 329.617 48.5537 330.006 48.041C330.403 47.5215 330.936 47.1113 331.606 46.8105C332.283 46.5098 333.024 46.3594 333.831 46.3594C335.109 46.3594 336.111 46.6807 336.835 47.3232C337.56 47.959 337.936 48.8374 337.963 49.9585V55.0649C337.963 56.0835 338.093 56.8936 338.353 57.4951V57.6592H336.364ZM333.216 56.2134C333.811 56.2134 334.375 56.0596 334.908 55.752C335.441 55.4443 335.827 55.0444 336.066 54.5522V52.2759H334.58C332.255 52.2759 331.093 52.9561 331.093 54.3164C331.093 54.9111 331.292 55.376 331.688 55.7109C332.084 56.0459 332.594 56.2134 333.216 56.2134ZM347.94 46.5645L348.002 47.959C348.85 46.8926 349.957 46.3594 351.324 46.3594C353.669 46.3594 354.852 47.6821 354.872 50.3276V57.6592H352.975V50.3174C352.968 49.5176 352.784 48.9263 352.421 48.5435C352.066 48.1606 351.509 47.9692 350.75 47.9692C350.135 47.9692 349.595 48.1333 349.13 48.4614C348.665 48.7896 348.303 49.2202 348.043 49.7534V57.6592H346.146V46.5645H347.94ZM364.583 57.6592C364.473 57.4404 364.384 57.0508 364.316 56.4902C363.434 57.4062 362.381 57.8643 361.158 57.8643C360.064 57.8643 359.165 57.5566 358.461 56.9414C357.764 56.3193 357.415 55.5332 357.415 54.583C357.415 53.4277 357.853 52.5322 358.728 51.8965C359.609 51.2539 360.847 50.9326 362.439 50.9326H364.285V50.061C364.285 49.3979 364.087 48.8716 363.69 48.4819C363.294 48.0854 362.709 47.8872 361.937 47.8872C361.26 47.8872 360.693 48.0581 360.235 48.3999C359.777 48.7417 359.548 49.1553 359.548 49.6406H357.641C357.641 49.0869 357.835 48.5537 358.225 48.041C358.622 47.5215 359.155 47.1113 359.825 46.8105C360.501 46.5098 361.243 46.3594 362.05 46.3594C363.328 46.3594 364.33 46.6807 365.054 47.3232C365.779 47.959 366.155 48.8374 366.182 49.9585V55.0649C366.182 56.0835 366.312 56.8936 366.572 57.4951V57.6592H364.583ZM361.435 56.2134C362.029 56.2134 362.593 56.0596 363.126 55.752C363.66 55.4443 364.046 55.0444 364.285 54.5522V52.2759H362.798C360.474 52.2759 359.312 52.9561 359.312 54.3164C359.312 54.9111 359.51 55.376 359.907 55.7109C360.303 56.0459 360.812 56.2134 361.435 56.2134ZM241.505 80.0444L245.771 67.7295H247.924L242.387 82.6592H240.644L235.117 67.7295H237.26L241.505 80.0444ZM256.014 82.6592C255.905 82.4404 255.816 82.0508 255.748 81.4902C254.866 82.4062 253.813 82.8643 252.589 82.8643C251.496 82.8643 250.597 82.5566 249.893 81.9414C249.195 81.3193 248.847 80.5332 248.847 79.583C248.847 78.4277 249.284 77.5322 250.159 76.8965C251.041 76.2539 252.278 75.9326 253.871 75.9326H255.717V75.061C255.717 74.3979 255.519 73.8716 255.122 73.4819C254.726 73.0854 254.141 72.8872 253.369 72.8872C252.692 72.8872 252.125 73.0581 251.667 73.3999C251.208 73.7417 250.979 74.1553 250.979 74.6406H249.072C249.072 74.0869 249.267 73.5537 249.657 73.041C250.053 72.5215 250.586 72.1113 251.256 71.8105C251.933 71.5098 252.675 71.3594 253.481 71.3594C254.76 71.3594 255.761 71.6807 256.486 72.3232C257.21 72.959 257.586 73.8374 257.614 74.9585V80.0649C257.614 81.0835 257.744 81.8936 258.003 82.4951V82.6592H256.014ZM252.866 81.2134C253.461 81.2134 254.025 81.0596 254.558 80.752C255.091 80.4443 255.478 80.0444 255.717 79.5522V77.2759H254.23C251.906 77.2759 250.744 77.9561 250.744 79.3164C250.744 79.9111 250.942 80.376 251.338 80.7109C251.735 81.0459 252.244 81.2134 252.866 81.2134ZM254.62 66.9092H256.917L254.168 69.9238H252.641L254.62 66.9092ZM267.047 79.7163C267.047 79.2036 266.853 78.8071 266.463 78.5269C266.08 78.2397 265.407 77.9937 264.443 77.7886C263.486 77.5835 262.724 77.3374 262.156 77.0503C261.596 76.7632 261.179 76.4214 260.905 76.0249C260.639 75.6284 260.505 75.1567 260.505 74.6099C260.505 73.7007 260.888 72.9316 261.654 72.3027C262.426 71.6738 263.411 71.3594 264.607 71.3594C265.865 71.3594 266.883 71.6841 267.663 72.3335C268.449 72.9829 268.842 73.8135 268.842 74.8252H266.935C266.935 74.3057 266.712 73.8579 266.268 73.4819C265.831 73.106 265.277 72.918 264.607 72.918C263.917 72.918 263.376 73.0684 262.987 73.3691C262.597 73.6699 262.402 74.063 262.402 74.5483C262.402 75.0063 262.583 75.3516 262.946 75.584C263.308 75.8164 263.961 76.0386 264.904 76.2505C265.854 76.4624 266.624 76.7153 267.211 77.0093C267.799 77.3032 268.233 77.6587 268.514 78.0757C268.801 78.4858 268.944 78.9883 268.944 79.583C268.944 80.5742 268.548 81.3706 267.755 81.9722C266.962 82.5669 265.933 82.8643 264.668 82.8643C263.78 82.8643 262.994 82.707 262.31 82.3926C261.626 82.0781 261.09 81.6406 260.7 81.0801C260.317 80.5127 260.126 79.9009 260.126 79.2446H262.023C262.057 79.8804 262.31 80.3862 262.782 80.7622C263.26 81.1313 263.889 81.3159 264.668 81.3159C265.386 81.3159 265.96 81.1724 266.391 80.8853C266.829 80.5913 267.047 80.2017 267.047 79.7163ZM280.285 80.0854L283.033 71.5645H284.971L280.993 82.6592H279.547L275.527 71.5645H277.465L280.285 80.0854ZM293.256 79.7163C293.256 79.2036 293.062 78.8071 292.672 78.5269C292.289 78.2397 291.616 77.9937 290.652 77.7886C289.695 77.5835 288.933 77.3374 288.365 77.0503C287.805 76.7632 287.388 76.4214 287.114 76.0249C286.848 75.6284 286.714 75.1567 286.714 74.6099C286.714 73.7007 287.097 72.9316 287.863 72.3027C288.635 71.6738 289.62 71.3594 290.816 71.3594C292.074 71.3594 293.092 71.6841 293.872 72.3335C294.658 72.9829 295.051 73.8135 295.051 74.8252H293.144C293.144 74.3057 292.921 73.8579 292.477 73.4819C292.04 73.106 291.486 72.918 290.816 72.918C290.125 72.918 289.585 73.0684 289.196 73.3691C288.806 73.6699 288.611 74.063 288.611 74.5483C288.611 75.0063 288.792 75.3516 289.155 75.584C289.517 75.8164 290.17 76.0386 291.113 76.2505C292.063 76.4624 292.833 76.7153 293.42 77.0093C294.008 77.3032 294.442 77.6587 294.723 78.0757C295.01 78.4858 295.153 78.9883 295.153 79.583C295.153 80.5742 294.757 81.3706 293.964 81.9722C293.171 82.5669 292.142 82.8643 290.877 82.8643C289.989 82.8643 289.203 82.707 288.519 82.3926C287.835 82.0781 287.299 81.6406 286.909 81.0801C286.526 80.5127 286.335 79.9009 286.335 79.2446H288.232C288.266 79.8804 288.519 80.3862 288.991 80.7622C289.469 81.1313 290.098 81.3159 290.877 81.3159C291.595 81.3159 292.169 81.1724 292.6 80.8853C293.038 80.5913 293.256 80.2017 293.256 79.7163ZM291.113 68.6523L292.651 66.9092H294.292V67.0117L291.688 69.8213H290.529L287.955 67.0117V66.9092H289.565L291.113 68.6523ZM302.229 82.8643C300.725 82.8643 299.501 82.3721 298.558 81.3877C297.614 80.3965 297.143 79.0737 297.143 77.4194V77.0708C297.143 75.9702 297.351 74.9893 297.768 74.1279C298.192 73.2598 298.78 72.583 299.532 72.0977C300.291 71.6055 301.111 71.3594 301.993 71.3594C303.435 71.3594 304.556 71.8345 305.356 72.7847C306.156 73.7349 306.556 75.0952 306.556 76.8657V77.6553H299.04C299.067 78.749 299.385 79.6343 299.993 80.311C300.608 80.981 301.388 81.3159 302.331 81.3159C303.001 81.3159 303.568 81.1792 304.033 80.9058C304.498 80.6323 304.905 80.27 305.253 79.8188L306.412 80.7212C305.482 82.1499 304.088 82.8643 302.229 82.8643ZM301.993 72.918C301.227 72.918 300.584 73.1982 300.065 73.7588C299.545 74.3125 299.224 75.0918 299.101 76.0967H304.659V75.9531C304.604 74.9893 304.344 74.2441 303.879 73.7178C303.415 73.1846 302.786 72.918 301.993 72.918ZM311.857 77.522L310.667 78.7627V82.6592H308.771V66.9092H310.667V76.4351L311.683 75.2148L315.138 71.5645H317.445L313.128 76.1992L317.948 82.6592H315.723L311.857 77.522ZM323.034 79.8804L325.618 71.5645H327.648L323.188 84.3716C322.497 86.2173 321.4 87.1401 319.896 87.1401L319.537 87.1094L318.83 86.9761V85.438L319.342 85.479C319.985 85.479 320.484 85.3491 320.839 85.0894C321.202 84.8296 321.499 84.3545 321.731 83.6641L322.152 82.5361L318.194 71.5645H320.265L323.034 79.8804ZM324.11 66.9092H326.407L323.659 69.9238H322.131L324.11 66.9092ZM333.657 81.3159C334.333 81.3159 334.925 81.1108 335.431 80.7007C335.937 80.2905 336.217 79.7778 336.271 79.1626H338.066C338.032 79.7983 337.813 80.4033 337.41 80.9775C337.006 81.5518 336.466 82.0098 335.79 82.3516C335.12 82.6934 334.409 82.8643 333.657 82.8643C332.146 82.8643 330.943 82.3618 330.047 81.3569C329.159 80.3452 328.714 78.9644 328.714 77.2144V76.8965C328.714 75.8164 328.913 74.856 329.309 74.0151C329.706 73.1743 330.273 72.5215 331.011 72.0566C331.756 71.5918 332.635 71.3594 333.646 71.3594C334.891 71.3594 335.923 71.7319 336.743 72.4771C337.57 73.2222 338.011 74.1895 338.066 75.3789H336.271C336.217 74.6611 335.943 74.0732 335.451 73.6152C334.966 73.1504 334.364 72.918 333.646 72.918C332.683 72.918 331.934 73.2666 331.401 73.9639C330.875 74.6543 330.611 75.6558 330.611 76.9683V77.3271C330.611 78.6055 330.875 79.5898 331.401 80.2803C331.927 80.9707 332.679 81.3159 333.657 81.3159ZM342.096 72.9077C342.937 71.8755 344.03 71.3594 345.377 71.3594C347.722 71.3594 348.904 72.6821 348.925 75.3276V82.6592H347.028V75.3174C347.021 74.5176 346.836 73.9263 346.474 73.5435C346.119 73.1606 345.562 72.9692 344.803 72.9692C344.188 72.9692 343.647 73.1333 343.183 73.4614C342.718 73.7896 342.355 74.2202 342.096 74.7534V82.6592H340.199V66.9092H342.096V72.9077ZM239.926 105.085L242.674 96.5645H244.612L240.633 107.659H239.188L235.168 96.5645H237.106L239.926 105.085ZM250.897 107.864C249.394 107.864 248.17 107.372 247.227 106.388C246.283 105.396 245.812 104.074 245.812 102.419V102.071C245.812 100.97 246.02 99.9893 246.437 99.1279C246.861 98.2598 247.449 97.583 248.201 97.0977C248.959 96.6055 249.78 96.3594 250.662 96.3594C252.104 96.3594 253.225 96.8345 254.025 97.7847C254.825 98.7349 255.225 100.095 255.225 101.866V102.655H247.708C247.736 103.749 248.054 104.634 248.662 105.311C249.277 105.981 250.057 106.316 251 106.316C251.67 106.316 252.237 106.179 252.702 105.906C253.167 105.632 253.574 105.27 253.922 104.819L255.081 105.721C254.151 107.15 252.757 107.864 250.897 107.864ZM250.662 97.918C249.896 97.918 249.253 98.1982 248.734 98.7588C248.214 99.3125 247.893 100.092 247.77 101.097H253.328V100.953C253.273 99.9893 253.013 99.2441 252.548 98.7178C252.083 98.1846 251.455 97.918 250.662 97.918ZM259.49 107.659H257.593V91.9092H259.49V107.659ZM261.521 95.9902L260.444 95.252C260.936 94.5068 261.189 93.7002 261.203 92.832V91.8887H263.018V92.668C263.018 93.29 262.881 93.9087 262.607 94.5239C262.341 95.1323 261.979 95.6211 261.521 95.9902ZM265.858 96.5645L265.909 97.7949C266.723 96.8379 267.82 96.3594 269.201 96.3594C270.752 96.3594 271.809 96.9541 272.369 98.1436C272.738 97.6104 273.217 97.1797 273.805 96.8516C274.399 96.5234 275.1 96.3594 275.907 96.3594C278.34 96.3594 279.578 97.6479 279.619 100.225V107.659H277.722V100.338C277.722 99.5449 277.541 98.9536 277.178 98.564C276.816 98.1675 276.208 97.9692 275.353 97.9692C274.649 97.9692 274.064 98.1812 273.6 98.605C273.135 99.022 272.865 99.5859 272.79 100.297V107.659H270.882V100.389C270.882 98.7759 270.093 97.9692 268.514 97.9692C267.27 97.9692 266.418 98.499 265.96 99.5586V107.659H264.063V96.5645H265.858ZM284.551 107.659H282.654V96.5645H284.551V107.659ZM282.5 93.6216C282.5 93.314 282.592 93.0542 282.777 92.8423C282.968 92.6304 283.249 92.5244 283.618 92.5244C283.987 92.5244 284.267 92.6304 284.458 92.8423C284.65 93.0542 284.746 93.314 284.746 93.6216C284.746 93.9292 284.65 94.1855 284.458 94.3906C284.267 94.5957 283.987 94.6982 283.618 94.6982C283.249 94.6982 282.968 94.5957 282.777 94.3906C282.592 94.1855 282.5 93.9292 282.5 93.6216ZM295.379 93.8779V96.5645H297.45V98.0308H295.379V104.911C295.379 105.355 295.471 105.69 295.656 105.916C295.84 106.135 296.155 106.244 296.599 106.244C296.818 106.244 297.119 106.203 297.501 106.121V107.659C297.002 107.796 296.517 107.864 296.045 107.864C295.198 107.864 294.559 107.608 294.128 107.095C293.697 106.583 293.482 105.854 293.482 104.911V98.0308H291.462V96.5645H293.482V93.8779H295.379ZM304.279 107.864C302.775 107.864 301.552 107.372 300.608 106.388C299.665 105.396 299.193 104.074 299.193 102.419V102.071C299.193 100.97 299.402 99.9893 299.819 99.1279C300.243 98.2598 300.831 97.583 301.583 97.0977C302.341 96.6055 303.162 96.3594 304.043 96.3594C305.486 96.3594 306.607 96.8345 307.407 97.7847C308.207 98.7349 308.606 100.095 308.606 101.866V102.655H301.09C301.118 103.749 301.436 104.634 302.044 105.311C302.659 105.981 303.438 106.316 304.382 106.316C305.052 106.316 305.619 106.179 306.084 105.906C306.549 105.632 306.956 105.27 307.304 104.819L308.463 105.721C307.533 107.15 306.139 107.864 304.279 107.864ZM304.043 97.918C303.278 97.918 302.635 98.1982 302.116 98.7588C301.596 99.3125 301.275 100.092 301.152 101.097H306.709V100.953C306.655 99.9893 306.395 99.2441 305.93 98.7178C305.465 98.1846 304.836 97.918 304.043 97.918ZM317.271 104.716C317.271 104.204 317.076 103.807 316.687 103.527C316.304 103.24 315.63 102.994 314.667 102.789C313.709 102.583 312.947 102.337 312.38 102.05C311.819 101.763 311.402 101.421 311.129 101.025C310.862 100.628 310.729 100.157 310.729 99.6099C310.729 98.7007 311.112 97.9316 311.877 97.3027C312.65 96.6738 313.634 96.3594 314.831 96.3594C316.088 96.3594 317.107 96.6841 317.886 97.3335C318.672 97.9829 319.065 98.8135 319.065 99.8252H317.158C317.158 99.3057 316.936 98.8579 316.492 98.4819C316.054 98.106 315.5 97.918 314.831 97.918C314.14 97.918 313.6 98.0684 313.21 98.3691C312.821 98.6699 312.626 99.063 312.626 99.5483C312.626 100.006 312.807 100.352 313.169 100.584C313.532 100.816 314.185 101.039 315.128 101.25C316.078 101.462 316.847 101.715 317.435 102.009C318.023 102.303 318.457 102.659 318.737 103.076C319.024 103.486 319.168 103.988 319.168 104.583C319.168 105.574 318.771 106.371 317.979 106.972C317.186 107.567 316.157 107.864 314.892 107.864C314.003 107.864 313.217 107.707 312.534 107.393C311.85 107.078 311.313 106.641 310.924 106.08C310.541 105.513 310.35 104.901 310.35 104.245H312.247C312.281 104.88 312.534 105.386 313.005 105.762C313.484 106.131 314.113 106.316 314.892 106.316C315.61 106.316 316.184 106.172 316.615 105.885C317.052 105.591 317.271 105.202 317.271 104.716ZM315.128 93.6523L316.666 91.9092H318.307V92.0117L315.702 94.8213H314.543L311.97 92.0117V91.9092H313.58L315.128 93.6523ZM323.7 107.659H321.803V96.5645H323.7V107.659ZM321.649 93.6216C321.649 93.314 321.742 93.0542 321.926 92.8423C322.118 92.6304 322.398 92.5244 322.767 92.5244C323.136 92.5244 323.417 92.6304 323.608 92.8423C323.799 93.0542 323.895 93.314 323.895 93.6216C323.895 93.9292 323.799 94.1855 323.608 94.3906C323.417 94.5957 323.136 94.6982 322.767 94.6982C322.398 94.6982 322.118 94.5957 321.926 94.3906C321.742 94.1855 321.649 93.9292 321.649 93.6216ZM329.319 93.8779V96.5645H331.391V98.0308H329.319V104.911C329.319 105.355 329.412 105.69 329.596 105.916C329.781 106.135 330.095 106.244 330.54 106.244C330.758 106.244 331.059 106.203 331.442 106.121V107.659C330.943 107.796 330.458 107.864 329.986 107.864C329.138 107.864 328.499 107.608 328.068 107.095C327.638 106.583 327.422 105.854 327.422 104.911V98.0308H325.402V96.5645H327.422V93.8779H329.319ZM331.483 94.77L330.406 94.0317C330.898 93.2866 331.151 92.48 331.165 91.6118V90.6685H332.98V91.4478C332.98 92.0698 332.843 92.6885 332.57 93.3037C332.303 93.9121 331.941 94.4009 331.483 94.77ZM336.148 103.445H334.436L334.303 92.7295H336.292L336.148 103.445ZM334.231 106.706C334.231 106.398 334.323 106.142 334.508 105.937C334.699 105.725 334.979 105.619 335.349 105.619C335.718 105.619 335.998 105.725 336.189 105.937C336.381 106.142 336.477 106.398 336.477 106.706C336.477 107.013 336.381 107.27 336.189 107.475C335.998 107.673 335.718 107.772 335.349 107.772C334.979 107.772 334.699 107.673 334.508 107.475C334.323 107.27 334.231 107.013 334.231 106.706Z" fill="black"/>
<path d="M352.474 94.098C353.243 92.2745 355.001 91.0004 357.045 91.0004C359.799 91.0004 361.782 93.3561 362.032 96.1636C362.032 96.1636 362.166 96.8606 361.87 98.1153C361.467 99.824 360.518 101.342 359.24 102.501L352.474 108.537L345.822 102.5C344.544 101.342 343.596 99.8236 343.192 98.1149C342.896 96.8602 343.031 96.1633 343.031 96.1633C343.28 93.3557 345.263 91 348.017 91C350.062 91 351.705 92.2745 352.474 94.098Z" fill="#E31414"/>
</g>
<defs>
<filter id="filter0_d" x="78.3369" y="211.654" width="37.1796" height="26.6459" filterUnits="userSpaceOnUse" color-interpolation-filters="sRGB">
<feFlood flood-opacity="0" result="BackgroundImageFix"/>
<feColorMatrix in="SourceAlpha" type="matrix" values="0 0 0 0 0 0 0 0 0 0 0 0 0 0 0 0 0 0 127 0"/>
<feOffset dy="4"/>
<feGaussianBlur stdDeviation="2"/>
<feColorMatrix type="matrix" values="0 0 0 0 0 0 0 0 0 0 0 0 0 0 0 0 0 0 0.25 0"/>
<feBlend mode="normal" in2="BackgroundImageFix" result="effect1_dropShadow"/>
<feBlend mode="normal" in="SourceGraphic" in2="effect1_dropShadow" result="shape"/>
</filter>
<clipPath id="clip0">
<rect width="106.054" height="106.054" fill="white" transform="matrix(-0.934396 0.356235 0.356235 0.934396 118.097 43)"/>
</clipPath>
<clipPath id="clip1">
<rect width="111.874" height="111.874" fill="white" transform="matrix(-0.845539 0.533913 0.533913 0.845539 94.765 86)"/>
</clipPath>
<clipPath id="clip2">
<rect width="183" height="183" fill="white" transform="translate(216)"/>
</clipPath>
</defs>
</svg>
