<svg width="225" height="286" viewBox="0 0 225 286" fill="none" xmlns="http://www.w3.org/2000/svg">
<path d="M36.6984 223.704L35.0317 225.37C33.7215 226.681 33 228.423 33 230.275C33 232.128 33.7215 233.87 35.0317 235.18L71.8511 272H95.0317C98.8567 272 101.969 268.888 101.969 265.063V263.027L76.0391 263.044L36.6984 223.704Z" fill="#F2F2FC"/>
<path d="M58.9866 245.992L52.4147 252.564L71.8511 272H95.0317C98.8566 272 101.969 268.888 101.969 265.063V263.027L76.039 263.044L58.9866 245.992Z" fill="#DCDCFF"/>
<path d="M97.9571 252.75C95.3703 249.941 91.8498 248.221 88.0499 247.908L84.1589 247.576L82.3724 243.58C81.431 241.475 81.1547 239.163 81.5732 236.895C81.9917 234.627 83.075 232.566 84.7059 230.935L90.9831 224.658L80.0137 213.689L72.4041 221.298C72.1177 221.584 71.7371 221.742 71.3321 221.742C70.9271 221.742 70.5464 221.584 70.2601 221.298L62.0525 213.09V251.916L75.2022 265.066L101.968 265.047V263.027C101.969 259.209 100.544 255.559 97.9571 252.75V252.75Z" fill="#FF6C6C"/>
<path d="M88.05 247.908L84.159 247.576L82.3725 243.58C81.4311 241.475 81.1547 239.163 81.5732 236.895C81.9917 234.627 83.075 232.566 84.7059 230.935L90.9831 224.658L85.6519 219.327L62.0527 242.926V251.916L75.2024 265.066L101.969 265.047V263.027C101.969 259.209 100.544 255.559 97.9572 252.75C95.3703 249.941 91.8498 248.221 88.05 247.908V247.908Z" fill="#EE3D96"/>
<path d="M73.8907 237.515H81.4782C81.5047 237.308 81.535 237.101 81.5731 236.895C81.7967 235.683 82.2117 234.532 82.7968 233.472H73.8907V237.515Z" fill="#FF3943"/>
<path d="M75.7645 246.086H83.4927L82.3723 243.58C82.1481 243.079 81.9627 242.565 81.8144 242.044H75.7643V246.086H75.7645Z" fill="#FF3943"/>
<path d="M35.2692 225.133L54.7475 244.611V205.655L35.2692 225.133Z" fill="#E31414"/>
<path d="M63.6145 214.652C63.3282 214.366 63.1705 213.985 63.1705 213.58C63.1705 213.175 63.3282 212.795 63.6122 212.511L63.6347 212.488C65.8017 210.321 65.8017 206.795 63.6346 204.628C62.5848 203.578 61.1891 203 59.7044 203C58.2198 203 56.8241 203.578 55.7743 204.628L50.7054 209.697V240.569L66.0949 255.958V217.133L63.6145 214.652Z" fill="#FEDA00"/>
<path d="M66.0949 238.884L57.5576 247.421L66.0949 255.958V238.884Z" fill="#E31414"/>
<path d="M73.8908 237.515H81.4782C81.5048 237.308 81.5351 237.101 81.5732 236.895C81.7967 235.683 82.2117 234.532 82.7969 233.472H73.8908V237.515Z" fill="#E31414"/>
<path d="M75.7645 246.086H83.4927L82.3723 243.58C82.1481 243.079 81.9627 242.565 81.8144 242.044H75.7643V246.086H75.7645Z" fill="#E31414"/>
<path d="M154 126.911C152.8 126.311 151.7 125.711 150.5 125.211C149.3 124.611 148.1 124.111 146.8 123.511C141.1 121.011 135.4 119.011 129.7 117.411C127.7 116.811 125.8 116.311 123.8 115.911C121.9 115.411 120 115.111 118 114.711C115.6 114.311 113.3 113.911 110.9 113.611C82.7 110.211 56.6 117.511 33.1 135.311C32.1 136.111 31.1 136.911 30 137.711C29.5 138.111 29 138.511 28.5 138.911C27.9 139.411 27.3 139.611 26.6 139.711C26.7 139.811 26.7 139.911 26.8 140.011C30.4 145.711 29.9 151.011 29.2 153.911C28.7 156.011 27.8 158.011 26.6 159.911C27.4 160.011 28.1 160.311 28.8 160.911C29.2 161.311 29.5 161.611 29.9 162.011C30.7 162.811 31.5 163.611 32.3 164.311C33.1 165.111 34 165.911 34.8 166.611C60.1 189.711 85.4 199.811 110 196.411C127.9 194.011 143.1 184.711 155 174.411C156.2 173.411 157.4 172.311 158.5 171.311C159.7 170.211 160.9 169.111 162 168.011C162.4 167.611 162.8 167.211 163.2 166.811C164.1 165.911 164.9 165.011 165.8 164.111C166.7 163.211 167.5 162.311 168.3 161.311C174.7 154.011 179.1 147.611 181.4 144.111C172.6 137.411 163.4 131.611 154 126.911ZM103.4 141.511C102.9 141.611 102.3 141.711 101.8 141.811C102.4 141.611 102.9 141.511 103.4 141.511ZM111.3 175.111C106.2 184.611 100.4 186.711 96.3 186.711C94.7 186.711 93.3 186.411 92.4 186.011C86.2 183.911 81.7 176.711 82.7 170.711C83 168.911 84.7 167.711 86.6 168.011C88.4 168.311 89.7 170.011 89.3 171.911C88.9 174.411 91.2 178.511 94.6 179.711C99.5 181.411 103.5 175.611 105.4 171.911C106.3 170.311 108.3 169.611 109.9 170.511C111.5 171.411 112.1 173.411 111.3 175.111ZM148.6 148.311C144.2 148.311 141.1 145.211 141.1 140.711C141.1 136.511 144.4 133.111 148.4 133.011C152.5 132.911 155.5 136.911 155.6 140.811C155.7 144.911 152.4 148.311 148.6 148.311Z" fill="#FFDA00"/>
<rect x="129.6" y="132.8" width="28" height="27" fill="#FEDA00"/>
<rect x="75.6" y="159.8" width="28" height="27" fill="#FEDA00"/>
<rect x="89.6" y="159.8" width="28" height="27" fill="#FEDA00"/>
<path d="M193.8 180.9C189.4 178 184 175.2 177.8 172.7C175.6 173.4 173.2 174 170.8 174.5C169.2 174.8 167.6 175 166 175.2C152.7 188.3 134 201.4 110.8 204.6C107.4 205.1 103.9 205.3 100.4 205.3C80.1 205.3 59.6 197.2 39.2 181.1C59.1 209.8 82.1 225.6 107.6 228.2C135.2 231 160.9 217.7 178.5 205C189.1 197.4 196.9 190 200.4 186.4C198.7 184.5 196.4 182.7 193.8 180.9ZM173.2 187C170.2 187 168.2 184.9 168.2 181.9C168.2 179.1 170.4 176.8 173.1 176.8C175.9 176.7 177.8 179.4 177.9 182C178 184.7 175.7 187 173.2 187Z" fill="#EE3D96"/>
<path d="M194.2 120.1C186.7 117.4 179 115.6 171.1 114.7C168 117.3 164.6 120 160.7 122.8C170.6 128.1 179.9 134.3 188.3 141.1C189.7 142.3 190.1 144.3 189.2 145.8C188.7 146.6 184 154.7 175.7 164.7C176.5 165 177.2 165.3 177.9 165.5C186.5 162.3 193.9 157.2 199.8 151.7C208.3 143.9 213.9 135.4 216.4 131.3C209.6 126.7 202.1 122.9 194.2 120.1ZM189.8 132.2C186.8 132.2 184.8 130.1 184.8 127.1C184.8 124.3 187 122 189.7 122C192.5 121.9 194.4 124.6 194.5 127.2C194.6 129.9 192.3 132.2 189.8 132.2Z" fill="#EE3D96"/>
<path d="M70.5 84.4C49.4 94 38.1 114.2 32.9 126.7C36.8 124 40.8 121.5 44.8 119.4C44 117 43.7 112 48 108.4C48.8 107.7 51.3 105.6 82.5 90.1C84.5 89.1 90.5 86.1 97.6 88.6C103.9 90.8 109.3 96.6 113.7 105.9C113.9 106.3 114 106.8 114 107.3C119.7 108.1 125.3 109.3 130.8 110.8C132.9 111.4 134.9 112 137 112.7C139.2 113.4 141.3 114.2 143.4 115C146.9 116.4 150.4 117.8 153.9 119.5C156.5 117.7 159 115.9 161.3 114.1C162.7 113 164 112 165.2 111C166.4 110 167.6 109 168.7 108C173.9 103.5 177.7 99.6 179.9 97.3C151.7 73 107.2 67.8 70.5 84.4ZM126.2 93C126.2 90.2 128.4 87.9 131.1 87.9C133.9 87.8 135.8 90.5 135.9 93.1C136 95.8 133.8 98.1 131.2 98.1C128.3 98.1 126.2 96 126.2 93Z" fill="#EE3D96"/>
<path d="M95.2 95.7C91.5 94.4 88.3 95.7 85.9 96.9C63.6 108 54.2 113.2 52.9 114.3C52.2 114.9 51.9 115.5 51.9 116.1C69.8 108 88 105.2 105.7 106.5C102.4 100.5 98.9 97 95.2 95.7Z" fill="#FFDA00"/>
<path d="M157.501 122.502C163.023 122.502 167.5 126.979 167.5 132.501C167.5 138.023 163.023 142.5 157.501 142.5L157.288 142.5C151.766 142.5 147.289 138.023 147.289 132.501C147.289 126.979 151.766 122.502 157.288 122.502L157.501 122.502Z" fill="#FEDA00"/>
<ellipse cx="188.5" cy="127" rx="6.5" ry="8" fill="#EE3D96"/>
<path d="M194.9 128.003C192.2 128.103 190 130.303 190 133.103C190 136.103 192 138.203 195 138.203C197.6 138.203 199.8 135.903 199.7 133.203C199.6 130.603 197.6 127.903 194.9 128.003Z" fill="black"/>
<path d="M173.1 176.8C170.4 176.9 168.2 179.1 168.2 181.9C168.2 184.9 170.2 187 173.2 187C175.8 187 178 184.7 177.9 182C177.8 179.4 175.8 176.8 173.1 176.8Z" fill="black"/>
<rect x="179.916" y="160.953" width="15.9599" height="13" rx="6.5" transform="rotate(93.5251 179.916 160.953)" fill="#EE3D96"/>
<path d="M131.2 98.1C133.8 98.1 136 95.8 135.9 93.1C135.8 90.5 133.9 87.8 131.1 87.9C128.4 88 126.2 90.2 126.2 93C126.2 96 128.3 98.1 131.2 98.1Z" fill="black"/>
<rect x="200.702" y="114.442" width="13.2711" height="11" rx="5.5" transform="rotate(94.3303 200.702 114.442)" fill="#EE3D96"/>
<path d="M155.897 147C154.325 147 152.96 148.342 153.001 149.921C153.042 151.499 154.283 153.039 155.98 152.999C157.635 152.96 159 151.618 159 149.96C159 148.224 157.717 147 155.897 147Z" stroke="#010101" stroke-width="6"/>
<rect x="146" y="126" width="20" height="18" rx="9" fill="#FEDA00"/>
<rect x="137.557" y="71.4846" width="15.1723" height="13" rx="6.5" transform="rotate(92.1361 137.557 71.4846)" fill="#EE3D96"/>
<path d="M223.8 131.9C224.5 130.4 224.1 128.7 222.8 127.7C213.2 120.6 202.1 115.3 190.4 111.9C188.6 108.5 186.6 105.3 184.4 102.2C186.2 100.3 187.2 99.1 187.3 98.9C188.4 97.5 188.3 95.5 187 94.3C175.2 83.4 160.6 75.8 145 71.6C134.4 67.4 122.7 65 110.5 65C66.3 65 29.6 95.5 22.4 135.5C19.6 133 15.7 130.5 10.4 128.3L7 136.3C17.3 140.7 22.2 146.4 20.7 152.5C19.3 158.2 13.1 162.4 8.8 162.1L8.1 170.7C8.5 170.7 8.9 170.7 9.3 170.7C13.9 170.7 18.7 168.5 22.5 165.2C22.5 165.3 22.6 165.5 22.6 165.6C30.2 204.2 65.3 233.7 107.9 234.8C110.3 235 112.6 235.1 115.1 235.1C135.2 235.1 156.7 227.8 177.9 213.6C195.9 201.6 207.2 189.1 207.6 188.5C208.7 187.3 208.7 185.5 207.7 184.2C204.9 180.7 200.9 177.4 196.1 174.3C197.4 170 198.4 165.6 199.1 161.1C214.9 149 223.3 132.9 223.8 131.9ZM70.5 84.4C107.2 67.8 151.6 73 180 97C177.8 99.3 174 103.2 168.8 107.7C167.7 108.7 166.5 109.7 165.3 110.7C164.1 111.7 162.7 112.8 161.4 113.8C159.1 115.6 156.6 117.4 154 119.2C150.6 117.6 147.1 116.1 143.5 114.7C141.4 113.9 139.2 113.1 137.1 112.4C135.1 111.7 133 111.1 130.9 110.5C125.4 109 119.8 107.8 114.1 107C114.1 106.5 114 106.1 113.8 105.6C109.4 96.3 103.9 90.5 97.7 88.3C90.6 85.9 84.6 88.9 82.6 89.8C51.5 105.3 49 107.4 48.1 108.1C43.8 111.7 44 116.6 44.9 119.1C40.9 121.2 37 123.7 33 126.4C38.2 114.2 49.4 94 70.5 84.4ZM105.6 106.3C87.9 105.1 69.7 107.8 51.8 115.9C51.9 115.4 52.1 114.7 52.8 114.1C54.1 113 63.5 107.9 85.8 96.7C88.2 95.5 91.4 94.3 95.1 95.5C98.9 97 102.4 100.5 105.6 106.3ZM28.7 161.6C28.1 161 27.3 160.7 26.5 160.6C27.7 158.7 28.6 156.7 29.1 154.6C29.8 151.7 30.3 146.4 26.7 140.7C26.6 140.6 26.6 140.5 26.5 140.4C27.2 140.3 27.8 140 28.4 139.6C28.9 139.2 29.4 138.8 29.9 138.4C30.9 137.6 31.9 136.8 33 136C56.5 118.2 82.7 110.9 110.8 114.3C113.1 114.6 115.5 115 117.9 115.4C119.8 115.8 121.7 116.1 123.7 116.6C125.7 117.1 127.6 117.6 129.6 118.1C135.3 119.7 141 121.8 146.7 124.2C147.9 124.7 149.1 125.3 150.4 125.9C151.6 126.4 152.7 127 153.9 127.6C163.3 132.3 172.5 138.1 181.2 144.8C179 148.3 174.5 154.8 168.1 162C167.3 162.9 166.5 163.8 165.6 164.8C164.8 165.7 163.9 166.6 163 167.5C162.6 167.9 162.2 168.3 161.8 168.7C160.7 169.8 159.5 170.9 158.3 172C157.2 173.1 156 174.1 154.8 175.1C143 185.3 127.7 194.6 109.8 197.1C85.2 200.5 60 190.4 34.6 167.3C33.8 166.5 32.9 165.8 32.1 165C31.3 164.2 30.5 163.5 29.7 162.7C29.4 162.3 29 161.9 28.7 161.6ZM200.5 186.3C197 189.8 189.3 197.3 178.6 204.9C160.9 217.6 135.2 230.9 107.7 228.1C82.2 225.5 59.3 209.7 39.3 181C59.7 197.1 80.2 205.2 100.5 205.2C104 205.2 107.4 205 110.9 204.5C134.1 201.3 152.8 188.2 166.1 175.1C167.7 174.9 169.3 174.7 170.9 174.4C173.3 174 175.6 173.4 177.9 172.6C184.1 175.2 189.5 177.9 193.9 180.8C196.4 182.7 198.7 184.5 200.5 186.3ZM178 165.5C177.3 165.2 176.5 164.9 175.8 164.7C184.2 154.7 188.9 146.6 189.3 145.8C190.2 144.2 189.8 142.2 188.4 141.1C180 134.3 170.7 128.1 160.8 122.8C164.6 120 168.1 117.3 171.2 114.7C179 115.7 186.8 117.5 194.3 120.1C202.2 122.9 209.7 126.7 216.5 131.4C214 135.5 208.4 143.9 199.9 151.8C193.9 157.2 186.6 162.4 178 165.5Z" fill="black"/>
<path d="M103.2 142.1C102.7 142.1 102.1 142.2 101.6 142.4C102.2 142.4 102.7 142.3 103.2 142.1Z" fill="#FEDA00"/>
<g filter="url(#filter0_d)">
<path d="M92.2 186.6C93.1 186.9 94.5 187.3 96.1 187.3C100.2 187.3 106 185.2 111.1 175.7C112 174.1 111.4 172 109.7 171.2C108.1 170.3 106 170.9 105.2 172.6C103.3 176.2 99.3 182 94.4 180.4C91 179.2 88.7 175.2 89.1 172.6C89.4 170.8 88.2 169 86.4 168.7C84.6 168.4 82.8 169.6 82.5 171.4C81.4 177.4 86 184.5 92.2 186.6Z" fill="black"/>
<path d="M110.664 175.455L110.664 175.455L110.659 175.463C105.63 184.832 99.9834 186.8 96.1 186.8C94.5799 186.8 93.2399 186.42 92.3591 186.126C89.3821 185.117 86.7686 182.899 85.0334 180.193C83.2967 177.484 82.4699 174.337 82.9918 171.49L82.9919 171.49L82.9932 171.482C83.2447 169.973 84.7712 168.935 86.3178 169.193C87.8268 169.445 88.8646 170.971 88.6068 172.518L88.6068 172.518L88.6058 172.524C88.381 173.985 88.9149 175.759 89.9047 177.296C90.9004 178.842 92.4067 180.227 94.2336 180.872L94.2336 180.872L94.2448 180.875C96.9435 181.756 99.353 180.574 101.263 178.818C103.175 177.062 104.682 174.653 105.642 172.833L105.648 172.823L105.652 172.813C106.323 171.389 108.095 170.871 109.455 171.636L109.471 171.645L109.487 171.652C110.911 172.323 111.429 174.095 110.664 175.455Z" stroke="black"/>
</g>
<g clip-path="url(#clip0)">
<path d="M126.382 53.0569C126.382 53.0569 113.818 35.2613 90.4808 34.6962C90.4808 34.6962 78.1562 26.2572 56.0634 42.7372C56.0634 42.7372 50.588 50.4303 50.4131 53.6474C50.4131 53.6474 40.2563 59.6236 45.0368 72.1627C45.0368 72.1627 44.121 76.191 47.7627 83.9099L52.5523 101.526L63.049 104.705L62.3419 101.473C62.3419 101.473 65.6517 86.7222 64.7119 82.8798C64.7119 82.8798 66.2111 80.3818 67.7853 84.5109L68.0929 91.7483L125.825 64.4588L126.382 53.0569Z" fill="#E31414"/>
<path d="M55.9977 69.5521C54.7964 61.1617 54.4701 52.6471 55.069 44.1771C53.9342 45.8906 52.0893 48.822 51.1031 51.1954C52.1996 57.4402 53.8489 63.5807 55.9977 69.5521Z" fill="#B90909"/>
<path d="M72.0658 44.0442C71.3732 44.2657 70.8898 44.7658 70.5433 45.4017C71.0378 44.9399 71.5611 44.4885 72.0658 44.0442Z" fill="#B90909"/>
<path d="M64.7253 82.8499C64.8885 82.6174 66.2777 80.6403 67.7583 84.468C68.1661 83.0531 68.3871 81.539 68.7495 80.1165C69.7485 76.1204 72.0541 72.5734 74.3054 69.1075C78.6133 62.4839 83.0726 55.7175 89.3597 50.9258C85.8021 52.0728 82.883 54.6154 80.1186 57.1169C74.646 62.0629 69.1216 67.4685 66.9452 74.4999C65.5786 70.8593 66.2638 66.8125 66.9712 62.9914C67.8963 57.9733 68.8203 52.9521 69.7454 47.9339C69.901 47.0764 70.1282 46.1276 70.5464 45.4005C68.1918 47.4974 66.0198 49.7942 64.7317 52.6411C63.0207 56.4262 63.0861 60.7296 63.2815 64.8806C63.5645 70.8715 64.0478 76.8853 64.7253 82.8499Z" fill="#B90909"/>
<path d="M144.559 69.6066C143.648 67.2183 144.715 69.9514 144.355 68.9426C145.466 71.5952 139.769 56.8192 136.887 56.1295C134.625 55.1082 131.227 50.6915 130.646 53.1022C129.172 52.5962 128.916 54.2691 127.66 52.864C126.906 52.7754 125.863 51.4735 125.957 53.247C125.31 53.0751 125.315 54.716 124.388 54.5655C124.061 55.9885 122.824 55.6655 121.804 57.1296C122.213 58.2045 120.8 56.0327 120.464 57.4698C120.066 58.7501 118.733 58.3639 117.438 58.1305C115.965 57.4292 114.655 57.2152 114.213 58.5761C113.863 59.5573 113.054 60.0785 111.671 59.364C110.362 58.8342 109.428 59.5559 108.84 60.9366C108.382 62.6653 107.525 63.1088 106.538 62.4814C106.25 63.6908 105.359 62.5724 105.589 63.1765C105.606 63.2198 105.693 64.194 104.885 63.4131C104.345 63.3385 103.991 64.3252 103 64.0819C102.648 65.5113 101.214 64.5324 100.279 65.123C98.8706 64.482 97.4513 64.0722 97.0613 66.4738C95.5954 66.0534 94.5277 66.7798 93.694 68.0733C92.3949 68.1464 91.3589 68.8536 90.5163 69.8631C89.3543 70.0258 89.0234 72.1636 87.8747 71.7749C86.6721 71.2542 85.6355 70.7873 86.11 73.7533C85.8927 73.1834 86.1404 74.6429 85.4257 74.22C85.0583 74.7077 84.1365 74.3744 83.5924 75.4972C82.7189 75.7557 81.8907 76.5894 80.9399 77.399C79.3946 76.6399 78.9484 79.0523 77.8036 79.7442C76.8136 80.8418 76.1242 82.8396 74.5124 82.3436C72.8054 81.6072 72.2723 83.8753 71.3973 85.0142C71.0892 87.64 69.3808 86.3506 68.7895 87.573C68.04 88.3803 67.1375 88.3767 67.0221 89.8327C67.0327 89.8606 67.1445 91.6522 67.0873 91.7627C67.0207 92.0719 67.5622 94.0226 67.3399 93.9512C67.3588 96.0763 70.14 104.581 72.5465 107.431C72.543 107.422 72.4631 106.803 73.1458 107.756C73.4978 107.842 73.6829 107.062 74.8005 108.3C75.6654 108.875 76.2043 108.148 77.2855 108.406C78.6951 109.526 79.4628 108.506 80.3768 107.423C81.2885 106.334 82.4094 105.328 83.8505 104.697C83.2919 103.232 83.7648 104.212 84.0715 104.513C84.5316 105.218 84.2098 103.62 84.7259 103.987C84.3409 101.991 85.5391 103.915 85.7953 103.154C86.0806 102.46 86.8351 102.782 87.27 102.052C88.4771 103.348 88.3483 100.935 89.1313 100.718C89.4667 99.3272 89.9576 98.1396 91.3672 99.1845C92.3079 98.9997 92.5311 96.7469 93.9615 97.493C94.5782 96.1048 96.4087 97.7237 96.9019 95.6766C98.1852 95.7018 98.8374 93.9134 100.171 93.7738C101.209 92.8462 102.744 93.0873 103.759 91.8207C105.101 91.4153 106.548 91.1513 107.646 89.8528C108.974 89.1584 110.039 87.6452 111.822 87.9094C113.059 86.7425 114.732 86.6084 116.269 86.0257C117.599 84.8979 119.302 84.6461 120.976 84.2349C123.499 82.4678 126.151 82.0633 128.379 81.4586C130.618 80.8819 132.296 79.7455 133.871 79.1235C135.309 78.139 136.57 77.4737 137.739 77.2162C139.346 78.1111 139.516 75.8857 140.266 75.7132C140.901 75.2372 140.985 73.8391 141.736 74.5889C142.126 74.3939 141.973 73.1644 142.434 73.8153C142.538 73.5276 142.781 73.8782 142.644 73.3699C142.936 73.986 143.274 74.8645 142.65 73.2259C143.391 75.1712 143.365 73.4641 143.622 72.2486C144.306 72.1366 145.415 72.8848 144.559 69.6066Z" fill="#DAE5EF"/>
<path d="M46.7828 106.94C45.6981 112.303 50.2661 118.115 55.6288 119.199C60.9916 120.284 66.2174 116.812 67.302 111.449C68.3867 106.087 64.915 100.861 59.5522 99.7763C54.1925 98.6904 47.8663 101.574 46.7828 106.94Z" fill="#DAE5EF"/>
<path d="M50.964 116.884C52.3244 118.032 53.9429 118.835 55.6365 119.182C60.9933 120.298 66.2278 116.812 67.3004 111.436C68.3848 106.091 64.93 100.845 59.5541 99.772C59.29 99.7308 59.0569 99.6778 58.8047 99.6675C61.3662 101.919 62.6815 105.463 61.9522 109.04C60.9327 114.183 56.0624 117.601 50.964 116.884Z" fill="#CBD6E0"/>
<path d="M58.4523 100.018C58.3679 99.9085 58.3381 99.7744 58.3323 99.6383C58.3502 99.6386 58.3661 99.6431 58.3839 99.6434L58.4523 100.018Z" fill="#CBD6E0"/>
</g>
<g clip-path="url(#clip1)">
<path d="M114.395 96.1364C114.395 96.1364 97.6928 80.3545 73.4434 84.6365C73.4434 84.6365 58.9393 78.48 39.5305 100.128C39.5305 100.128 35.4728 109.225 35.9628 112.588C35.9628 112.588 26.7062 120.886 34.2642 132.855C34.2642 132.855 34.1572 137.212 39.5325 144.434L48.1587 161.651L59.6758 162.75L58.2706 159.555C58.2706 159.555 58.6172 143.612 56.8442 139.835C56.8442 139.835 57.8735 136.939 60.3624 140.88L62.1897 148.3L116.198 108.043L114.395 96.1364Z" fill="#E31414"/>
<path d="M45.0541 127.87C42.0623 119.444 39.9494 110.708 38.8026 101.824C37.9863 103.833 36.6899 107.249 36.1651 109.909C38.6011 116.138 41.5869 122.143 45.0541 127.87Z" fill="#B90909"/>
<path d="M56.3505 98.1428C55.6806 98.5162 55.2849 99.1341 55.0592 99.8639C55.4743 99.2834 55.9213 98.7075 56.3505 98.1428Z" fill="#B90909"/>
<path d="M56.8518 139.801C56.9722 139.526 57.9963 137.192 60.3255 140.842C60.4522 139.293 60.3651 137.682 60.4432 136.135C60.6429 131.795 62.2874 127.646 63.8926 123.593C66.9661 115.845 70.1663 107.918 75.6684 101.653C72.2288 103.58 69.7405 106.818 67.4035 109.981C62.7758 116.237 58.1905 122.979 57.4062 130.703C55.2339 127.224 55.0986 122.896 55.0333 118.798C54.9436 113.416 54.8519 108.031 54.7622 102.649C54.7442 101.73 54.7814 100.701 55.0622 99.8621C53.0646 102.521 51.2976 105.349 50.5593 108.562C49.5793 112.833 50.5443 117.269 51.6118 121.521C53.1537 127.656 54.9075 133.774 56.8518 139.801Z" fill="#B90909"/>
<path d="M136.643 109.459C135.203 107.18 136.876 109.783 136.294 108.815C137.995 111.327 129.023 97.2353 125.9 97.1229C123.347 96.5387 118.913 92.6799 118.814 95.2941C117.185 95.0781 117.269 96.8615 115.677 95.6704C114.879 95.736 113.529 94.6072 113.996 96.4214C113.291 96.3787 113.638 98.0745 112.649 98.112C112.608 99.6517 111.261 99.5756 110.511 101.302C111.159 102.328 109.244 100.377 109.197 101.933C109.052 103.34 107.594 103.219 106.205 103.248C104.535 102.83 103.137 102.881 102.963 104.381C102.806 105.469 102.078 106.176 100.499 105.726C99.0354 105.451 98.2194 106.392 97.8997 107.942C97.786 109.825 96.9931 110.463 95.8408 110.02C95.7957 111.33 94.641 110.36 95.0051 110.936C95.0312 110.978 95.325 111.967 94.326 111.328C93.7527 111.363 93.5917 112.457 92.5168 112.412C92.4502 113.964 90.7633 113.251 89.9196 114.056C88.3299 113.687 86.7769 113.559 86.8744 116.124C85.2709 115.995 84.3183 116.969 83.7259 118.48C82.3978 118.827 81.474 119.774 80.8132 120.994C79.6456 121.404 79.7491 123.684 78.4803 123.521C77.1282 123.234 75.9589 122.967 77.068 125.935C76.7244 125.391 77.285 126.849 76.4578 126.56C76.1795 127.141 75.1568 126.989 74.8283 128.263C73.9789 128.713 73.2965 129.748 72.482 130.783C70.7258 130.32 70.7674 132.908 69.728 133.862C68.9331 135.204 68.6368 137.413 66.8667 137.236C64.948 136.831 64.8696 139.287 64.2024 140.648C64.4313 143.427 62.3958 142.45 62.0393 143.837C61.4327 144.828 60.4987 145.013 60.6829 146.543C60.6997 146.569 61.1889 148.398 61.1528 148.525C61.1484 148.858 62.1151 150.762 61.8703 150.735C62.3331 152.928 66.9824 161.143 70.0652 163.589C70.0596 163.58 69.848 162.956 70.7527 163.8C71.1345 163.815 71.1633 162.97 72.5771 164.017C73.5913 164.431 73.9969 163.567 75.1689 163.608C76.8599 164.472 77.441 163.257 78.1604 161.947C78.8761 160.631 79.8254 159.357 81.184 158.404C80.3009 157.005 80.9942 157.92 81.3742 158.168C81.9969 158.8 81.3309 157.215 81.9412 157.487C81.1269 155.504 82.7671 157.243 82.8733 156.403C83.0235 155.625 83.871 155.801 84.1684 154.956C85.687 156.044 85.0506 153.576 85.815 153.188C85.8718 151.68 86.1318 150.35 87.8072 151.136C88.7414 150.749 88.5025 148.373 90.1372 148.846C90.4854 147.282 92.7159 148.574 92.799 146.355C94.1313 146.113 94.4327 144.128 95.783 143.705C96.6621 142.53 98.3005 142.459 99.0853 140.938C100.389 140.239 101.83 139.664 102.694 138.092C103.923 137.097 104.709 135.31 106.607 135.212C107.643 133.747 109.345 133.26 110.814 132.337C111.954 130.893 113.662 130.278 115.307 129.504C117.547 127.15 120.205 126.179 122.383 125.089C124.578 124.026 126.076 122.501 127.576 121.529C128.857 120.211 130.023 119.26 131.177 118.75C133.026 119.34 132.738 117.004 133.478 116.669C134.035 116.044 133.83 114.581 134.763 115.2C135.126 114.917 134.711 113.677 135.324 114.254C135.37 113.935 135.695 114.247 135.448 113.75C135.878 114.326 136.411 115.164 135.423 113.6C136.596 115.457 136.213 113.697 136.225 112.387C136.909 112.128 138.211 112.671 136.643 109.459Z" fill="#DAE5EF"/>
<path d="M43.3215 168.453C43.3182 174.224 49.2536 179.282 55.0252 179.285C60.7968 179.288 65.4766 174.609 65.48 168.837C65.4833 163.066 60.8037 158.386 55.0321 158.382C49.2634 158.377 43.323 162.678 43.3215 168.453Z" fill="#DAE5EF"/>
<path d="M49.7188 177.864C51.3652 178.768 53.206 179.26 55.0299 179.266C60.8016 179.303 65.4876 174.607 65.4757 168.824C65.4825 163.071 60.8161 158.366 55.0334 158.378C54.7517 158.391 54.4996 158.384 54.2366 158.426C57.355 160.221 59.4539 163.61 59.4458 167.462C59.4639 172.992 55.1405 177.542 49.7188 177.864Z" fill="#CBD6E0"/>
<path d="M53.9452 158.862C53.835 158.766 53.7762 158.634 53.7418 158.494C53.7603 158.491 53.7778 158.492 53.7963 158.489L53.9452 158.862Z" fill="#CBD6E0"/>
</g>
<path d="M105.307 253.99L105.635 256.263C105.892 258.049 106.83 259.628 108.276 260.709C109.721 261.79 111.501 262.243 113.287 261.986L163.486 254.745L177.009 236.663C179.241 233.68 178.629 229.437 175.645 227.206L174.057 226.018L158.944 246.254L105.307 253.99Z" fill="#F2F2FC"/>
<path d="M135.695 249.607L136.987 258.567L163.486 254.745L177.009 236.663C179.241 233.68 178.629 229.437 175.645 227.206L174.057 226.018L158.944 246.254L135.695 249.607Z" fill="#DCDCFF"/>
<path d="M163.7 223.151C160 223.531 156.605 225.274 154.144 228.055L151.615 230.896L147.456 229.959C145.264 229.465 143.3 228.332 141.775 226.682C140.25 225.033 139.274 222.985 138.954 220.762L137.719 212.203L131 224.736L127.5 225.5L122 226.5L111.819 228.022L142.104 250.672L160.032 248.086L175.632 227.196L174.057 226.018C171.078 223.79 167.4 222.772 163.7 223.151Z" fill="#FF6C6C"/>
<path d="M154.144 228.055L151.615 230.896L147.456 229.959C145.265 229.465 143.3 228.332 141.775 226.682C140.25 225.033 139.275 222.986 138.954 220.762L137.719 212.204L130.451 213.252L135.092 245.427L142.104 250.672L160.033 248.086L175.632 227.196L174.057 226.018C171.078 223.79 167.4 222.772 163.7 223.152C160 223.531 156.605 225.274 154.144 228.055V228.055Z" fill="#EE3D96"/>
<path d="M137.777 233.036L142.203 227.118C142.057 226.977 141.914 226.832 141.775 226.682C140.96 225.801 140.304 224.806 139.819 223.731L134.624 230.678L137.777 233.036Z" fill="#FF3943"/>
<path d="M145.555 236.575L150.064 230.547L147.456 229.959C146.934 229.841 146.425 229.686 145.932 229.498L142.402 234.217L145.555 236.575L145.555 236.575Z" fill="#FF3943"/>
<path d="M105.588 255.939L132.144 252.108L101.758 229.382L105.588 255.939Z" fill="#E31414"/>
<path d="M113.948 227.715C113.558 227.771 113.169 227.672 112.853 227.436C112.538 227.2 112.333 226.855 112.277 226.467L112.272 226.437C111.846 223.482 109.096 221.425 106.141 221.851C104.71 222.058 103.445 222.809 102.578 223.967C101.712 225.125 101.349 226.551 101.556 227.983L102.552 234.893L126.633 252.903L147.615 249.877L117.33 227.227L113.948 227.715Z" fill="#FEDA00"/>
<path d="M134.297 239.916L135.976 251.556L147.615 249.877L134.297 239.916Z" fill="#E31414"/>
<path d="M137.777 233.036L142.203 227.118C142.057 226.977 141.914 226.832 141.775 226.682C140.96 225.801 140.304 224.806 139.819 223.731L134.624 230.678L137.777 233.036Z" fill="#E31414"/>
<path d="M145.555 236.575L150.064 230.547L147.456 229.959C146.934 229.841 146.425 229.686 145.932 229.498L142.402 234.217L145.555 236.575L145.555 236.575Z" fill="#E31414"/>
<defs>
<filter id="filter0_d" x="78.3369" y="168.654" width="37.1796" height="26.6459" filterUnits="userSpaceOnUse" color-interpolation-filters="sRGB">
<feFlood flood-opacity="0" result="BackgroundImageFix"/>
<feColorMatrix in="SourceAlpha" type="matrix" values="0 0 0 0 0 0 0 0 0 0 0 0 0 0 0 0 0 0 127 0"/>
<feOffset dy="4"/>
<feGaussianBlur stdDeviation="2"/>
<feColorMatrix type="matrix" values="0 0 0 0 0 0 0 0 0 0 0 0 0 0 0 0 0 0 0.25 0"/>
<feBlend mode="normal" in2="BackgroundImageFix" result="effect1_dropShadow"/>
<feBlend mode="normal" in="SourceGraphic" in2="effect1_dropShadow" result="shape"/>
</filter>
<clipPath id="clip0">
<rect width="106.054" height="106.054" fill="white" transform="matrix(-0.934396 0.356235 0.356235 0.934396 118.097 0)"/>
</clipPath>
<clipPath id="clip1">
<rect width="111.874" height="111.874" fill="white" transform="matrix(-0.845539 0.533913 0.533913 0.845539 94.765 43)"/>
</clipPath>
</defs>
</svg>
