<svg width="2733" height="421" viewBox="0 0 2733 421" fill="none" xmlns="http://www.w3.org/2000/svg">
<path d="M69.8286 146.883C69.8286 139.751 67.8984 134.288 64.0381 130.493C60.1777 126.698 53.2095 123.001 43.1333 119.402C33.0571 115.804 25.3364 112.042 19.9712 108.116C14.6714 104.125 10.6802 99.6099 7.99756 94.5718C5.38037 89.4683 4.07178 83.645 4.07178 77.1021C4.07178 65.7827 7.83398 56.459 15.3584 49.1309C22.9482 41.8027 32.8608 38.1387 45.0962 38.1387C53.4712 38.1387 60.9302 40.0361 67.4731 43.8311C74.0161 47.5605 79.0542 52.7622 82.5874 59.436C86.1206 66.1099 87.8872 73.438 87.8872 81.4204H69.8286C69.8286 72.5874 67.7021 65.75 63.4492 60.9082C59.1963 56.0664 53.0786 53.6455 45.0962 53.6455C37.8335 53.6455 32.2065 55.6738 28.2153 59.7305C24.2241 63.7871 22.2285 69.4795 22.2285 76.8076C22.2285 82.8271 24.3877 87.8652 28.7061 91.9219C33.0244 95.9785 39.6982 99.6099 48.7275 102.816C62.7949 107.461 72.8384 113.187 78.8579 119.991C84.9429 126.796 87.9854 135.694 87.9854 146.687C87.9854 158.268 84.2231 167.559 76.6987 174.56C69.1743 181.495 58.9346 184.963 45.9795 184.963C37.6699 184.963 29.9819 183.164 22.9155 179.565C15.9146 175.901 10.3857 170.797 6.3291 164.254C2.33789 157.646 0.342285 150.089 0.342285 141.583H18.4009C18.4009 150.416 20.8545 157.286 25.7617 162.193C30.7344 167.101 37.4736 169.554 45.9795 169.554C53.8965 169.554 59.8506 167.526 63.8418 163.469C67.833 159.413 69.8286 153.884 69.8286 146.883ZM195.159 55.6084H157.57V183H139.609V55.6084H102.118V40.1016H195.159V55.6084ZM259.444 125.193H234.319V183H216.26V40.1016H256.303C270.305 40.1016 280.905 43.7656 288.102 51.0938C295.299 58.3564 298.898 69.0215 298.898 83.0889C298.898 91.9219 296.935 99.6426 293.009 106.251C289.149 112.794 283.653 117.734 276.521 121.071L304.198 181.822V183H284.863L259.444 125.193ZM234.319 109.784H256.107C263.631 109.784 269.618 107.363 274.067 102.521C278.582 97.6797 280.839 91.2021 280.839 83.0889C280.839 64.7686 272.53 55.6084 255.911 55.6084H234.319V109.784ZM391.546 116.949H341.002V167.591H399.889V183H323.042V40.1016H398.907V55.6084H341.002V101.54H391.546V116.949ZM422.953 183V40.1016H457.009C473.693 40.1016 486.648 45.3359 495.874 55.8047C505.1 66.208 509.712 80.8643 509.712 99.7734V123.721C509.712 142.63 505.034 157.253 495.678 167.591C486.321 177.864 472.745 183 454.948 183H422.953ZM440.913 55.6084V167.591H455.34C467.968 167.591 477.194 163.993 483.017 156.795C488.84 149.533 491.817 138.802 491.948 124.604V99.2827C491.948 84.2339 489.037 73.209 483.213 66.208C477.456 59.1416 468.721 55.6084 457.009 55.6084H440.913ZM630.725 124.113C630.725 143.611 626.57 158.627 618.26 169.162C609.951 179.696 598.141 184.963 582.83 184.963C568.108 184.963 556.462 179.859 547.891 169.652C539.385 159.38 534.968 144.887 534.641 126.174V99.2827C534.641 80.1772 538.861 65.2266 547.302 54.4307C555.742 43.5693 567.52 38.1387 582.634 38.1387C597.683 38.1387 609.395 43.3403 617.77 53.7437C626.21 64.0815 630.528 78.8687 630.725 98.105V124.113ZM612.764 99.0864C612.764 83.9722 610.278 72.751 605.305 65.4229C600.398 58.0293 592.841 54.3325 582.634 54.3325C572.754 54.3325 565.262 58.062 560.159 65.521C555.121 72.98 552.569 83.9722 552.503 98.4976V124.113C552.503 138.704 555.022 149.827 560.061 157.482C565.164 165.138 572.754 168.965 582.83 168.965C592.906 168.965 600.365 165.432 605.207 158.366C610.049 151.299 612.568 140.471 612.764 125.88V99.0864ZM720.919 146.883C720.919 139.751 718.989 134.288 715.129 130.493C711.269 126.698 704.3 123.001 694.224 119.402C684.148 115.804 676.427 112.042 671.062 108.116C665.762 104.125 661.771 99.6099 659.088 94.5718C656.471 89.4683 655.163 83.645 655.163 77.1021C655.163 65.7827 658.925 56.459 666.449 49.1309C674.039 41.8027 683.952 38.1387 696.187 38.1387C704.562 38.1387 712.021 40.0361 718.564 43.8311C725.107 47.5605 730.145 52.7622 733.678 59.436C737.211 66.1099 738.978 73.438 738.978 81.4204H720.919C720.919 72.5874 718.793 65.75 714.54 60.9082C710.287 56.0664 704.169 53.6455 696.187 53.6455C688.924 53.6455 683.297 55.6738 679.306 59.7305C675.315 63.7871 673.319 69.4795 673.319 76.8076C673.319 82.8271 675.479 87.8652 679.797 91.9219C684.115 95.9785 690.789 99.6099 699.818 102.816C713.886 107.461 723.929 113.187 729.949 119.991C736.034 126.796 739.076 135.694 739.076 146.687C739.076 158.268 735.314 167.559 727.79 174.56C720.265 181.495 710.025 184.963 697.07 184.963C688.761 184.963 681.073 183.164 674.006 179.565C667.005 175.901 661.477 170.797 657.42 164.254C653.429 157.646 651.433 150.089 651.433 141.583H669.492C669.492 150.416 671.945 157.286 676.853 162.193C681.825 167.101 688.564 169.554 697.07 169.554C704.987 169.554 710.941 167.526 714.933 163.469C718.924 159.413 720.919 153.884 720.919 146.883ZM780.788 167.591H836.828V183H762.729V40.1016H780.788V167.591ZM944.787 124.113C944.787 143.611 940.632 158.627 932.323 169.162C924.013 179.696 912.203 184.963 896.893 184.963C882.171 184.963 870.524 179.859 861.953 169.652C853.447 159.38 849.031 144.887 848.704 126.174V99.2827C848.704 80.1772 852.924 65.2266 861.364 54.4307C869.805 43.5693 881.582 38.1387 896.696 38.1387C911.745 38.1387 923.457 43.3403 931.832 53.7437C940.272 64.0815 944.591 78.8687 944.787 98.105V124.113ZM926.827 99.0864C926.827 83.9722 924.34 72.751 919.368 65.4229C914.46 58.0293 906.903 54.3325 896.696 54.3325C886.816 54.3325 879.325 58.062 874.221 65.521C869.183 72.98 866.631 83.9722 866.566 98.4976V124.113C866.566 138.704 869.085 149.827 874.123 157.482C879.227 165.138 886.816 168.965 896.893 168.965C906.969 168.965 914.428 165.432 919.27 158.366C924.111 151.299 926.63 140.471 926.827 125.88V99.0864ZM1011.23 155.421L1043.91 40.1016H1063.64L1019.18 183H1003.48L959.116 40.1016H978.745L1011.23 155.421ZM1151.58 116.949H1101.03V167.591H1159.92V183H1083.07V40.1016H1158.94V55.6084H1101.03V101.54H1151.58V116.949ZM1276.32 183H1258.26L1201.04 72.8818V183H1182.98V40.1016H1201.04L1258.46 150.71V40.1016H1276.32V183ZM1369.85 146.883C1369.85 139.751 1367.92 134.288 1364.06 130.493C1360.2 126.698 1353.23 123.001 1343.16 119.402C1333.08 115.804 1325.36 112.042 1319.99 108.116C1314.69 104.125 1310.7 99.6099 1308.02 94.5718C1305.4 89.4683 1304.09 83.645 1304.09 77.1021C1304.09 65.7827 1307.86 56.459 1315.38 49.1309C1322.97 41.8027 1332.88 38.1387 1345.12 38.1387C1353.49 38.1387 1360.95 40.0361 1367.5 43.8311C1374.04 47.5605 1379.08 52.7622 1382.61 59.436C1386.14 66.1099 1387.91 73.438 1387.91 81.4204H1369.85C1369.85 72.5874 1367.72 65.75 1363.47 60.9082C1359.22 56.0664 1353.1 53.6455 1345.12 53.6455C1337.86 53.6455 1332.23 55.6738 1328.24 59.7305C1324.25 63.7871 1322.25 69.4795 1322.25 76.8076C1322.25 82.8271 1324.41 87.8652 1328.73 91.9219C1333.05 95.9785 1339.72 99.6099 1348.75 102.816C1362.82 107.461 1372.86 113.187 1378.88 119.991C1384.97 126.796 1388.01 135.694 1388.01 146.687C1388.01 158.268 1384.25 167.559 1376.72 174.56C1369.2 181.495 1358.96 184.963 1346 184.963C1337.69 184.963 1330 183.164 1322.94 179.565C1315.94 175.901 1310.41 170.797 1306.35 164.254C1302.36 157.646 1300.36 150.089 1300.36 141.583H1318.42C1318.42 150.416 1320.88 157.286 1325.78 162.193C1330.76 167.101 1337.5 169.554 1346 169.554C1353.92 169.554 1359.87 167.526 1363.86 163.469C1367.86 159.413 1369.85 153.884 1369.85 146.883ZM1443.66 117.145L1429.62 134.124V183H1411.66V40.1016H1429.62V109.097L1441.4 93.4922L1479.87 40.1016H1501.46L1455.04 103.012L1505.09 183H1483.6L1443.66 117.145ZM1589.69 116.949H1539.15V167.591H1598.04V183H1521.19V40.1016H1597.06V55.6084H1539.15V101.54H1589.69V116.949ZM1567.71 0.647461H1589.69L1563.39 29.502H1548.77L1567.71 0.647461ZM1756.83 137.657C1756.05 152.968 1751.73 164.68 1743.88 172.793C1736.09 180.906 1725.07 184.963 1710.81 184.963C1696.48 184.963 1685.09 179.532 1676.65 168.671C1668.21 157.744 1663.99 142.957 1663.99 124.31V98.3994C1663.99 79.8174 1668.31 65.1284 1676.95 54.3325C1685.65 43.5366 1697.49 38.1387 1712.47 38.1387C1726.28 38.1387 1736.94 42.2935 1744.47 50.603C1752.06 58.8472 1756.18 70.6572 1756.83 86.0332H1738.68C1737.89 74.3867 1735.44 66.0771 1731.32 61.1045C1727.2 56.1318 1720.91 53.6455 1712.47 53.6455C1702.72 53.6455 1695.23 57.4731 1690 65.1284C1684.76 72.7183 1682.15 83.874 1682.15 98.5957V124.8C1682.15 139.26 1684.57 150.351 1689.41 158.071C1694.32 165.792 1701.45 169.652 1710.81 169.652C1720.16 169.652 1726.9 167.33 1731.02 162.684C1735.15 158.039 1737.7 149.696 1738.68 137.657H1756.83ZM1849.78 116.949H1799.23V167.591H1858.12V183H1781.27V40.1016H1857.14V55.6084H1799.23V101.54H1849.78V116.949ZM1974.52 183H1956.46L1899.24 72.8818V183H1881.18V40.1016H1899.24L1956.66 150.71V40.1016H1974.52V183ZM2086.21 55.6084H2048.62V183H2030.66V55.6084H1993.17V40.1016H2086.21V55.6084ZM2150.49 125.193H2125.37V183H2107.31V40.1016H2147.35C2161.35 40.1016 2171.95 43.7656 2179.15 51.0938C2186.35 58.3564 2189.95 69.0215 2189.95 83.0889C2189.95 91.9219 2187.98 99.6426 2184.06 106.251C2180.2 112.794 2174.7 117.734 2167.57 121.071L2195.25 181.822V183H2175.91L2150.49 125.193ZM2125.37 109.784H2147.16C2154.68 109.784 2160.67 107.363 2165.12 102.521C2169.63 97.6797 2171.89 91.2021 2171.89 83.0889C2171.89 64.7686 2163.58 55.6084 2146.96 55.6084H2125.37V109.784ZM2299.28 40.1016V141.681C2299.15 155.225 2295.22 165.825 2287.5 173.48C2279.78 181.135 2269.02 184.963 2255.21 184.963C2241.08 184.963 2230.28 181.233 2222.83 173.774C2215.37 166.25 2211.57 155.552 2211.44 141.681V40.1016H2229.3V140.994C2229.3 150.612 2231.33 157.81 2235.39 162.586C2239.51 167.297 2246.12 169.652 2255.21 169.652C2264.37 169.652 2270.98 167.297 2275.04 162.586C2279.16 157.81 2281.22 150.612 2281.22 140.994V40.1016H2299.28ZM2350.12 40.1016L2387.41 156.697L2424.71 40.1016H2447.87V183H2429.91V127.352L2431.58 71.606L2394.19 183H2380.45L2343.25 71.9985L2344.92 127.352V183H2326.96V40.1016H2350.12ZM100.744 419H82.6855L25.4673 308.882V419H7.40869V276.102H25.4673L82.8818 386.71V276.102H100.744V419ZM200.361 352.949H149.816V403.591H208.703V419H131.856V276.102H207.722V291.608H149.816V337.54H200.361V352.949ZM274.951 361.193H249.826V419H231.767V276.102H271.81C285.812 276.102 296.412 279.766 303.609 287.094C310.806 294.356 314.405 305.021 314.405 319.089C314.405 327.922 312.442 335.643 308.516 342.251C304.656 348.794 299.16 353.734 292.028 357.071L319.705 417.822V419H300.37L274.951 361.193ZM249.826 345.784H271.614C279.138 345.784 285.125 343.363 289.574 338.521C294.089 333.68 296.346 327.202 296.346 319.089C296.346 300.769 288.037 291.608 271.417 291.608H249.826V345.784ZM377.414 391.421L410.096 276.102H429.823L385.363 419H369.66L325.299 276.102H344.928L377.414 391.421ZM540.824 360.113C540.824 379.611 536.669 394.627 528.36 405.162C520.05 415.696 508.24 420.963 492.93 420.963C478.208 420.963 466.562 415.859 457.99 405.652C449.484 395.38 445.068 380.887 444.741 362.174V335.283C444.741 316.177 448.961 301.227 457.401 290.431C465.842 279.569 477.619 274.139 492.733 274.139C507.782 274.139 519.494 279.34 527.869 289.744C536.31 300.082 540.628 314.869 540.824 334.105V360.113ZM522.864 335.086C522.864 319.972 520.377 308.751 515.405 301.423C510.498 294.029 502.94 290.333 492.733 290.333C482.854 290.333 475.362 294.062 470.258 301.521C465.22 308.98 462.668 319.972 462.603 334.498V360.113C462.603 374.704 465.122 385.827 470.16 393.482C475.264 401.138 482.854 404.965 492.93 404.965C503.006 404.965 510.465 401.432 515.307 394.366C520.148 387.299 522.667 376.471 522.864 361.88V335.086ZM607.268 391.421L639.95 276.102H659.677L615.218 419H599.515L555.153 276.102H574.782L607.268 391.421ZM770.679 360.113C770.679 379.611 766.524 394.627 758.214 405.162C749.905 415.696 738.095 420.963 722.784 420.963C708.062 420.963 696.416 415.859 687.845 405.652C679.339 395.38 674.922 380.887 674.595 362.174V335.283C674.595 316.177 678.815 301.227 687.256 290.431C695.696 279.569 707.474 274.139 722.588 274.139C737.637 274.139 749.349 279.34 757.724 289.744C766.164 300.082 770.482 314.869 770.679 334.105V360.113ZM752.718 335.086C752.718 319.972 750.232 308.751 745.259 301.423C740.352 294.029 732.795 290.333 722.588 290.333C712.708 290.333 705.216 294.062 700.113 301.521C695.075 308.98 692.523 319.972 692.458 334.498V360.113C692.458 374.704 694.977 385.827 700.015 393.482C705.118 401.138 712.708 404.965 722.784 404.965C732.86 404.965 740.319 401.432 745.161 394.366C750.003 387.299 752.522 376.471 752.718 361.88V335.086ZM828.191 365.708H787.658V350.888H828.191V365.708ZM910.731 382.883C910.731 375.751 908.801 370.288 904.94 366.493C901.08 362.698 894.112 359.001 884.036 355.402C873.959 351.804 866.239 348.042 860.874 344.116C855.574 340.125 851.583 335.61 848.9 330.572C846.283 325.468 844.974 319.645 844.974 313.102C844.974 301.783 848.736 292.459 856.261 285.131C863.851 277.803 873.763 274.139 885.999 274.139C894.374 274.139 901.833 276.036 908.375 279.831C914.918 283.561 919.957 288.762 923.49 295.436C927.023 302.11 928.79 309.438 928.79 317.42H910.731C910.731 308.587 908.604 301.75 904.352 296.908C900.099 292.066 893.981 289.646 885.999 289.646C878.736 289.646 873.109 291.674 869.118 295.73C865.126 299.787 863.131 305.479 863.131 312.808C863.131 318.827 865.29 323.865 869.608 327.922C873.927 331.979 880.601 335.61 889.63 338.816C903.697 343.461 913.741 349.187 919.76 355.991C925.845 362.796 928.888 371.694 928.888 382.687C928.888 394.268 925.125 403.559 917.601 410.56C910.077 417.495 899.837 420.963 886.882 420.963C878.572 420.963 870.884 419.164 863.818 415.565C856.817 411.901 851.288 406.797 847.231 400.254C843.24 393.646 841.245 386.089 841.245 377.583H859.303C859.303 386.416 861.757 393.286 866.664 398.193C871.637 403.101 878.376 405.554 886.882 405.554C894.799 405.554 900.753 403.526 904.744 399.469C908.735 395.413 910.731 389.884 910.731 382.883ZM993.369 391.421L1026.05 276.102H1045.78L1001.32 419H985.615L941.254 276.102H960.883L993.369 391.421ZM1124.39 381.705H1076.1L1065.01 419H1046.56L1092.59 276.102H1108L1154.13 419H1135.68L1124.39 381.705ZM1080.82 366.198H1119.78L1100.25 301.227L1080.82 366.198ZM1191.62 403.591H1247.66V419H1173.56V276.102H1191.62V403.591ZM1355.62 360.113C1355.62 379.611 1351.47 394.627 1343.16 405.162C1334.85 415.696 1323.04 420.963 1307.73 420.963C1293 420.963 1281.36 415.859 1272.79 405.652C1264.28 395.38 1259.86 380.887 1259.54 362.174V335.283C1259.54 316.177 1263.76 301.227 1272.2 290.431C1280.64 279.569 1292.42 274.139 1307.53 274.139C1322.58 274.139 1334.29 279.34 1342.67 289.744C1351.11 300.082 1355.42 314.869 1355.62 334.105V360.113ZM1337.66 335.086C1337.66 319.972 1335.17 308.751 1330.2 301.423C1325.29 294.029 1317.74 290.333 1307.53 290.333C1297.65 290.333 1290.16 294.062 1285.05 301.521C1280.02 308.98 1277.46 319.972 1277.4 334.498V360.113C1277.4 374.704 1279.92 385.827 1284.96 393.482C1290.06 401.138 1297.65 404.965 1307.73 404.965C1317.8 404.965 1325.26 401.432 1330.1 394.366C1334.94 387.299 1337.46 376.471 1337.66 361.88V335.086ZM1422.06 391.421L1454.75 276.102H1474.47L1430.01 419H1414.31L1369.95 276.102H1389.58L1422.06 391.421ZM1531.1 347.845L1560.35 276.102H1580.67L1540.03 365.708V419H1522.07V365.708L1481.44 276.102H1501.86L1531.1 347.845ZM1540.43 237.825H1562.41L1536.11 266.68H1521.48L1540.43 237.825ZM1685.97 373.657C1685.19 388.968 1680.87 400.68 1673.02 408.793C1665.23 416.906 1654.21 420.963 1639.94 420.963C1625.62 420.963 1614.23 415.532 1605.79 404.671C1597.35 393.744 1593.13 378.957 1593.13 360.31V334.399C1593.13 315.817 1597.45 301.128 1606.08 290.333C1614.79 279.537 1626.63 274.139 1641.61 274.139C1655.42 274.139 1666.08 278.293 1673.61 286.603C1681.2 294.847 1685.32 306.657 1685.97 322.033H1667.82C1667.03 310.387 1664.58 302.077 1660.46 297.104C1656.33 292.132 1650.05 289.646 1641.61 289.646C1631.86 289.646 1624.37 293.473 1619.14 301.128C1613.9 308.718 1611.29 319.874 1611.29 334.596V360.8C1611.29 375.26 1613.71 386.351 1618.55 394.071C1623.46 401.792 1630.59 405.652 1639.94 405.652C1649.3 405.652 1656.04 403.33 1660.16 398.684C1664.28 394.039 1666.84 385.696 1667.82 373.657H1685.97ZM1803.94 419H1785.89V352.949H1728.37V419H1710.41V276.102H1728.37V337.54H1785.89V276.102H1803.94V419ZM1974.13 360.113C1974.13 379.611 1969.97 394.627 1961.66 405.162C1953.35 415.696 1941.54 420.963 1926.23 420.963C1911.51 420.963 1899.86 415.859 1891.29 405.652C1882.79 395.38 1878.37 380.887 1878.04 362.174V335.283C1878.04 316.177 1882.26 301.227 1890.7 290.431C1899.14 279.569 1910.92 274.139 1926.04 274.139C1941.08 274.139 1952.8 279.34 1961.17 289.744C1969.61 300.082 1973.93 314.869 1974.13 334.105V360.113ZM1956.17 335.086C1956.17 319.972 1953.68 308.751 1948.71 301.423C1943.8 294.029 1936.24 290.333 1926.04 290.333C1916.16 290.333 1908.66 294.062 1903.56 301.521C1898.52 308.98 1895.97 319.972 1895.91 334.498V360.113C1895.91 374.704 1898.42 385.827 1903.46 393.482C1908.57 401.138 1916.16 404.965 1926.23 404.965C1936.31 404.965 1943.77 401.432 1948.61 394.366C1953.45 387.299 1955.97 376.471 1956.17 361.88V335.086ZM2091.51 373.657C2090.72 388.968 2086.4 400.68 2078.55 408.793C2070.77 416.906 2059.74 420.963 2045.48 420.963C2031.15 420.963 2019.76 415.532 2011.32 404.671C2002.88 393.744 1998.66 378.957 1998.66 360.31V334.399C1998.66 315.817 2002.98 301.128 2011.62 290.333C2020.32 279.537 2032.16 274.139 2047.15 274.139C2060.95 274.139 2071.62 278.293 2079.14 286.603C2086.73 294.847 2090.85 306.657 2091.51 322.033H2073.35C2072.57 310.387 2070.11 302.077 2065.99 297.104C2061.87 292.132 2055.59 289.646 2047.15 289.646C2037.4 289.646 2029.91 293.473 2024.67 301.128C2019.44 308.718 2016.82 319.874 2016.82 334.596V360.8C2016.82 375.26 2019.24 386.351 2024.08 394.071C2028.99 401.792 2036.12 405.652 2045.48 405.652C2054.83 405.652 2061.57 403.33 2065.7 398.684C2069.82 394.039 2072.37 385.696 2073.35 373.657H2091.51ZM2209.48 419H2191.42V352.949H2133.91V419H2115.95V276.102H2133.91V337.54H2191.42V276.102H2209.48V419ZM2333.53 360.113C2333.53 379.611 2329.38 394.627 2321.07 405.162C2312.76 415.696 2300.95 420.963 2285.64 420.963C2270.92 420.963 2259.27 415.859 2250.7 405.652C2242.19 395.38 2237.78 380.887 2237.45 362.174V335.283C2237.45 316.177 2241.67 301.227 2250.11 290.431C2258.55 279.569 2270.33 274.139 2285.44 274.139C2300.49 274.139 2312.2 279.34 2320.58 289.744C2329.02 300.082 2333.34 314.869 2333.53 334.105V360.113ZM2315.57 335.086C2315.57 319.972 2313.09 308.751 2308.11 301.423C2303.21 294.029 2295.65 290.333 2285.44 290.333C2275.56 290.333 2268.07 294.062 2262.97 301.521C2257.93 308.98 2255.38 319.972 2255.31 334.498V360.113C2255.31 374.704 2257.83 385.827 2262.87 393.482C2267.97 401.138 2275.56 404.965 2285.64 404.965C2295.71 404.965 2303.17 401.432 2308.01 394.366C2312.86 387.299 2315.38 376.471 2315.57 361.88V335.086ZM2404.49 361.193H2379.37V419H2361.31V276.102H2401.35C2415.35 276.102 2425.95 279.766 2433.15 287.094C2440.35 294.356 2443.94 305.021 2443.94 319.089C2443.94 327.922 2441.98 335.643 2438.06 342.251C2434.2 348.794 2428.7 353.734 2421.57 357.071L2449.24 417.822V419H2429.91L2404.49 361.193ZM2379.37 345.784H2401.15C2408.68 345.784 2414.67 343.363 2419.11 338.521C2423.63 333.68 2425.89 327.202 2425.89 319.089C2425.89 300.769 2417.58 291.608 2400.96 291.608H2379.37V345.784ZM2536.59 352.949H2486.05V403.591H2544.94V419H2468.09V276.102H2543.95V291.608H2486.05V337.54H2536.59V352.949ZM2661.33 419H2643.28L2586.06 308.882V419H2568V276.102H2586.06L2643.47 386.71V276.102H2661.33V419ZM2711.19 419H2693.23V276.102H2711.19V419ZM2711 236.647H2732.98L2706.68 265.502H2692.05L2711 236.647Z" fill="black"/>
</svg>
